<svg width="32" height="32" viewBox="0 0 32 32" fill="none" xmlns="http://www.w3.org/2000/svg">
<path d="M20.3332 2.66663H11.6665C9.28064 2.67016 6.99354 3.61949 5.30648 5.30656C3.61941 6.99363 2.67004 9.28076 2.6665 11.6666V20.3333C2.6665 22.7202 3.61474 25.0094 5.30257 26.6973C6.9904 28.385 9.27956 29.3333 11.6665 29.3333H20.3332C22.7201 29.3333 25.0093 28.385 26.697 26.6973C28.3849 25.0094 29.3332 22.7202 29.3332 20.3333V11.6666C29.3297 9.28076 28.3804 6.99363 26.6933 5.30656C25.0062 3.61949 22.719 2.67016 20.3332 2.66663ZM10.7199 23.3066C10.3586 23.3066 10.0055 23.1996 9.70508 22.9988C9.40469 22.7981 9.17048 22.5128 9.03222 22.179C8.89397 21.8452 8.8579 21.478 8.92838 21.1236C8.99886 20.7693 9.17276 20.4438 9.42822 20.1884C9.68369 19.9329 10.0091 19.7589 10.3635 19.6884C10.7178 19.618 11.0852 19.6541 11.4189 19.7924C11.7527 19.9306 12.0381 20.1648 12.2388 20.4652C12.4395 20.7656 12.5465 21.1186 12.5465 21.48C12.5483 21.7204 12.5023 21.9586 12.4111 22.181C12.32 22.4036 12.1854 22.6056 12.0155 22.7756C11.8455 22.9456 11.6435 23.08 11.4211 23.1712C11.1986 23.2624 10.9603 23.3084 10.7199 23.3066ZM10.7199 17.8266C10.3586 17.8266 10.0055 17.7196 9.70508 17.5188C9.40469 17.3181 9.17048 17.0328 9.03222 16.699C8.89397 16.3652 8.8579 15.998 8.92838 15.6436C8.99886 15.2893 9.17276 14.9638 9.42822 14.7084C9.68369 14.4529 10.0091 14.2789 10.3635 14.2084C10.7178 14.138 11.0852 14.1741 11.4189 14.3124C11.7527 14.4506 12.0381 14.6848 12.2388 14.9852C12.4395 15.2856 12.5465 15.6386 12.5465 16C12.5574 16.2458 12.5181 16.4914 12.431 16.7216C12.3439 16.9518 12.2109 17.162 12.04 17.339C11.8691 17.5162 11.664 17.6566 11.437 17.752C11.2101 17.8473 10.966 17.8953 10.7199 17.8933V17.8266ZM10.7199 12.3466C10.3586 12.3466 10.0055 12.2395 9.70508 12.0388C9.40469 11.8381 9.17048 11.5528 9.03222 11.219C8.89397 10.8852 8.8579 10.5179 8.92838 10.1636C8.99886 9.80925 9.17276 9.48377 9.42822 9.22831C9.68369 8.97285 10.0091 8.79888 10.3635 8.7284C10.7178 8.65791 11.0852 8.69408 11.4189 8.83233C11.7527 8.97059 12.0381 9.20472 12.2388 9.50511C12.4395 9.80551 12.5465 10.1587 12.5465 10.52C12.5483 10.7603 12.5023 10.9987 12.4111 11.2211C12.32 11.4435 12.1854 11.6456 12.0155 11.8155C11.8455 11.9855 11.6435 12.12 11.4211 12.2112C11.1986 12.3023 10.9603 12.3484 10.7199 12.3466ZM21.5866 22.48H15.5598C15.2946 22.48 15.0402 22.3746 14.8526 22.187C14.6652 21.9996 14.5598 21.7452 14.5598 21.48C14.5598 21.2148 14.6652 20.9604 14.8526 20.7729C15.0402 20.5853 15.2946 20.48 15.5598 20.48H21.5866C21.8518 20.48 22.1061 20.5853 22.2936 20.7729C22.4812 20.9604 22.5866 21.2148 22.5866 21.48C22.5866 21.7452 22.4812 21.9996 22.2936 22.187C22.1061 22.3746 21.8518 22.48 21.5866 22.48ZM21.5866 17H15.5598C15.2946 17 15.0402 16.8946 14.8526 16.707C14.6652 16.5196 14.5598 16.2652 14.5598 16C14.5598 15.7348 14.6652 15.4804 14.8526 15.2929C15.0402 15.1053 15.2946 15 15.5598 15H21.5866C21.8518 15 22.1061 15.1053 22.2936 15.2929C22.4812 15.4804 22.5866 15.7348 22.5866 16C22.5866 16.2652 22.4812 16.5196 22.2936 16.707C22.1061 16.8946 21.8518 17 21.5866 17ZM21.5866 11.52H15.5598C15.2946 11.52 15.0402 11.4146 14.8526 11.2271C14.6652 11.0395 14.5598 10.7852 14.5598 10.52C14.5598 10.2547 14.6652 10.0004 14.8526 9.81284C15.0402 9.62531 15.2946 9.51996 15.5598 9.51996H21.5866C21.8518 9.51996 22.1061 9.62531 22.2936 9.81284C22.4812 10.0004 22.5866 10.2547 22.5866 10.52C22.5866 10.7852 22.4812 11.0395 22.2936 11.2271C22.1061 11.4146 21.8518 11.52 21.5866 11.52Z" fill="white"/>
</svg>
