<svg width="32" height="32" viewBox="0 0 32 32" fill="none" xmlns="http://www.w3.org/2000/svg">
<path d="M22.8537 4.0332H9.14698C7.42946 4.03674 5.78333 4.72058 4.56885 5.93504C3.35438 7.14951 2.67051 8.79568 2.66699 10.5132V21.4865C2.67051 23.204 3.35438 24.8503 4.56885 26.0647C5.78333 27.2792 7.42946 27.963 9.14698 27.9666H22.8537C24.5713 27.963 26.2174 27.2792 27.4318 26.0647C28.6463 24.8503 29.3302 23.204 29.3337 21.4865V10.5132C29.3302 8.79568 28.6463 7.14951 27.4318 5.93504C26.2174 4.72058 24.5713 4.03674 22.8537 4.0332ZM15.147 22.8199H8.29362C7.93999 22.8199 7.60097 22.6793 7.35091 22.4293C7.10086 22.1793 6.96029 21.8402 6.96029 21.4865C6.96029 21.1329 7.10086 20.7938 7.35091 20.5438C7.60097 20.2936 7.93999 20.1532 8.29362 20.1532H15.147C15.5006 20.1532 15.8398 20.2936 16.0898 20.5438C16.3399 20.7938 16.4803 21.1329 16.4803 21.4865C16.4803 21.8402 16.3399 22.1793 16.0898 22.4293C15.8398 22.6793 15.5006 22.8199 15.147 22.8199ZM27.3337 10.8865H4.66699V10.5132C4.67051 9.32612 5.14367 8.18866 5.98307 7.34924C6.82247 6.50984 7.95989 6.03672 9.14698 6.0332H22.8537C24.0407 6.03672 25.1782 6.50984 26.0175 7.34924C26.857 8.18866 27.3302 9.32612 27.3337 10.5132V10.8865Z" fill="url(#paint0_linear_94_291)"/>
<defs>
<linearGradient id="paint0_linear_94_291" x1="16.0003" y1="4.0332" x2="16.0003" y2="27.9666" gradientUnits="userSpaceOnUse">
<stop stop-color="#239CFF"/>
<stop offset="1" stop-color="#005BE3"/>
</linearGradient>
</defs>
</svg>
