<svg width="32" height="32" viewBox="0 0 32 32" fill="none" xmlns="http://www.w3.org/2000/svg">
<path d="M28.4936 22.0629C28.4425 22.593 28.2547 23.1008 27.9481 23.5361C27.6567 23.9573 27.2673 24.3016 26.8135 24.5392C26.3597 24.7768 25.8551 24.9006 25.3428 24.9001H21.3461C21.2796 25.2589 21.1792 25.6106 21.0461 25.9505C20.7711 26.622 20.368 27.2334 19.8593 27.751C19.3453 28.2673 18.7332 28.6753 18.0589 28.9513C17.4169 29.2076 16.7313 29.3373 16.04 29.3332H15.89C15.1819 29.3337 14.4811 29.1898 13.8304 28.9104C13.1664 28.6361 12.5633 28.2334 12.0554 27.7256C11.5475 27.2176 11.1448 26.6144 10.8705 25.9505C10.7312 25.6128 10.6306 25.2605 10.5705 24.9001H6.71021C6.20785 24.9389 5.70362 24.8536 5.24213 24.6513C4.78062 24.449 4.3761 24.1364 4.06409 23.7408C3.7654 23.2606 3.57952 22.719 3.52045 22.1566C3.46138 21.5944 3.53066 21.0261 3.72309 20.4944C4.01736 19.705 4.42145 18.9612 4.92344 18.2846C5.49456 17.5892 5.87517 16.7572 6.0282 15.8704C6.0282 11.9147 6.0283 10.5916 8.18347 8.02721C8.89428 7.17799 9.7776 6.48985 10.775 6.00849L11.8526 5.49015C11.8987 5.46503 11.9365 5.42713 11.9617 5.38101C12.0113 5.33339 12.0448 5.27135 12.0572 5.20367C12.2187 4.29581 12.7032 3.47702 13.4212 2.89847C13.5983 2.76567 13.8136 2.69385 14.0349 2.69385C14.2564 2.69385 14.4719 2.76567 14.6489 2.89847C14.8305 3.0269 14.9668 3.20973 15.0379 3.42055C15.1089 3.63138 15.1112 3.8593 15.0444 4.07151C15.0444 4.07151 13.4621 9.00926 16.4084 11.9965C19.3547 14.9837 24.2788 12.1739 24.3335 12.1466C24.4864 12.0566 24.6607 12.0091 24.8381 12.0091C25.0156 12.0091 25.1897 12.0566 25.3428 12.1466C25.496 12.2351 25.6233 12.3622 25.7119 12.5155C25.8005 12.6687 25.8472 12.8425 25.8475 13.0195V15.9249C26.0324 16.8714 26.4496 17.7573 27.0615 18.5029C27.5489 19.1568 27.948 19.8722 28.2481 20.6308C28.4472 21.0805 28.5315 21.5726 28.4936 22.0629Z" fill="white"/>
<path d="M20.4048 10.8092C22.4534 10.8092 24.1142 9.14842 24.1142 7.09974C24.1142 5.05105 22.4534 3.39026 20.4048 3.39026C18.3561 3.39026 16.6953 5.05105 16.6953 7.09974C16.6953 9.14842 18.3561 10.8092 20.4048 10.8092Z" fill="white"/>
</svg>
