<svg width="32" height="32" viewBox="0 0 32 32" fill="none" xmlns="http://www.w3.org/2000/svg">
<path d="M28.2457 10.3534C27.9135 9.64196 27.3744 9.04722 26.6991 8.64669L18.0857 3.31336C17.4529 2.92133 16.7233 2.71362 15.9791 2.71362C15.2347 2.71362 14.5051 2.92133 13.8724 3.31336L5.23239 8.64669C4.57843 9.06318 4.05963 9.66072 3.73905 10.3667C3.41839 11.0763 3.31183 11.864 3.43241 12.6333L5.65907 25.9667C5.81831 26.89 6.29659 27.7281 7.01055 28.3348C7.72449 28.9416 8.62881 29.2784 9.56572 29.2867H22.4057C23.3524 29.2756 24.2681 28.9469 25.0057 28.3533C25.7167 27.7391 26.1887 26.8941 26.3391 25.9667L28.5657 12.6333C28.6921 11.8585 28.5807 11.0635 28.2457 10.3534ZM21.9391 18.3533C20.6844 20.6407 18.7316 22.4673 16.3657 23.5667C16.2559 23.6288 16.1319 23.6609 16.0057 23.66C15.8795 23.6623 15.7549 23.63 15.6457 23.5667C13.2772 22.4712 11.3233 20.6436 10.0724 18.3533C9.60855 17.4451 9.43036 16.4177 9.56124 15.4064C9.69213 14.3951 10.1259 13.4469 10.8057 12.6867C11.2107 12.3335 11.6945 12.0825 12.2165 11.9549C12.7385 11.8273 13.2835 11.8268 13.8057 11.9533C14.6659 12.1434 15.4392 12.6121 16.0057 13.2867C16.5723 12.6121 17.3456 12.1434 18.2057 11.9533C18.728 11.8268 19.2729 11.8273 19.7949 11.9549C20.3169 12.0825 20.8007 12.3335 21.2057 12.6867C21.8723 13.446 22.2979 14.3865 22.4285 15.3884C22.5591 16.3904 22.3888 17.4085 21.9391 18.3133V18.3533Z" fill="white"/>
</svg>
