<svg width="27" height="27" viewBox="0 0 27 27" fill="none" xmlns="http://www.w3.org/2000/svg">
<path d="M17.6133 8.88865e-05H9C6.61413 0.00360889 4.327 0.952995 2.63993 2.64006C0.952866 4.32712 0.00353333 6.61422 0 9.00009V17.6668C0.00353333 20.0527 0.952866 22.3397 2.63993 24.0268C4.327 25.7139 6.61413 26.6632 9 26.6668H17.6667C20.0525 26.6632 22.3397 25.7139 24.0268 24.0268C25.7137 22.3397 26.6632 20.0527 26.6667 17.6668V9.00009C26.6649 7.81418 26.4292 6.64028 25.9729 5.54566C25.5167 4.45104 24.8489 3.45725 24.0079 2.62118C23.1668 1.7851 22.1691 1.1232 21.0717 0.673422C19.9745 0.223649 18.7992 -0.00517778 17.6133 8.88865e-05ZM20.1333 14.2535H19.9467C19.7119 14.2512 19.4852 14.1677 19.3052 14.0169C19.1252 13.8661 19.0032 13.6575 18.96 13.4268L18.72 12.0935L16.9733 14.7601C16.6443 15.25 16.138 15.5931 15.5612 15.7175C14.9843 15.8417 14.3816 15.7376 13.88 15.4268L10.8533 13.5068C10.7976 13.4852 10.7357 13.4852 10.68 13.5068C10.6104 13.518 10.5481 13.5564 10.5067 13.6135L7.41333 17.7335C7.3188 17.8561 7.19771 17.9559 7.05916 18.0252C6.92061 18.0944 6.7682 18.1315 6.61332 18.1335C6.3968 18.1344 6.18599 18.0641 6.01335 17.9335C5.81972 17.7761 5.69183 17.5523 5.65483 17.3056C5.61783 17.0589 5.67435 16.8072 5.81332 16.6001L8.90665 12.4801C9.24717 12.0304 9.74236 11.7228 10.2965 11.6169C10.8505 11.5109 11.4243 11.6143 11.9067 11.9068L14.9467 13.8268C15.0088 13.8576 15.0795 13.8665 15.1473 13.852C15.2151 13.8375 15.276 13.8003 15.32 13.7468L17.1067 11.0801L15.6667 11.2801C15.5371 11.3047 15.404 11.3033 15.2748 11.2764C15.1457 11.2495 15.0232 11.1975 14.9143 11.1232C14.8053 11.0488 14.7121 10.9539 14.6399 10.8435C14.5676 10.7332 14.5179 10.6097 14.4933 10.4801C14.4688 10.3506 14.47 10.2174 14.4969 10.0883C14.5239 9.95921 14.576 9.83674 14.6503 9.72778C14.7245 9.61884 14.8196 9.52553 14.93 9.45329C15.0403 9.38106 15.1637 9.33132 15.2933 9.30681L18.9733 8.6268H19.2133H19.4533C19.4879 8.6146 19.5255 8.6146 19.56 8.6268L19.76 8.73349L19.96 8.89348C20.0076 8.95048 20.0479 9.01311 20.08 9.08008C20.118 9.14163 20.1451 9.20933 20.16 9.28012L20.8533 13.0135C20.8895 13.1421 20.8993 13.2768 20.8825 13.4095C20.8656 13.542 20.8224 13.6699 20.7552 13.7855C20.6881 13.9011 20.5985 14.0021 20.4917 14.0824C20.3849 14.1628 20.2631 14.2209 20.1333 14.2535Z" fill="white"/>
</svg>
