<svg width="28" height="28" viewBox="0 0 28 28" fill="none" xmlns="http://www.w3.org/2000/svg">
<path d="M13.6667 0C10.9637 0 8.32141 0.801534 6.07394 2.30324C3.82646 3.80496 2.07481 5.93941 1.04041 8.43667C0.00600561 10.9339 -0.264754 13.6819 0.262579 16.3329C0.789912 18.984 2.09166 21.4192 4.00297 23.3304C5.91429 25.2417 8.34946 26.5435 11.0006 27.0708C13.6516 27.5981 16.3995 27.3275 18.8967 26.2931C21.3939 25.2587 23.5284 23.5069 25.0302 21.2595C26.5319 19.012 27.3334 16.3697 27.3334 13.6667C27.3299 10.0431 25.8888 6.56901 23.3266 4.00677C20.7643 1.44455 17.2903 0.00353333 13.6667 0ZM14.6667 21.3333V22.3867C14.6667 22.6519 14.5612 22.9063 14.3738 23.0937C14.1862 23.2813 13.9319 23.3867 13.6667 23.3867C13.4015 23.3867 13.1472 23.2813 12.9596 23.0937C12.7722 22.9063 12.6667 22.6519 12.6667 22.3867V21.3333C11.7978 21.2035 10.9838 20.8288 10.32 20.2533C9.84675 19.8556 9.45699 19.368 9.17322 18.8188C8.88945 18.2695 8.71727 17.6695 8.66671 17.0533C8.6445 16.79 8.72746 16.5287 8.89734 16.3263C9.06722 16.124 9.3103 15.9971 9.57345 15.9733C9.83817 15.9509 10.1011 16.0335 10.3055 16.2031C10.51 16.3727 10.6397 16.6157 10.6667 16.88C10.6922 17.2367 10.7892 17.5844 10.9519 17.9028C11.1146 18.2212 11.3394 18.5036 11.6134 18.7333C12.1636 19.2056 12.8763 19.4447 13.6 19.4C15.68 19.4 16.6667 18.6 16.6667 16.9733C16.6667 15.8933 15.72 14.7333 13.6667 14.7333C9.32005 14.7333 8.66671 12.0667 8.66671 10.5333C8.68854 9.88511 8.84755 9.24889 9.13334 8.66667C9.40807 8.10139 9.79417 7.59741 10.2684 7.18501C10.7427 6.7726 11.2955 6.46023 11.8935 6.26667C12.1463 6.18852 12.4047 6.13056 12.6667 6.09333V5.05333C12.6667 4.78812 12.7722 4.53376 12.9596 4.34623C13.1472 4.15868 13.4015 4.05333 13.6667 4.05333C13.9319 4.05333 14.1862 4.15868 14.3738 4.34623C14.5612 4.53376 14.6667 4.78812 14.6667 5.05333V6.13333C15.7135 6.30791 16.6731 6.82352 17.3966 7.59997C18.1199 8.37643 18.5666 9.37017 18.6667 10.4267C18.6776 10.6817 18.5907 10.9313 18.4235 11.1243C18.2564 11.3172 18.0218 11.4391 17.7678 11.4645C17.5138 11.4901 17.2596 11.4176 17.0574 11.2619C16.8551 11.106 16.7202 10.8788 16.68 10.6267C16.6059 9.90307 16.2583 9.23508 15.708 8.75925C15.1579 8.28343 14.4468 8.03569 13.7202 8.06667H13.48C13.1552 8.06411 12.8319 8.10901 12.52 8.19999C12.1818 8.31021 11.8688 8.48701 11.6 8.71999C11.3243 8.955 11.1016 9.24585 10.9467 9.57332C10.7852 9.89245 10.6943 10.2426 10.6801 10.6C10.6801 11.6933 11.04 12.76 13.68 12.76C16.96 12.76 18.68 14.8933 18.68 17C18.6978 17.5489 18.6063 18.096 18.4108 18.6093C18.2155 19.1227 17.92 19.5921 17.5418 19.9903C17.1634 20.3885 16.7096 20.7076 16.207 20.9289C15.7043 21.1504 15.1626 21.2697 14.6134 21.28L14.6667 21.3333Z" fill="white"/>
</svg>
