<svg width="599" height="354" viewBox="0 0 599 354" fill="none" xmlns="http://www.w3.org/2000/svg">
<rect width="517.87" height="319.248" rx="22.7358" transform="matrix(0.996195 0.0871557 -0.258819 0.965926 82.6276 0)" fill="url(#paint0_linear_6_114)"/>
<mask id="mask0_6_114" style="mask-type:alpha" maskUnits="userSpaceOnUse" x="-1" y="0" width="600" height="396">
<path d="M-0.165649 45.7963C-0.165649 24.3608 -0.165649 13.6431 6.49351 6.98392C13.1527 0.324768 23.8704 0.324768 45.3059 0.324768H553.363C574.798 0.324768 585.516 0.324768 592.175 6.98392C598.834 13.6431 598.834 24.3608 598.834 45.7963V349.853C598.834 371.289 598.834 382.006 592.175 388.666C585.516 395.325 574.798 395.325 553.363 395.325H45.3059C23.8704 395.325 13.1527 395.325 6.49351 388.666C-0.165649 382.006 -0.165649 371.289 -0.165649 349.853V45.7963Z" fill="url(#paint1_linear_6_114)"/>
</mask>
<g mask="url(#mask0_6_114)">
<g clip-path="url(#clip0_6_114)">
<rect width="517.87" height="319.248" rx="22.7358" transform="matrix(0.996195 0.0871557 -0.258819 0.965926 82.6276 0)" fill="white"/>
<path d="M98.91 38.0008L99.3474 36.3685C100.389 35.7811 101.393 35.1904 102.357 34.5964C103.322 34.0023 104.207 33.4077 105.013 32.8125C105.82 32.2174 106.487 31.623 107.016 31.0291C107.545 30.4353 107.886 29.8508 108.041 29.2754C108.141 28.9001 108.164 28.5437 108.109 28.2061C108.055 27.8684 107.899 27.586 107.643 27.3588C107.4 27.1327 107.027 26.9977 106.524 26.9536C106.034 26.9108 105.586 26.9804 105.181 27.1626C104.788 27.3459 104.46 27.6115 104.195 27.9596C103.933 28.2952 103.742 28.6881 103.622 29.1384L101.377 28.942C101.657 27.9936 102.083 27.218 102.654 26.6151C103.225 26.0121 103.894 25.5842 104.661 25.3313C105.432 25.0659 106.243 24.9705 107.095 25.045C108.011 25.1251 108.748 25.356 109.305 25.7376C109.863 26.1193 110.238 26.6193 110.428 27.2376C110.619 27.856 110.607 28.5654 110.393 29.366C110.235 29.9538 109.963 30.5253 109.577 31.0804C109.207 31.624 108.75 32.1473 108.206 32.6502C107.665 33.1405 107.076 33.6139 106.439 34.0702C105.818 34.5151 105.183 34.9396 104.533 35.3436C103.887 35.7351 103.269 36.0971 102.678 36.4294L108.734 36.9593L108.237 38.8168L98.91 38.0008ZM107.97 41.1552L110.299 36.6737L112.563 36.8718L109.498 41.289L107.97 41.1552ZM117.865 39.8896C116.949 39.8094 116.166 39.5809 115.514 39.2038C114.866 38.8143 114.4 38.3126 114.115 37.6989C113.847 37.0738 113.819 36.3672 114.03 35.5792C114.17 35.0538 114.398 34.5745 114.712 34.1411C115.026 33.7077 115.407 33.3443 115.856 33.0506C116.308 32.7445 116.794 32.531 117.315 32.4102C116.756 32.0797 116.355 31.6542 116.112 31.1337C115.885 30.6017 115.853 30.0293 116.018 29.4164C116.189 28.7785 116.519 28.2121 117.008 27.7172C117.497 27.2224 118.12 26.8417 118.878 26.5751C119.649 26.3098 120.525 26.2199 121.505 26.3057C122.485 26.3915 123.268 26.6263 123.851 27.0102C124.435 27.3941 124.83 27.864 125.038 28.4198C125.246 28.9756 125.264 29.5725 125.093 30.2104C124.932 30.8108 124.596 31.351 124.084 31.8311C123.589 32.2999 122.99 32.6379 122.288 32.8453C122.734 33.0508 123.087 33.3376 123.344 33.7058C123.615 34.0751 123.787 34.4934 123.86 34.9606C123.949 35.4165 123.923 35.9071 123.782 36.4324C123.571 37.2204 123.167 37.8892 122.571 38.4387C121.978 38.9757 121.271 39.3746 120.448 39.6355C119.642 39.885 118.781 39.9697 117.865 39.8896ZM118.373 37.9946C119.224 38.0691 119.917 37.9248 120.45 37.5618C120.999 37.1874 121.357 36.6875 121.525 36.0621C121.712 35.3616 121.624 34.8035 121.26 34.3876C120.913 33.9603 120.339 33.7117 119.539 33.6417C118.74 33.5718 118.049 33.7098 117.468 34.0558C116.903 34.3904 116.527 34.9079 116.339 35.6084C116.171 36.2338 116.252 36.7721 116.58 37.2232C116.924 37.663 117.522 37.9201 118.373 37.9946ZM119.997 31.9344C120.693 31.9953 121.282 31.8676 121.763 31.5512C122.26 31.2235 122.581 30.7907 122.725 30.2528C122.889 29.6399 122.815 29.1534 122.502 28.7932C122.206 28.4216 121.709 28.2054 121.012 28.1444C120.316 28.0835 119.722 28.2044 119.232 28.5071C118.758 28.7984 118.439 29.2506 118.274 29.8635C118.127 30.4138 118.2 30.8811 118.493 31.2651C118.799 31.6504 119.3 31.8734 119.997 31.9344ZM130.735 40.7851L131.404 38.2898L124.69 37.7023L125.172 35.9011L133.926 27.6228L136.557 27.853L134.235 36.5212L136.073 36.682L135.545 38.652L133.707 38.4912L133.038 40.9866L130.735 40.7851ZM127.714 35.9507L132.067 36.3316L133.726 30.14L127.714 35.9507ZM137.057 41.3382L145.109 30.579L138.297 29.9831L138.815 28.0506L148.007 28.8547L147.574 30.4683L139.476 41.5498L137.057 41.3382Z" fill="black"/>
<path opacity="0.8" d="M151.896 42.6365L154.321 33.5885L151.195 33.315L151.517 32.1145L159.293 32.7948L158.971 33.9954L155.831 33.7206L153.406 42.7686L151.896 42.6365ZM156.586 43.0467L158.563 35.6678L159.922 35.7867L159.685 37.1894C159.945 36.8726 160.241 36.6138 160.573 36.4131C160.908 36.2026 161.273 36.0498 161.669 35.9546C162.076 35.8603 162.516 35.8338 162.989 35.8752L162.573 37.4271L162.029 37.3796C161.717 37.3523 161.41 37.3653 161.107 37.4188C160.807 37.4624 160.523 37.5624 160.254 37.7187C159.996 37.8759 159.765 38.1005 159.564 38.3925C159.362 38.6845 159.201 39.055 159.08 39.504L158.096 43.1788L156.586 43.0467ZM164.222 43.8946C163.598 43.84 163.107 43.6922 162.749 43.4511C162.391 43.21 162.157 42.9098 162.048 42.5506C161.94 42.1816 161.94 41.797 162.048 41.3969C162.178 40.9088 162.42 40.5055 162.774 40.1867C163.13 39.8583 163.574 39.6224 164.107 39.4793C164.64 39.3361 165.243 39.294 165.918 39.353L167.896 39.5261C168.011 39.0966 168.041 38.7346 167.986 38.4401C167.931 38.1456 167.791 37.9186 167.566 37.759C167.353 37.5906 167.051 37.4892 166.658 37.4549C166.205 37.4153 165.789 37.4887 165.409 37.6753C165.032 37.852 164.748 38.1419 164.558 38.5448L163.048 38.4127C163.247 37.9007 163.546 37.4773 163.945 37.1426C164.356 36.799 164.83 36.5507 165.365 36.3978C165.903 36.2351 166.444 36.1775 166.988 36.2251C167.702 36.2876 168.269 36.462 168.686 36.7483C169.104 37.0346 169.374 37.4128 169.495 37.8829C169.629 38.3441 169.614 38.8822 169.449 39.4971L168.225 44.065L166.911 43.9501L167.124 42.6951C166.961 42.8806 166.78 43.0546 166.582 43.2171C166.384 43.3795 166.162 43.515 165.917 43.6234C165.682 43.7326 165.419 43.8095 165.129 43.8541C164.846 43.9093 164.544 43.9228 164.222 43.8946ZM164.826 42.7338C165.149 42.762 165.457 42.7241 165.753 42.6201C166.049 42.5161 166.316 42.3647 166.555 42.1658C166.806 41.958 167.014 41.7215 167.178 41.4561C167.354 41.1819 167.487 40.8988 167.575 40.6068L167.587 40.5629L165.79 40.4057C165.357 40.3678 164.991 40.3907 164.69 40.4743C164.402 40.549 164.174 40.6689 164.006 40.834C163.839 40.9991 163.723 41.1988 163.66 41.4331C163.595 41.6771 163.594 41.8918 163.658 42.0772C163.734 42.2537 163.87 42.4004 164.065 42.5174C164.261 42.6344 164.514 42.7065 164.826 42.7338ZM169.548 44.1808L171.525 36.8019L172.884 36.9208L172.638 38.1878C172.997 37.7697 173.432 37.4532 173.943 37.2381C174.456 37.0134 175 36.9261 175.574 36.9763C176.178 37.0291 176.665 37.1916 177.035 37.4637C177.405 37.7358 177.647 38.1216 177.76 38.621C177.876 39.1106 177.839 39.7117 177.648 40.4242L176.479 44.7872L174.969 44.655L176.099 40.4385C176.282 39.7553 176.264 39.2243 176.047 38.8457C175.829 38.467 175.423 38.2517 174.829 38.1997C174.436 38.1653 174.059 38.2272 173.697 38.3854C173.338 38.5338 173.016 38.7753 172.73 39.1099C172.455 39.4455 172.249 39.867 172.113 40.3745L171.058 44.3129L169.548 44.1808ZM180.704 45.3366C180.059 45.2802 179.523 45.1284 179.095 44.8812C178.667 44.6339 178.361 44.3125 178.179 43.917C177.996 43.5214 177.942 43.0721 178.015 42.569L179.555 42.7038C179.542 42.9424 179.58 43.1655 179.669 43.3731C179.768 43.5815 179.927 43.7553 180.147 43.8944C180.378 44.0344 180.669 44.1199 181.021 44.1507C181.354 44.1797 181.637 44.1596 181.872 44.0903C182.12 44.012 182.315 43.8992 182.457 43.7519C182.602 43.5947 182.7 43.4235 182.75 43.238C182.823 42.9647 182.807 42.7536 182.703 42.6046C182.611 42.4467 182.44 42.3169 182.189 42.215C181.951 42.1043 181.655 41.9985 181.301 41.8976C180.964 41.8082 180.643 41.7001 180.337 41.5735C180.043 41.4379 179.787 41.2806 179.567 41.1015C179.357 40.9234 179.208 40.7105 179.12 40.4631C179.034 40.2059 179.038 39.9016 179.133 39.5502C179.245 39.1305 179.461 38.7648 179.782 38.4532C180.105 38.1319 180.503 37.897 180.975 37.7485C181.46 37.5912 181.995 37.538 182.579 37.5891C183.424 37.6631 184.051 37.9177 184.46 38.3531C184.869 38.7884 185.023 39.3663 184.923 40.0867L183.458 39.9586C183.507 39.6232 183.424 39.3562 183.209 39.1576C182.997 38.9493 182.675 38.8262 182.242 38.7883C181.809 38.7505 181.455 38.8044 181.179 38.95C180.903 39.0957 180.728 39.3052 180.655 39.5785C180.608 39.7542 180.631 39.9161 180.726 40.0642C180.82 40.2122 180.98 40.3461 181.205 40.4657C181.443 40.5765 181.738 40.6872 182.09 40.7978C182.597 40.9421 183.043 41.106 183.426 41.2894C183.81 41.4728 184.089 41.717 184.265 42.0221C184.441 42.3271 184.458 42.7432 184.317 43.2703C184.204 43.7299 183.975 44.1244 183.629 44.4537C183.293 44.784 182.873 45.0269 182.368 45.1825C181.872 45.3389 181.318 45.3903 180.704 45.3366ZM187.389 45.9215C186.765 45.8669 186.274 45.719 185.916 45.4779C185.558 45.2369 185.324 44.9367 185.215 44.5775C185.107 44.2085 185.107 43.8239 185.215 43.4237C185.345 42.9357 185.587 42.5323 185.941 42.2136C186.297 41.8851 186.741 41.6493 187.274 41.5061C187.807 41.3629 188.41 41.3209 189.085 41.3799L191.063 41.5529C191.178 41.1235 191.208 40.7615 191.153 40.467C191.098 40.1725 190.958 39.9454 190.733 39.7859C190.52 39.6175 190.218 39.5161 189.825 39.4817C189.372 39.4421 188.956 39.5156 188.576 39.7021C188.199 39.8789 187.916 40.1688 187.725 40.5716L186.215 40.4395C186.414 39.9275 186.713 39.5042 187.112 39.1694C187.523 38.8258 187.997 38.5776 188.532 38.4246C189.07 38.2619 189.611 38.2044 190.155 38.2519C190.87 38.3145 191.436 38.4889 191.854 38.7751C192.271 39.0614 192.541 39.4396 192.662 39.9098C192.796 40.371 192.781 40.9091 192.616 41.524L191.392 46.0919L190.078 45.977L190.291 44.7219C190.128 44.9074 189.947 45.0814 189.749 45.2439C189.551 45.4064 189.33 45.5418 189.084 45.6502C188.849 45.7595 188.586 45.8364 188.296 45.881C188.013 45.9361 187.711 45.9496 187.389 45.9215ZM187.994 44.7607C188.316 44.7888 188.625 44.7509 188.92 44.6469C189.216 44.543 189.483 44.3915 189.722 44.1927C189.973 43.9849 190.181 43.7483 190.345 43.483C190.521 43.2087 190.654 42.9256 190.742 42.6337L190.754 42.5898L188.957 42.4326C188.524 42.3947 188.158 42.4176 187.857 42.5011C187.569 42.5758 187.341 42.6958 187.174 42.8609C187.006 43.026 186.89 43.2257 186.828 43.4599C186.762 43.704 186.761 43.9186 186.825 44.104C186.901 44.2805 187.037 44.4273 187.232 44.5442C187.428 44.6612 187.681 44.7334 187.994 44.7607ZM196.186 46.6911C195.452 46.6269 194.84 46.4086 194.353 46.0363C193.868 45.6542 193.537 45.1607 193.359 44.5558C193.191 43.9517 193.209 43.2691 193.413 42.5077C193.62 41.7367 193.961 41.0773 194.438 40.5296C194.927 39.973 195.501 39.5588 196.161 39.2869C196.824 39.0052 197.523 38.8966 198.258 38.9608C199.184 39.0419 199.896 39.3439 200.395 39.867C200.893 40.3901 201.121 41.0594 201.078 41.8747L199.507 41.7373C199.522 41.299 199.379 40.9469 199.08 40.681C198.79 40.4159 198.399 40.2618 197.905 40.2186C197.503 40.1834 197.103 40.2533 196.706 40.4283C196.311 40.5936 195.956 40.8622 195.64 41.2341C195.336 41.5972 195.109 42.0617 194.957 42.6278C194.845 43.0475 194.804 43.4286 194.836 43.771C194.871 44.1037 194.959 44.3911 195.1 44.6332C195.251 44.8762 195.447 45.0681 195.687 45.209C195.93 45.3402 196.203 45.4189 196.505 45.4454C196.837 45.4744 197.147 45.4516 197.435 45.3769C197.735 45.2933 198.004 45.157 198.24 44.9678C198.486 44.7796 198.682 44.547 198.829 44.2702L200.399 44.4075C200.019 45.1734 199.452 45.7682 198.7 46.1918C197.95 46.6057 197.113 46.7722 196.186 46.6911ZM203.893 47.1856C203.41 47.1433 203.012 47.0335 202.699 46.8563C202.386 46.6791 202.179 46.4113 202.079 46.0529C201.98 45.6946 202.008 45.2226 202.165 44.637L203.181 40.845L201.868 40.7301L202.201 39.4856L203.515 39.6006L204.19 37.7717L205.519 37.8879L205.025 39.7327L207.184 39.9216L206.85 41.166L204.691 40.9771L203.671 44.7837C203.559 45.2034 203.572 45.4993 203.712 45.6713C203.853 45.8336 204.146 45.9341 204.589 45.9728L205.465 46.0494L205.131 47.2939L203.893 47.1856ZM206.373 47.4026L208.351 40.0237L209.861 40.1558L207.883 47.5347L206.373 47.4026ZM209.493 38.7002C209.201 38.6746 208.983 38.5656 208.839 38.3732C208.705 38.1817 208.675 37.9493 208.748 37.676C208.819 37.4124 208.967 37.2056 209.192 37.0556C209.431 36.8966 209.696 36.8299 209.988 36.8554C210.27 36.8801 210.483 36.9886 210.627 37.1811C210.774 37.3637 210.812 37.5868 210.741 37.8504C210.668 38.1236 210.512 38.3398 210.274 38.4987C210.035 38.6577 209.775 38.7248 209.493 38.7002ZM212.864 48.1503C212.15 48.0878 211.549 47.8703 211.061 47.498C210.584 47.1266 210.256 46.6385 210.078 46.0335C209.913 45.4197 209.932 44.7322 210.136 43.9708C210.346 43.19 210.694 42.5262 211.18 41.9794C211.669 41.4228 212.244 41.0086 212.904 40.7367C213.564 40.4648 214.251 40.3601 214.966 40.4226C215.691 40.486 216.292 40.7034 216.769 41.0749C217.247 41.4463 217.569 41.934 217.737 42.5381C217.915 43.143 217.899 43.8359 217.69 44.6167C217.481 45.3976 217.133 46.0614 216.647 46.6082C216.17 47.1559 215.602 47.5657 214.942 47.8376C214.282 48.1094 213.589 48.2137 212.864 48.1503ZM213.202 46.8912C213.615 46.9273 214.013 46.8623 214.398 46.6961C214.792 46.5309 215.141 46.2667 215.444 45.9037C215.761 45.5317 215.996 45.0578 216.15 44.482C216.304 43.9061 216.332 43.419 216.232 43.0208C216.136 42.6127 215.942 42.2961 215.652 42.071C215.373 41.8467 215.031 41.717 214.629 41.6817C214.226 41.6465 213.827 41.7115 213.433 41.8768C213.038 42.0421 212.683 42.3106 212.367 42.6826C212.064 43.0456 211.835 43.5151 211.681 44.0909C211.526 44.6668 211.497 45.1588 211.594 45.5668C211.704 45.9659 211.898 46.2777 212.178 46.5019C212.468 46.7271 212.809 46.8568 213.202 46.8912ZM217.874 48.4087L219.851 41.0298L221.21 41.1487L220.963 42.4157C221.322 41.9976 221.757 41.6811 222.268 41.4661C222.782 41.2413 223.326 41.154 223.899 41.2042C224.503 41.257 224.99 41.4195 225.36 41.6916C225.731 41.9638 225.972 42.3495 226.086 42.8489C226.202 43.3386 226.164 43.9396 225.973 44.6522L224.804 49.0151L223.294 48.883L224.424 44.6665C224.607 43.9832 224.59 43.4523 224.372 43.0736C224.154 42.6949 223.748 42.4796 223.154 42.4276C222.762 42.3933 222.385 42.4552 222.023 42.6133C221.664 42.7617 221.341 43.0032 221.056 43.3379C220.781 43.6734 220.575 44.0949 220.439 44.6025L219.384 48.5408L217.874 48.4087ZM229.029 49.5645C228.385 49.5081 227.849 49.3563 227.42 49.1091C226.992 48.8619 226.687 48.5405 226.504 48.1449C226.322 47.7493 226.267 47.3 226.34 46.797L227.88 46.9317C227.868 47.1704 227.906 47.3935 227.995 47.601C228.093 47.8094 228.253 47.9832 228.473 48.1223C228.703 48.2624 228.995 48.3478 229.347 48.3786C229.679 48.4077 229.963 48.3875 230.198 48.3182C230.445 48.24 230.64 48.1272 230.783 47.9798C230.928 47.8227 231.025 47.6514 231.075 47.4659C231.148 47.1927 231.133 46.9815 231.028 46.8325C230.937 46.6747 230.766 46.5448 230.515 46.443C230.276 46.3322 229.98 46.2264 229.626 46.1255C229.29 46.0361 228.968 45.9281 228.662 45.8014C228.369 45.6659 228.112 45.5085 227.892 45.3295C227.683 45.1513 227.533 44.9385 227.445 44.691C227.36 44.4338 227.364 44.1295 227.458 43.7781C227.571 43.3584 227.787 42.9928 228.107 42.6812C228.43 42.3598 228.828 42.1249 229.301 41.9764C229.786 41.8191 230.32 41.766 230.904 41.817C231.75 41.891 232.377 42.1457 232.786 42.581C233.195 43.0163 233.349 43.5942 233.248 44.3147L231.784 44.1865C231.832 43.8512 231.749 43.5842 231.535 43.3856C231.323 43.1772 231 43.0541 230.567 43.0163C230.135 42.9784 229.78 43.0323 229.504 43.178C229.228 43.3236 229.054 43.5331 228.98 43.8064C228.933 43.9821 228.957 44.144 229.051 44.2921C229.145 44.4402 229.305 44.574 229.531 44.6937C229.769 44.8044 230.064 44.9151 230.415 45.0258C230.923 45.1701 231.368 45.3339 231.752 45.5173C232.135 45.7007 232.415 45.9449 232.591 46.25C232.767 46.5551 232.784 46.9711 232.643 47.4982C232.53 47.9578 232.3 48.3523 231.955 48.6817C231.619 49.0119 231.198 49.2548 230.693 49.4104C230.198 49.5669 229.643 49.6182 229.029 49.5645Z" fill="black"/>
<path opacity="0.8" d="M407.765 61.2476C406.728 61.1569 405.891 60.8589 405.254 60.3536C404.629 59.8394 404.216 59.169 404.015 58.3423C403.827 57.5067 403.874 56.5619 404.157 55.5077C404.437 54.4633 404.885 53.5586 405.502 52.7935C406.129 52.0292 406.874 51.4601 407.737 51.086C408.612 50.7031 409.568 50.557 410.605 50.6477C411.843 50.756 412.768 51.1316 413.378 51.7744C413.999 52.4181 414.275 53.2713 414.207 54.3342L412.546 54.1889C412.557 53.5705 412.374 53.0601 411.998 52.6575C411.632 52.2559 411.051 52.0203 410.256 51.9507C409.541 51.8882 408.879 51.9951 408.269 52.2714C407.659 52.5477 407.134 52.9712 406.692 53.5419C406.251 54.1126 405.919 54.8128 405.697 55.6425C405.475 56.4721 405.423 57.2018 405.543 57.8316C405.665 58.4517 405.945 58.9457 406.382 59.3135C406.822 59.6717 407.399 59.882 408.114 59.9445C408.909 60.0141 409.584 59.8983 410.139 59.5972C410.706 59.2873 411.145 58.8412 411.455 58.259L413.116 58.4043C412.633 59.4009 411.926 60.1532 410.997 60.6613C410.08 61.1605 409.003 61.3559 407.765 61.2476ZM416.17 61.9829C415.576 61.9309 415.089 61.7685 414.708 61.4955C414.338 61.2233 414.095 60.8425 413.979 60.3528C413.873 59.8641 413.916 59.2634 414.107 58.5509L415.28 54.1733L416.79 54.3054L415.66 58.522C415.474 59.2149 415.49 59.7508 415.708 60.1295C415.926 60.5081 416.327 60.723 416.911 60.7741C417.303 60.8084 417.68 60.7465 418.042 60.5884C418.414 60.4311 418.738 60.1847 419.013 59.8492C419.288 59.5137 419.494 59.0922 419.63 58.5846L420.685 54.6463L422.195 54.7784L420.218 62.1573L418.874 62.0397L419.106 60.7714C418.754 61.2001 418.323 61.522 417.812 61.737C417.301 61.952 416.753 62.034 416.17 61.9829ZM421.681 62.2853L423.659 54.9064L425.018 55.0253L424.781 56.428C425.041 56.1112 425.337 55.8524 425.669 55.6516C426.003 55.4412 426.369 55.2883 426.765 55.1932C427.172 55.0989 427.611 55.0724 428.084 55.1138L427.669 56.6657L427.125 56.6182C426.813 56.5909 426.506 56.6039 426.203 56.6573C425.903 56.701 425.618 56.801 425.35 56.9573C425.091 57.1145 424.861 57.3391 424.659 57.6311C424.457 57.9231 424.296 58.2936 424.176 58.7426L423.191 62.4174L421.681 62.2853ZM426.843 62.7369L428.82 55.358L430.179 55.4769L429.942 56.8796C430.202 56.5627 430.498 56.3039 430.83 56.1032C431.165 55.8927 431.53 55.7399 431.927 55.6447C432.333 55.5504 432.773 55.524 433.246 55.5654L432.83 57.1173L432.287 57.0697C431.975 57.0424 431.667 57.0555 431.364 57.1089C431.064 57.1526 430.78 57.2526 430.511 57.4089C430.253 57.5661 430.023 57.7907 429.821 58.0827C429.619 58.3747 429.458 58.7452 429.338 59.1942L428.353 62.869L426.843 62.7369ZM435.179 63.646C434.454 63.5826 433.853 63.3652 433.376 62.9938C432.898 62.6223 432.576 62.1346 432.408 61.5306C432.25 60.9274 432.273 60.2452 432.477 59.4838C432.686 58.703 433.024 58.0383 433.491 57.4897C433.97 56.9323 434.534 56.5172 435.184 56.2444C435.837 55.9619 436.536 55.8532 437.28 55.9183C438.025 55.9835 438.621 56.2005 439.069 56.5693C439.516 56.938 439.813 57.4036 439.962 57.966C440.112 58.5186 440.101 59.117 439.929 59.7612C439.903 59.8588 439.869 59.9657 439.827 60.0819C439.799 60.1893 439.761 60.3109 439.714 60.4466L433.493 59.9024L433.772 58.8629L438.513 59.2777C438.647 58.6601 438.564 58.1634 438.263 57.7874C437.965 57.4017 437.524 57.1833 436.94 57.1322C436.527 57.0961 436.125 57.1558 435.733 57.3113C435.343 57.457 434.996 57.6964 434.69 58.0292C434.398 58.3532 434.181 58.7788 434.039 59.3058L433.929 59.7158C433.783 60.2624 433.759 60.7348 433.859 61.1331C433.971 61.5225 434.172 61.8297 434.462 62.0549C434.754 62.2703 435.102 62.3956 435.505 62.4308C435.988 62.4731 436.413 62.4054 436.78 62.2277C437.147 62.0501 437.453 61.7921 437.698 61.454L439.208 61.5861C438.957 62.0236 438.627 62.4093 438.218 62.7431C437.812 63.0672 437.35 63.3115 436.832 63.4759C436.324 63.6413 435.773 63.698 435.179 63.646ZM439.923 63.8813L441.901 56.5024L443.26 56.6213L443.013 57.8883C443.372 57.4702 443.807 57.1536 444.318 56.9386C444.832 56.7138 445.375 56.6265 445.949 56.6767C446.553 56.7296 447.04 56.8921 447.41 57.1642C447.78 57.4363 448.022 57.8221 448.135 58.3215C448.252 58.8111 448.214 59.4122 448.023 60.1247L446.854 64.4876L445.344 64.3555L446.474 60.139C446.657 59.4558 446.64 58.9248 446.422 58.5461C446.204 58.1675 445.798 57.9521 445.204 57.9002C444.811 57.8658 444.434 57.9277 444.073 58.0859C443.713 58.2343 443.391 58.4758 443.106 58.8104C442.83 59.146 442.625 59.5675 442.489 60.075L441.433 64.0134L439.923 63.8813ZM451.322 64.8786C450.839 64.8363 450.441 64.7265 450.128 64.5493C449.815 64.3721 449.608 64.1043 449.509 63.7459C449.409 63.3876 449.438 62.9156 449.594 62.33L450.61 58.538L449.297 58.4231L449.63 57.1786L450.944 57.2936L451.619 55.4647L452.948 55.5809L452.454 57.4257L454.613 57.6146L454.28 58.859L452.12 58.6701L451.1 62.4767C450.988 62.8964 451.001 63.1923 451.141 63.3643C451.283 63.5265 451.575 63.627 452.018 63.6658L452.894 63.7424L452.56 64.9869L451.322 64.8786ZM457.032 65.3781L459.778 55.1296L463.689 55.4717C464.424 55.536 465.006 55.7069 465.437 55.9843C465.87 56.2519 466.154 56.5964 466.288 57.0177C466.435 57.4301 466.442 57.8853 466.308 58.383C466.17 58.9003 465.938 59.3246 465.612 59.6557C465.286 59.9868 464.906 60.2332 464.471 60.395C464.049 60.5478 463.618 60.62 463.177 60.6114L463.428 60.4835C463.888 60.5338 464.278 60.6927 464.598 60.9605C464.92 61.2184 465.141 61.5474 465.261 61.9475C465.38 62.3475 465.378 62.7769 465.255 63.2356C465.114 63.7627 464.855 64.2295 464.478 64.6361C464.104 65.0329 463.628 65.3308 463.049 65.5299C462.47 65.729 461.808 65.796 461.063 65.7308L457.032 65.3781ZM458.867 64.295L461.193 64.4984C461.857 64.5566 462.41 64.4551 462.851 64.194C463.304 63.924 463.604 63.5157 463.751 62.9691C463.894 62.4323 463.818 61.9861 463.522 61.6305C463.236 61.2758 462.761 61.0694 462.096 61.0113L459.801 60.8105L458.867 64.295ZM460.103 59.6832L462.338 59.8787C462.972 59.9342 463.493 59.8349 463.901 59.5809C464.312 59.3172 464.585 58.9315 464.721 58.424C464.852 57.936 464.789 57.5359 464.533 57.2238C464.279 56.9019 463.82 56.7119 463.156 56.6538L460.966 56.4622L460.103 59.6832ZM468.102 66.5264C467.478 66.4718 466.987 66.3239 466.629 66.0829C466.271 65.8418 466.038 65.5416 465.928 65.1824C465.821 64.8134 465.821 64.4288 465.928 64.0287C466.059 63.5406 466.301 63.1373 466.654 62.8185C467.01 62.4901 467.454 62.2542 467.987 62.1111C468.52 61.9679 469.123 61.9258 469.798 61.9848L471.776 62.1579C471.891 61.7284 471.921 61.3664 471.866 61.0719C471.811 60.7774 471.671 60.5504 471.446 60.3908C471.233 60.2224 470.931 60.121 470.538 60.0867C470.085 60.047 469.669 60.1205 469.289 60.3071C468.912 60.4838 468.629 60.7737 468.438 61.1766L466.928 61.0445C467.127 60.5325 467.426 60.1091 467.825 59.7744C468.236 59.4308 468.71 59.1825 469.245 59.0296C469.783 58.8669 470.324 58.8093 470.868 58.8569C471.583 58.9194 472.149 59.0938 472.567 59.3801C472.984 59.6664 473.254 60.0446 473.375 60.5147C473.509 60.9759 473.494 61.514 473.329 62.1289L472.105 66.6968L470.791 66.5819L471.004 65.3269C470.841 65.5124 470.661 65.6864 470.462 65.8489C470.264 66.0113 470.043 66.1468 469.797 66.2552C469.562 66.3644 469.299 66.4413 469.009 66.4859C468.726 66.5411 468.424 66.5546 468.102 66.5264ZM468.707 65.3656C469.029 65.3938 469.338 65.3559 469.633 65.2519C469.929 65.1479 470.196 64.9965 470.435 64.7976C470.686 64.5898 470.894 64.3533 471.058 64.0879C471.234 63.8136 471.367 63.5306 471.455 63.2386L471.467 63.1947L469.67 63.0375C469.238 62.9996 468.871 63.0225 468.57 63.1061C468.282 63.1808 468.055 63.3007 467.887 63.4658C467.719 63.6309 467.603 63.8306 467.541 64.0649C467.475 64.3089 467.474 64.5236 467.538 64.709C467.614 64.8855 467.75 65.0322 467.946 65.1492C468.141 65.2662 468.395 65.3383 468.707 65.3656ZM473.428 66.8126L476.253 56.2713L477.763 56.4034L474.938 66.9447L473.428 66.8126ZM478.882 67.4695C478.258 67.4149 477.767 67.2671 477.409 67.026C477.052 66.7849 476.818 66.4848 476.708 66.1256C476.601 65.7566 476.601 65.372 476.708 64.9718C476.839 64.4838 477.081 64.0804 477.434 63.7617C477.79 63.4332 478.234 63.1974 478.767 63.0542C479.3 62.911 479.904 62.8689 480.578 62.9279L482.556 63.101C482.671 62.6715 482.701 62.3096 482.646 62.0151C482.591 61.7206 482.451 61.4935 482.226 61.334C482.014 61.1656 481.711 61.0642 481.319 61.0298C480.866 60.9902 480.449 61.0637 480.07 61.2502C479.693 61.427 479.409 61.7168 479.218 62.1197L477.709 61.9876C477.908 61.4756 478.206 61.0522 478.605 60.7175C479.017 60.3739 479.49 60.1257 480.026 59.9727C480.564 59.81 481.105 59.7525 481.648 59.8C482.363 59.8625 482.929 60.0369 483.347 60.3232C483.765 60.6095 484.034 60.9877 484.155 61.4578C484.289 61.9191 484.274 62.4571 484.109 63.0721L482.885 67.64L481.572 67.525L481.784 66.27C481.621 66.4555 481.441 66.6295 481.243 66.792C481.045 66.9545 480.823 67.0899 480.577 67.1983C480.342 67.3076 480.079 67.3845 479.789 67.429C479.507 67.4842 479.204 67.4977 478.882 67.4695ZM479.487 66.3087C479.809 66.3369 480.118 66.299 480.414 66.195C480.709 66.091 480.977 65.9396 481.215 65.7407C481.467 65.533 481.674 65.2964 481.838 65.031C482.015 64.7568 482.147 64.4737 482.236 64.1818L482.247 64.1379L480.451 63.9806C480.018 63.9428 479.651 63.9656 479.351 64.0492C479.063 64.1239 478.835 64.2438 478.667 64.409C478.499 64.5741 478.384 64.7738 478.321 65.008C478.256 65.252 478.255 65.4667 478.318 65.6521C478.395 65.8286 478.53 65.9753 478.726 66.0923C478.921 66.2093 479.175 66.2814 479.487 66.3087ZM484.209 67.7557L486.186 60.3768L487.545 60.4957L487.298 61.7627C487.657 61.3447 488.092 61.0281 488.603 60.8131C489.117 60.5883 489.661 60.501 490.234 60.5512C490.838 60.604 491.325 60.7665 491.695 61.0386C492.065 61.3108 492.307 61.6965 492.421 62.1959C492.537 62.6856 492.499 63.2866 492.308 63.9992L491.139 68.3621L489.629 68.23L490.759 64.0135C490.942 63.3302 490.925 62.7993 490.707 62.4206C490.489 62.0419 490.083 61.8266 489.489 61.7746C489.097 61.7403 488.719 61.8022 488.358 61.9603C487.999 62.1087 487.676 62.3502 487.391 62.6849C487.116 63.0204 486.91 63.4419 486.774 63.9495L485.719 67.8878L484.209 67.7557ZM495.938 68.9617C495.203 68.8974 494.592 68.6791 494.104 68.3068C493.62 67.9248 493.288 67.4313 493.11 66.8264C492.942 66.2223 492.961 65.5396 493.165 64.7783C493.371 64.0072 493.713 63.3479 494.189 62.8002C494.678 62.2436 495.253 61.8294 495.913 61.5575C496.576 61.2758 497.274 61.1671 498.009 61.2314C498.935 61.3124 499.648 61.6145 500.146 62.1376C500.645 62.6607 500.872 63.3299 500.829 64.1453L499.259 64.0079C499.273 63.5696 499.131 63.2175 498.831 62.9515C498.541 62.6865 498.15 62.5324 497.657 62.4892C497.254 62.454 496.854 62.5239 496.457 62.6989C496.062 62.8642 495.707 63.1328 495.391 63.5047C495.088 63.8677 494.86 64.3323 494.709 64.8984C494.596 65.3181 494.556 65.6992 494.588 66.0416C494.622 66.3743 494.71 66.6617 494.851 66.9038C495.003 67.1467 495.198 67.3387 495.439 67.4796C495.682 67.6107 495.954 67.6895 496.256 67.7159C496.588 67.745 496.898 67.7222 497.186 67.6475C497.487 67.5639 497.755 67.4275 497.991 67.2384C498.238 67.0502 498.434 66.8176 498.58 66.5407L500.15 66.6781C499.77 67.444 499.204 68.0387 498.452 68.4624C497.702 68.8763 496.864 69.0427 495.938 68.9617ZM504.062 69.6724C503.337 69.609 502.736 69.3916 502.258 69.0202C501.781 68.6488 501.458 68.1611 501.29 67.557C501.133 66.9538 501.156 66.2716 501.36 65.5103C501.569 64.7294 501.907 64.0647 502.373 63.5162C502.852 62.9587 503.417 62.5436 504.067 62.2708C504.719 61.9883 505.418 61.8796 506.163 61.9448C506.908 62.01 507.504 62.2269 507.951 62.5957C508.398 62.9645 508.696 63.43 508.844 63.9924C508.995 64.545 508.984 65.1434 508.811 65.7876C508.785 65.8852 508.751 65.9921 508.71 66.1084C508.681 66.2158 508.643 66.3373 508.597 66.4731L502.376 65.9288L502.654 64.8893L507.396 65.3041C507.53 64.6866 507.447 64.1898 507.146 63.8139C506.847 63.4281 506.406 63.2097 505.822 63.1587C505.41 63.1225 505.007 63.1822 504.615 63.3377C504.226 63.4835 503.879 63.7228 503.573 64.0557C503.28 64.3797 503.063 64.8052 502.922 65.3323L502.812 65.7422C502.666 66.2888 502.642 66.7612 502.741 67.1595C502.853 67.5489 503.054 67.8562 503.344 68.0813C503.637 68.2967 503.985 68.422 504.387 68.4573C504.87 68.4995 505.295 68.4318 505.662 68.2542C506.029 68.0765 506.335 67.8186 506.581 67.4804L508.091 67.6125C507.839 68.0501 507.509 68.4357 507.101 68.7696C506.694 69.0937 506.232 69.3379 505.714 69.5024C505.206 69.6677 504.655 69.7244 504.062 69.6724Z" fill="black"/>
<path d="M400.979 108.272C398.243 107.593 396.26 106.321 395.032 104.456C393.804 102.59 393.249 100.536 393.368 98.2939L398.434 98.7371C398.462 100.113 398.973 101.325 399.967 102.374C400.989 103.425 402.538 104.041 404.614 104.222C406.053 104.348 407.29 104.278 408.325 104.011C409.387 103.747 410.219 103.339 410.82 102.788C411.429 102.209 411.837 101.53 412.046 100.752C412.269 99.92 412.134 99.2077 411.641 98.6152C411.176 98.0251 410.516 97.5278 409.661 97.1233C408.813 96.6921 407.644 96.1915 406.153 95.6215C404.042 94.8324 402.366 94.1089 401.125 93.451C399.892 92.7662 398.921 91.8434 398.212 90.6826C397.511 89.4949 397.401 88.0019 397.883 86.2035C398.235 84.8883 398.916 83.6704 399.924 82.55C400.96 81.4319 402.247 80.5418 403.784 79.8797C405.329 79.1907 407.03 78.8175 408.887 78.7602L409.89 75.0159L414.665 75.4336L413.629 79.2988C416.033 79.9486 417.764 81.1027 418.821 82.761C419.913 84.3949 420.401 86.1683 420.286 88.0811L415.22 87.6379C415.203 86.5376 414.738 85.5766 413.825 84.7551C412.947 83.909 411.566 83.4037 409.684 83.239C408.466 83.1324 407.381 83.2161 406.429 83.4899C405.478 83.7638 404.701 84.1766 404.1 84.7284C403.534 85.2557 403.157 85.8683 402.97 86.5662C402.754 87.3714 402.879 88.0691 403.344 88.6592C403.809 89.2493 404.466 89.76 405.314 90.1913C406.169 90.5957 407.345 91.0695 408.843 91.6126C410.919 92.4261 412.588 93.1765 413.849 93.8637C415.117 94.524 416.102 95.448 416.803 96.6357C417.505 97.8234 417.615 99.3164 417.133 101.115C416.766 102.484 416.061 103.741 415.018 104.885C413.982 106.004 412.664 106.905 411.064 107.589C409.492 108.275 407.718 108.656 405.743 108.73L404.74 112.475L399.965 112.057L400.979 108.272ZM421.307 109.391L427.326 86.9252L421.216 90.2228L422.64 84.9082L429.357 81.2516L433.841 81.644L426.289 109.827L421.307 109.391ZM429.06 110.07L430.268 105.56L441.702 99.8442C443.665 98.8622 445.232 97.9829 446.403 97.2063C447.603 96.4321 448.556 95.6227 449.264 94.7782C449.972 93.9336 450.473 92.961 450.768 91.8605C451.02 90.9211 451.021 90.0696 450.773 89.3062C450.524 88.5427 450.038 87.9233 449.316 87.448C448.6 86.9459 447.703 86.6476 446.623 86.5532C444.962 86.4079 443.521 86.7626 442.301 87.6172C441.08 88.4719 440.166 89.5594 439.557 90.8797L434.366 90.4255C435.061 88.7832 436.011 87.3005 437.216 85.9774C438.448 84.6567 439.958 83.6213 441.745 82.8712C443.56 82.1234 445.589 81.8477 447.831 82.0438C449.908 82.2255 451.637 82.8026 453.02 83.7751C454.409 84.7208 455.357 85.9437 455.861 87.4438C456.373 88.9171 456.399 90.5126 455.939 92.2305C455.522 93.7873 454.871 95.1588 453.986 96.3451C453.137 97.5069 452.046 98.5652 450.713 99.52C449.408 100.477 447.785 101.461 445.842 102.473C445.62 102.563 445.407 102.668 445.205 102.788C445.011 102.881 444.816 102.974 444.621 103.066L439.139 105.76L437.753 106.174L437.71 106.335L439.279 106.349L451.861 107.45L450.652 111.959L429.06 110.07ZM466.669 113.36L468.18 107.723L453.106 106.405L454.293 101.976L469.114 84.7299L474.595 85.2094L459.796 102.375L469.388 103.214L471.222 96.3696L471.513 96.395L476.163 96.8019L474.329 103.646L478.482 104.01L477.273 108.519L473.121 108.156L471.611 113.792L466.669 113.36ZM475.425 117.546C476.297 117.568 477.016 117.37 477.581 116.952C478.167 116.564 478.568 115.967 478.784 115.162C478.798 115.108 478.823 115.014 478.859 114.88C478.888 114.773 478.909 114.692 478.924 114.638C478.666 114.753 478.372 114.796 478.039 114.767C477.458 114.716 477.011 114.43 476.697 113.908C476.411 113.388 476.366 112.766 476.56 112.042C476.783 111.209 477.243 110.549 477.94 110.061C478.645 109.546 479.413 109.324 480.243 109.397C481.129 109.474 481.745 109.872 482.091 110.589C482.437 111.306 482.431 112.335 482.071 113.677C481.532 115.691 480.62 117.19 479.336 118.177C478.079 119.166 476.599 119.613 474.896 119.519L475.425 117.546ZM494.945 116.658C492.647 116.457 490.79 115.882 489.372 114.934C487.99 113.962 487.018 112.778 486.457 111.383C485.895 109.988 485.671 108.498 485.784 106.915L490.85 107.358C490.893 108.571 491.329 109.639 492.158 110.563C493.022 111.463 494.354 111.991 496.153 112.149C497.427 112.26 498.581 112.128 499.617 111.751C500.68 111.377 501.552 110.822 502.231 110.084C502.945 109.323 503.435 108.445 503.701 107.452C503.989 106.379 503.988 105.431 503.698 104.609C503.443 103.762 502.906 103.07 502.087 102.531C501.296 101.995 500.264 101.671 498.99 101.56C497.662 101.444 496.462 101.586 495.391 101.987C494.328 102.361 493.485 102.864 492.862 103.496L488.004 103.071L493.619 86.8738L511.764 88.4614L510.556 92.9707L496.646 91.7537L494.24 98.6718L494.364 98.6827C495.124 98.1723 496.081 97.7753 497.233 97.4915C498.393 97.1809 499.651 97.085 501.008 97.2036C502.973 97.3756 504.64 97.9747 506.008 99.0009C507.384 100 508.327 101.292 508.837 102.875C509.355 104.431 509.373 106.108 508.892 107.906C508.41 109.705 507.497 111.314 506.153 112.735C504.816 114.129 503.174 115.18 501.228 115.889C499.282 116.598 497.187 116.854 494.945 116.658ZM508.764 117.043L526.669 94.6277L526.734 94.3861L511.993 93.0965L513.202 88.5871L533.424 90.3563L532.215 94.8657L514.162 117.515L508.764 117.043ZM538.423 120.462C535.959 120.246 533.932 119.671 532.341 118.735C530.758 117.772 529.668 116.605 529.072 115.235C528.483 113.837 528.39 112.387 528.793 110.884C529.26 109.139 530.063 107.781 531.202 106.809C532.368 105.84 533.306 105.249 534.014 105.036C534.758 104.799 535.657 104.562 536.712 104.324L536.788 104.043C536.037 103.675 535.373 103.191 534.797 102.591C534.228 101.964 533.817 101.228 533.562 100.381C533.342 99.5106 533.376 98.5383 533.663 97.4647C534.03 96.0958 534.801 94.8584 535.975 93.7524C537.15 92.6465 538.634 91.8148 540.426 91.2574C542.226 90.6732 544.219 90.4767 546.406 90.668C548.621 90.8618 550.434 91.3912 551.845 92.2564C553.264 93.0948 554.244 94.142 554.786 95.3981C555.327 96.6542 555.415 97.9667 555.048 99.3356C554.76 100.409 554.27 101.342 553.576 102.132C552.918 102.899 552.153 103.533 551.282 104.033C550.418 104.507 549.532 104.855 548.622 105.078L548.547 105.36C549.63 105.757 550.745 106.514 551.891 107.63C553.071 108.722 553.331 110.503 552.669 112.973C552.266 114.476 551.418 115.844 550.124 117.077C548.838 118.283 547.173 119.208 545.131 119.854C543.123 120.475 540.887 120.677 538.423 120.462ZM539.631 115.953C541.126 116.083 542.436 116.006 543.561 115.719C544.693 115.406 545.584 114.935 546.235 114.305C546.913 113.678 547.363 112.948 547.586 112.116C547.809 111.284 547.762 110.51 547.443 109.796C547.159 109.057 546.556 108.455 545.632 107.989C544.716 107.497 543.51 107.185 542.016 107.055C540.521 106.924 539.207 107.015 538.075 107.328C536.978 107.617 536.087 108.088 535.401 108.742C534.751 109.372 534.314 110.103 534.091 110.935C533.868 111.767 533.902 112.539 534.193 113.252C534.511 113.966 535.115 114.568 536.004 115.058C536.927 115.524 538.136 115.822 539.631 115.953ZM543.17 102.747C544.332 102.848 545.372 102.774 546.289 102.525C547.241 102.251 548 101.851 548.566 101.323C549.139 100.769 549.516 100.156 549.696 99.4854C549.89 98.7607 549.855 98.0984 549.591 97.4984C549.361 96.8739 548.875 96.3644 548.131 95.9696C547.394 95.548 546.416 95.2839 545.198 95.1774C544.008 95.0732 542.951 95.1593 542.027 95.4356C541.11 95.685 540.365 96.0868 539.791 96.641C539.253 97.1708 538.886 97.798 538.692 98.5227C538.512 99.1938 538.551 99.8427 538.808 100.47C539.072 101.07 539.573 101.58 540.31 102.002C541.054 102.397 542.007 102.645 543.17 102.747Z" fill="url(#paint2_linear_6_114)"/>
<g opacity="0.2">
<path d="M36.6425 251.112L57.6662 172.65L95.2363 175.937C101.633 176.497 106.928 178.222 111.123 181.113C115.414 183.936 118.348 187.557 119.924 191.978C121.5 196.398 121.608 201.149 120.246 206.231C118.885 211.312 116.295 215.827 112.476 219.776C108.657 223.724 103.951 226.716 98.3585 228.75C92.8625 230.717 86.9163 231.42 80.5197 230.86L60.2896 229.091L53.9825 252.629L36.6425 251.112ZM84.1465 215.118C88.9246 215.536 92.9142 214.776 96.1151 212.838C99.316 210.9 101.387 208.175 102.328 204.663C103.269 201.151 102.72 198.197 100.68 195.801C98.6406 193.404 95.2317 191.997 90.4536 191.579L70.8015 189.86L64.4944 213.398L84.1465 215.118ZM135.094 261.446C130.084 261.008 125.829 259.374 122.328 256.544C118.924 253.646 116.6 249.81 115.355 245.036C114.208 240.194 114.435 234.784 116.037 228.806C117.638 222.828 120.245 217.664 123.855 213.315C127.563 208.897 131.789 205.635 136.534 203.526C141.377 201.349 146.302 200.48 151.312 200.919C154.163 201.168 156.663 201.846 158.812 202.951C160.981 203.982 162.772 205.248 164.184 206.748C165.596 208.248 166.67 209.833 167.405 211.504L167.983 211.554L169.935 204.269L186.119 205.685L170.802 262.849L154.618 261.433L156.57 254.148L155.992 254.097C154.416 255.565 152.561 256.894 150.428 258.084C148.295 259.274 145.924 260.176 143.315 260.789C140.685 261.476 137.945 261.695 135.094 261.446ZM142.744 248.349C145.672 248.606 148.434 248.159 151.029 247.009C153.702 245.867 155.995 244.079 157.909 241.646C159.9 239.22 161.356 236.288 162.277 232.851C163.198 229.414 163.344 226.367 162.714 223.712C162.162 221.064 160.91 218.966 158.958 217.418C157.084 215.878 154.682 214.979 151.754 214.723C149.056 214.487 146.41 214.944 143.815 216.093C141.296 217.25 139.042 219.041 137.051 221.467C135.137 223.9 133.72 226.835 132.799 230.272C131.878 233.709 131.693 236.752 132.246 239.401C132.875 242.056 134.088 244.151 135.886 245.685C137.76 247.225 140.046 248.113 142.744 248.349ZM191.106 286.422L203.17 265.681L190.454 264.569L190.165 206.038L206.928 207.505L206.774 252.231L211.398 252.635L235.828 210.033L252.59 211.5L207.868 287.888L191.106 286.422ZM240.14 268.916L261.164 190.454L277.348 191.87L259.928 256.881L273.222 258.044L269.618 271.495L240.14 268.916ZM273.7 271.852L289.017 214.687L305.201 216.103L289.884 273.268L273.7 271.852ZM299.062 208.109C296.518 207.887 294.542 206.873 293.133 205.067C291.821 203.193 291.465 201.135 292.066 198.893C292.667 196.652 294.074 194.786 296.287 193.298C298.597 191.741 301.023 191.073 303.567 191.296C306.11 191.518 308.038 192.567 309.35 194.44C310.759 196.246 311.163 198.27 310.562 200.512C309.962 202.753 308.506 204.653 306.196 206.21C303.983 207.698 301.605 208.332 299.062 208.109ZM299.132 274.077L314.449 216.912L330.634 218.328L328.531 226.174L329.109 226.225C331.448 223.676 334.438 221.643 338.078 220.126C341.816 218.541 345.842 217.938 350.158 218.315C357.479 218.956 362.583 221.544 365.469 226.079C368.453 230.546 368.903 236.666 366.821 244.437L357.51 279.184L341.326 277.768L350.036 245.263C351.157 241.078 350.929 237.808 349.352 235.452C347.795 233.022 345.128 231.641 341.352 231.311C338.886 231.095 336.404 231.528 333.905 232.609C331.484 233.698 329.308 235.343 327.377 237.545C325.524 239.753 324.206 242.315 323.425 245.229L315.316 275.493L299.132 274.077ZM366.221 279.946L387.245 201.485L403.429 202.901L392.016 245.494L398.952 246.101L420.264 226.17L438.183 227.737L412.051 252.409L424.599 285.054L406.103 283.436L397.082 259.703L388.412 258.945L382.405 281.362L366.221 279.946ZM426.875 285.253L447.899 206.791L464.083 208.207L446.663 273.218L459.957 274.381L456.353 287.832L426.875 285.253ZM471.491 310.952L483.555 290.212L470.839 289.099L470.551 230.569L487.313 232.036L487.16 276.761L491.784 277.166L516.213 234.564L532.975 236.03L488.253 312.419L471.491 310.952Z" fill="url(#paint3_linear_6_114)"/>
<path d="M36.6425 251.112L57.6662 172.65L95.2363 175.937C101.633 176.497 106.928 178.222 111.123 181.113C115.414 183.936 118.348 187.557 119.924 191.978C121.5 196.398 121.608 201.149 120.246 206.231C118.885 211.312 116.295 215.827 112.476 219.776C108.657 223.724 103.951 226.716 98.3585 228.75C92.8625 230.717 86.9163 231.42 80.5197 230.86L60.2896 229.091L53.9825 252.629L36.6425 251.112ZM84.1465 215.118C88.9246 215.536 92.9142 214.776 96.1151 212.838C99.316 210.9 101.387 208.175 102.328 204.663C103.269 201.151 102.72 198.197 100.68 195.801C98.6406 193.404 95.2317 191.997 90.4536 191.579L70.8015 189.86L64.4944 213.398L84.1465 215.118ZM135.094 261.446C130.084 261.008 125.829 259.374 122.328 256.544C118.924 253.646 116.6 249.81 115.355 245.036C114.208 240.194 114.435 234.784 116.037 228.806C117.638 222.828 120.245 217.664 123.855 213.315C127.563 208.897 131.789 205.635 136.534 203.526C141.377 201.349 146.302 200.48 151.312 200.919C154.163 201.168 156.663 201.846 158.812 202.951C160.981 203.982 162.772 205.248 164.184 206.748C165.596 208.248 166.67 209.833 167.405 211.504L167.983 211.554L169.935 204.269L186.119 205.685L170.802 262.849L154.618 261.433L156.57 254.148L155.992 254.097C154.416 255.565 152.561 256.894 150.428 258.084C148.295 259.274 145.924 260.176 143.315 260.789C140.685 261.476 137.945 261.695 135.094 261.446ZM142.744 248.349C145.672 248.606 148.434 248.159 151.029 247.009C153.702 245.867 155.995 244.079 157.909 241.646C159.9 239.22 161.356 236.288 162.277 232.851C163.198 229.414 163.344 226.367 162.714 223.712C162.162 221.064 160.91 218.966 158.958 217.418C157.084 215.878 154.682 214.979 151.754 214.723C149.056 214.487 146.41 214.944 143.815 216.093C141.296 217.25 139.042 219.041 137.051 221.467C135.137 223.9 133.72 226.835 132.799 230.272C131.878 233.709 131.693 236.752 132.246 239.401C132.875 242.056 134.088 244.151 135.886 245.685C137.76 247.225 140.046 248.113 142.744 248.349ZM191.106 286.422L203.17 265.681L190.454 264.569L190.165 206.038L206.928 207.505L206.774 252.231L211.398 252.635L235.828 210.033L252.59 211.5L207.868 287.888L191.106 286.422ZM240.14 268.916L261.164 190.454L277.348 191.87L259.928 256.881L273.222 258.044L269.618 271.495L240.14 268.916ZM273.7 271.852L289.017 214.687L305.201 216.103L289.884 273.268L273.7 271.852ZM299.062 208.109C296.518 207.887 294.542 206.873 293.133 205.067C291.821 203.193 291.465 201.135 292.066 198.893C292.667 196.652 294.074 194.786 296.287 193.298C298.597 191.741 301.023 191.073 303.567 191.296C306.11 191.518 308.038 192.567 309.35 194.44C310.759 196.246 311.163 198.27 310.562 200.512C309.962 202.753 308.506 204.653 306.196 206.21C303.983 207.698 301.605 208.332 299.062 208.109ZM299.132 274.077L314.449 216.912L330.634 218.328L328.531 226.174L329.109 226.225C331.448 223.676 334.438 221.643 338.078 220.126C341.816 218.541 345.842 217.938 350.158 218.315C357.479 218.956 362.583 221.544 365.469 226.079C368.453 230.546 368.903 236.666 366.821 244.437L357.51 279.184L341.326 277.768L350.036 245.263C351.157 241.078 350.929 237.808 349.352 235.452C347.795 233.022 345.128 231.641 341.352 231.311C338.886 231.095 336.404 231.528 333.905 232.609C331.484 233.698 329.308 235.343 327.377 237.545C325.524 239.753 324.206 242.315 323.425 245.229L315.316 275.493L299.132 274.077ZM366.221 279.946L387.245 201.485L403.429 202.901L392.016 245.494L398.952 246.101L420.264 226.17L438.183 227.737L412.051 252.409L424.599 285.054L406.103 283.436L397.082 259.703L388.412 258.945L382.405 281.362L366.221 279.946ZM426.875 285.253L447.899 206.791L464.083 208.207L446.663 273.218L459.957 274.381L456.353 287.832L426.875 285.253ZM471.491 310.952L483.555 290.212L470.839 289.099L470.551 230.569L487.313 232.036L487.16 276.761L491.784 277.166L516.213 234.564L532.975 236.03L488.253 312.419L471.491 310.952Z" fill="url(#paint4_linear_6_114)"/>
</g>
<g filter="url(#filter0_ddddddddii_6_114)">
<rect width="468.61" height="50.98" rx="13.192" transform="matrix(0.996195 0.0871557 -0.258819 0.965926 42.3899 243.888)" fill="url(#paint5_linear_6_114)"/>
<rect x="0.405311" y="0.578844" width="467.51" height="49.8807" rx="12.6423" transform="matrix(0.996195 0.0871557 -0.258819 0.965926 42.5413 243.872)" stroke="url(#paint6_linear_6_114)" stroke-width="1.09933"/>
<path d="M196.086 286.389L199.273 274.496L204.968 274.995C205.937 275.08 206.74 275.341 207.376 275.779C208.026 276.207 208.471 276.756 208.71 277.426C208.949 278.096 208.965 278.816 208.758 279.587C208.552 280.357 208.16 281.041 207.581 281.64C207.002 282.238 206.289 282.692 205.441 283C204.608 283.298 203.706 283.405 202.737 283.32L199.67 283.052L198.714 286.619L196.086 286.389ZM203.287 280.934C204.011 280.997 204.616 280.882 205.101 280.588C205.586 280.294 205.9 279.881 206.043 279.349C206.185 278.817 206.102 278.369 205.793 278.006C205.484 277.642 204.967 277.429 204.243 277.366L201.264 277.105L200.308 280.673L203.287 280.934ZM207.83 287.417L210.151 278.752L212.604 278.967L212.263 280.241L212.351 280.249C212.635 279.856 213.006 279.541 213.465 279.303C213.926 279.053 214.443 278.954 215.015 279.004L216.067 279.096L215.452 281.389L214.138 281.274C213.706 281.237 213.311 281.283 212.953 281.414C212.595 281.545 212.289 281.75 212.035 282.029C211.792 282.309 211.618 282.648 211.512 283.044L210.283 287.632L207.83 287.417ZM218.893 288.646C217.97 288.565 217.189 288.288 216.551 287.815C215.913 287.342 215.471 286.735 215.227 285.995C214.995 285.256 214.991 284.467 215.216 283.629C215.44 282.791 215.857 282.039 216.466 281.374C217.086 280.709 217.825 280.206 218.681 279.863C219.538 279.521 220.428 279.39 221.351 279.471C222.274 279.552 223.055 279.829 223.693 280.302C224.331 280.775 224.767 281.381 224.999 282.12C225.243 282.86 225.253 283.649 225.028 284.488C224.804 285.326 224.381 286.077 223.761 286.742C223.152 287.407 222.419 287.911 221.562 288.253C220.705 288.596 219.816 288.726 218.893 288.646ZM219.439 286.607C219.871 286.645 220.297 286.572 220.717 286.388C221.137 286.205 221.503 285.93 221.817 285.563C222.13 285.196 222.354 284.764 222.487 284.265C222.621 283.767 222.634 283.316 222.527 282.912C222.42 282.509 222.214 282.184 221.91 281.937C221.605 281.69 221.237 281.548 220.805 281.51C220.373 281.472 219.947 281.545 219.527 281.728C219.107 281.912 218.74 282.187 218.427 282.554C218.113 282.92 217.89 283.353 217.756 283.851C217.623 284.35 217.61 284.801 217.717 285.204C217.824 285.608 218.03 285.933 218.334 286.18C218.638 286.427 219.007 286.569 219.439 286.607ZM229.15 289.543C228.262 289.465 227.504 289.19 226.878 288.718C226.251 288.246 225.816 287.64 225.572 286.9C225.339 286.161 225.335 285.372 225.56 284.534C225.785 283.696 226.201 282.944 226.81 282.279C227.43 281.614 228.163 281.11 229.008 280.767C229.854 280.424 230.72 280.291 231.608 280.368C232.472 280.444 233.176 280.674 233.719 281.057C234.265 281.43 234.656 281.887 234.893 282.429C235.131 282.972 235.25 283.55 235.253 284.165L232.712 283.943C232.672 283.557 232.512 283.218 232.231 282.927C231.965 282.625 231.576 282.452 231.062 282.407C230.653 282.371 230.244 282.446 229.836 282.63C229.428 282.815 229.067 283.091 228.754 283.457C228.452 283.825 228.234 284.258 228.101 284.756C227.967 285.255 227.948 285.705 228.044 286.108C228.151 286.511 228.351 286.836 228.643 287.082C228.936 287.328 229.287 287.468 229.696 287.504C230.21 287.549 230.671 287.456 231.08 287.225C231.503 286.984 231.835 286.683 232.075 286.321L234.616 286.544C234.315 287.132 233.909 287.664 233.399 288.141C232.888 288.618 232.268 288.993 231.537 289.265C230.822 289.527 230.026 289.62 229.15 289.543ZM239.049 290.409C238.161 290.331 237.404 290.057 236.777 289.584C236.151 289.112 235.715 288.506 235.471 287.766C235.239 287.027 235.235 286.238 235.459 285.4C235.684 284.562 236.101 283.81 236.709 283.145C237.33 282.48 238.063 281.976 238.908 281.633C239.753 281.29 240.62 281.157 241.507 281.234C242.418 281.314 243.176 281.589 243.779 282.059C244.394 282.53 244.806 283.134 245.015 283.871C245.236 284.609 245.234 285.398 245.009 286.236L244.873 286.745L237.864 286.132C237.825 286.5 237.868 286.851 237.994 287.187C238.134 287.512 238.341 287.785 238.617 288.006C238.895 288.216 239.221 288.338 239.595 288.37C240.109 288.415 240.561 288.356 240.952 288.193C241.357 288.02 241.667 287.798 241.884 287.527L244.512 287.757C244.016 288.583 243.296 289.262 242.352 289.794C241.412 290.314 240.311 290.519 239.049 290.409ZM242.631 285.071C242.652 284.772 242.595 284.494 242.46 284.239C242.34 283.974 242.147 283.754 241.883 283.58C241.631 283.407 241.323 283.305 240.961 283.273C240.599 283.242 240.246 283.286 239.903 283.407C239.56 283.527 239.256 283.704 238.99 283.936C238.728 284.156 238.511 284.409 238.338 284.696L242.631 285.071ZM248.767 291.259C247.903 291.184 247.199 290.977 246.656 290.64C246.115 290.291 245.719 289.874 245.467 289.388C245.229 288.892 245.113 288.366 245.118 287.81L247.659 288.032C247.706 288.35 247.858 288.629 248.115 288.872C248.385 289.116 248.777 289.26 249.291 289.305C249.828 289.352 250.227 289.312 250.489 289.184C250.762 289.057 250.935 288.858 251.008 288.586C251.053 288.416 251.008 288.273 250.872 288.157C250.75 288.03 250.574 287.928 250.344 287.85C250.129 287.762 249.817 287.653 249.409 287.525C248.681 287.299 248.1 287.08 247.666 286.868C247.233 286.656 246.885 286.348 246.623 285.942C246.361 285.537 246.317 285.011 246.49 284.366C246.614 283.901 246.875 283.484 247.274 283.113C247.675 282.73 248.194 282.445 248.83 282.258C249.469 282.059 250.18 281.993 250.963 282.062C252.201 282.17 253.092 282.526 253.635 283.13C254.19 283.735 254.451 284.436 254.417 285.233L251.964 285.018C251.934 284.772 251.794 284.557 251.545 284.373C251.298 284.178 250.93 284.058 250.439 284.016C250.159 283.991 249.916 284.005 249.711 284.056C249.52 284.097 249.365 284.165 249.244 284.259C249.135 284.354 249.064 284.463 249.03 284.588C248.985 284.758 249.023 284.906 249.144 285.033C249.281 285.149 249.456 285.251 249.672 285.34C249.902 285.418 250.221 285.521 250.629 285.649C251.357 285.875 251.938 286.094 252.372 286.306C252.805 286.518 253.153 286.826 253.415 287.232C253.677 287.637 253.721 288.163 253.548 288.809C253.415 289.307 253.133 289.758 252.702 290.16C252.274 290.552 251.722 290.851 251.045 291.059C250.367 291.266 249.608 291.333 248.767 291.259ZM257.708 292.042C256.844 291.966 256.14 291.759 255.597 291.422C255.057 291.073 254.66 290.656 254.408 290.17C254.17 289.674 254.054 289.148 254.06 288.592L256.6 288.815C256.647 289.132 256.799 289.412 257.057 289.655C257.326 289.898 257.718 290.043 258.232 290.088C258.769 290.135 259.169 290.094 259.43 289.966C259.703 289.84 259.876 289.64 259.949 289.369C259.994 289.199 259.949 289.056 259.813 288.939C259.691 288.813 259.515 288.71 259.285 288.632C259.07 288.544 258.758 288.436 258.35 288.307C257.622 288.081 257.041 287.862 256.607 287.65C256.174 287.439 255.826 287.13 255.564 286.724C255.302 286.319 255.258 285.793 255.431 285.148C255.555 284.683 255.817 284.266 256.215 283.895C256.616 283.513 257.135 283.228 257.771 283.04C258.41 282.841 259.121 282.775 259.904 282.844C261.142 282.952 262.033 283.308 262.576 283.912C263.132 284.517 263.392 285.218 263.358 286.015L260.905 285.801C260.875 285.555 260.736 285.34 260.486 285.155C260.239 284.96 259.871 284.841 259.38 284.798C259.1 284.773 258.857 284.787 258.652 284.838C258.462 284.88 258.306 284.947 258.185 285.041C258.076 285.136 258.005 285.246 257.972 285.37C257.926 285.54 257.964 285.688 258.086 285.815C258.222 285.931 258.398 286.033 258.613 286.122C258.843 286.2 259.162 286.303 259.57 286.432C260.299 286.658 260.88 286.876 261.313 287.088C261.746 287.3 262.094 287.609 262.356 288.014C262.618 288.42 262.663 288.945 262.49 289.591C262.356 290.089 262.074 290.54 261.643 290.943C261.216 291.334 260.663 291.634 259.986 291.841C259.309 292.048 258.549 292.115 257.708 292.042ZM267.599 292.646L270.785 280.753L276.48 281.251C277.45 281.336 278.252 281.598 278.888 282.036C279.539 282.464 279.983 283.013 280.222 283.683C280.461 284.353 280.478 285.073 280.271 285.843C280.065 286.613 279.672 287.298 279.093 287.896C278.515 288.495 277.801 288.948 276.953 289.257C276.12 289.555 275.219 289.661 274.25 289.576L271.183 289.308L270.227 292.876L267.599 292.646ZM274.799 287.19C275.524 287.253 276.128 287.138 276.613 286.845C277.099 286.551 277.413 286.138 277.555 285.605C277.698 285.073 277.615 284.625 277.305 284.262C276.996 283.899 276.48 283.686 275.755 283.622L272.776 283.362L271.82 286.929L274.799 287.19ZM282.697 294.228C281.938 294.161 281.293 293.914 280.762 293.485C280.246 293.045 279.894 292.464 279.705 291.74C279.531 291.006 279.566 290.186 279.808 289.28C280.051 288.374 280.446 287.591 280.993 286.932C281.555 286.263 282.196 285.768 282.915 285.448C283.649 285.118 284.396 284.987 285.155 285.053C285.587 285.091 285.966 285.194 286.292 285.361C286.621 285.518 286.892 285.709 287.106 285.937C287.32 286.164 287.483 286.404 287.595 286.658L287.682 286.665L287.978 285.561L290.431 285.776L288.11 294.441L285.656 294.226L285.952 293.122L285.865 293.114C285.626 293.336 285.345 293.538 285.021 293.718C284.698 293.899 284.339 294.035 283.943 294.128C283.545 294.232 283.129 294.266 282.697 294.228ZM283.856 292.243C284.3 292.281 284.719 292.214 285.112 292.04C285.518 291.866 285.865 291.595 286.155 291.227C286.457 290.859 286.678 290.414 286.817 289.893C286.957 289.372 286.979 288.911 286.884 288.508C286.8 288.107 286.61 287.789 286.314 287.554C286.03 287.321 285.666 287.184 285.222 287.146C284.813 287.11 284.412 287.179 284.019 287.353C283.637 287.529 283.295 287.8 282.994 288.168C282.704 288.537 282.489 288.981 282.349 289.503C282.209 290.024 282.181 290.485 282.265 290.886C282.361 291.289 282.545 291.606 282.817 291.839C283.101 292.072 283.448 292.207 283.856 292.243ZM291.362 298.029L293.191 294.885L291.264 294.716L291.22 285.845L293.761 286.067L293.737 292.846L294.438 292.908L298.141 286.45L300.682 286.672L293.903 298.251L291.362 298.029ZM298.97 295.391L301.292 286.726L303.745 286.94L303.426 288.13L303.514 288.137C303.845 287.749 304.269 287.438 304.786 287.205C305.317 286.962 305.898 286.868 306.529 286.923C307.277 286.989 307.859 287.202 308.277 287.563C308.709 287.914 308.975 288.325 309.075 288.798L309.163 288.805C309.506 288.372 309.964 288.024 310.537 287.761C311.124 287.487 311.774 287.382 312.487 287.444C313.188 287.506 313.757 287.7 314.195 288.029C314.636 288.345 314.917 288.793 315.037 289.372C315.172 289.94 315.134 290.615 314.925 291.396L313.514 296.663L311.06 296.448L312.403 291.436C312.57 290.813 312.549 290.336 312.339 290.005C312.143 289.663 311.777 289.469 311.24 289.422C310.889 289.391 310.544 289.454 310.203 289.609C309.862 289.765 309.559 290.005 309.293 290.33C309.029 290.643 308.839 291.02 308.72 291.462L307.468 296.134L305.015 295.92L306.358 290.908C306.525 290.285 306.504 289.807 306.293 289.476C306.098 289.134 305.732 288.94 305.194 288.893C304.844 288.862 304.498 288.925 304.158 289.08C303.817 289.236 303.514 289.476 303.247 289.801C302.984 290.114 302.793 290.491 302.675 290.933L301.423 295.605L298.97 295.391ZM319.22 297.423C318.332 297.345 317.575 297.071 316.948 296.598C316.322 296.126 315.886 295.52 315.642 294.78C315.41 294.041 315.406 293.252 315.631 292.414C315.855 291.576 316.272 290.824 316.881 290.159C317.501 289.494 318.234 288.99 319.079 288.647C319.924 288.304 320.791 288.171 321.679 288.249C322.59 288.328 323.347 288.603 323.95 289.073C324.565 289.544 324.977 290.148 325.186 290.885C325.407 291.623 325.405 292.412 325.18 293.25L325.044 293.759L318.035 293.146C317.996 293.514 318.039 293.865 318.165 294.201C318.305 294.526 318.512 294.799 318.788 295.021C319.066 295.23 319.393 295.352 319.766 295.384C320.28 295.429 320.733 295.37 321.123 295.207C321.528 295.034 321.839 294.812 322.055 294.541L324.683 294.771C324.187 295.597 323.467 296.276 322.523 296.808C321.583 297.328 320.482 297.534 319.22 297.423ZM322.802 292.085C322.823 291.786 322.766 291.508 322.631 291.253C322.511 290.988 322.319 290.768 322.054 290.594C321.802 290.421 321.494 290.319 321.132 290.287C320.77 290.256 320.417 290.3 320.074 290.421C319.731 290.542 319.427 290.718 319.161 290.95C318.899 291.17 318.682 291.423 318.509 291.71L322.802 292.085ZM325.152 297.681L327.473 289.016L329.927 289.231L329.608 290.42L329.695 290.428C330.05 290.042 330.503 289.734 331.055 289.504C331.621 289.263 332.232 289.172 332.886 289.229C333.996 289.326 334.769 289.718 335.207 290.406C335.659 291.083 335.727 292.011 335.412 293.189L334 298.455L331.547 298.241L332.868 293.314C333.037 292.679 333.003 292.184 332.764 291.827C332.528 291.458 332.124 291.249 331.551 291.199C331.177 291.166 330.801 291.232 330.422 291.396C330.055 291.561 329.726 291.81 329.433 292.144C329.152 292.479 328.952 292.867 328.834 293.309L327.605 297.896L325.152 297.681ZM335.934 298.625L337.71 291.999L336.571 291.899L337.117 289.86L338.256 289.96L338.757 288.091L341.21 288.305L340.709 290.174L343.25 290.397L342.703 292.435L340.163 292.213L338.933 296.8L341.562 297.03L341.016 299.069L335.934 298.625Z" fill="white"/>
</g>
</g>
<rect x="0.349267" y="0.498805" width="516.923" height="318.301" rx="22.2621" transform="matrix(0.996195 0.0871557 -0.258819 0.965926 82.758 -0.0134443)" stroke="url(#paint7_linear_6_114)" stroke-width="0.947324"/>
</g>
<defs>
<filter id="filter0_ddddddddii_6_114" x="-58.7514" y="243.888" width="655.914" height="287.965" filterUnits="userSpaceOnUse" color-interpolation-filters="sRGB">
<feFlood flood-opacity="0" result="BackgroundImageFix"/>
<feColorMatrix in="SourceAlpha" type="matrix" values="0 0 0 0 0 0 0 0 0 0 0 0 0 0 0 0 0 0 127 0" result="hardAlpha"/>
<feOffset dy="3.04214"/>
<feGaussianBlur stdDeviation="1.21686"/>
<feColorMatrix type="matrix" values="0 0 0 0 0.101961 0 0 0 0 0 0 0 0 0 0.423529 0 0 0 0.0196802 0"/>
<feBlend mode="normal" in2="BackgroundImageFix" result="effect1_dropShadow_6_114"/>
<feColorMatrix in="SourceAlpha" type="matrix" values="0 0 0 0 0 0 0 0 0 0 0 0 0 0 0 0 0 0 127 0" result="hardAlpha"/>
<feOffset dy="7.31068"/>
<feGaussianBlur stdDeviation="2.92427"/>
<feColorMatrix type="matrix" values="0 0 0 0 0.101961 0 0 0 0 0 0 0 0 0 0.423529 0 0 0 0.0282725 0"/>
<feBlend mode="normal" in2="effect1_dropShadow_6_114" result="effect2_dropShadow_6_114"/>
<feColorMatrix in="SourceAlpha" type="matrix" values="0 0 0 0 0 0 0 0 0 0 0 0 0 0 0 0 0 0 127 0" result="hardAlpha"/>
<feOffset dy="13.7654"/>
<feGaussianBlur stdDeviation="5.50615"/>
<feColorMatrix type="matrix" values="0 0 0 0 0.101961 0 0 0 0 0 0 0 0 0 0.423529 0 0 0 0.035 0"/>
<feBlend mode="normal" in2="effect2_dropShadow_6_114" result="effect3_dropShadow_6_114"/>
<feColorMatrix in="SourceAlpha" type="matrix" values="0 0 0 0 0 0 0 0 0 0 0 0 0 0 0 0 0 0 127 0" result="hardAlpha"/>
<feOffset dy="24.5551"/>
<feGaussianBlur stdDeviation="9.82202"/>
<feColorMatrix type="matrix" values="0 0 0 0 0.101961 0 0 0 0 0 0 0 0 0 0.423529 0 0 0 0.0417275 0"/>
<feBlend mode="normal" in2="effect3_dropShadow_6_114" result="effect4_dropShadow_6_114"/>
<feColorMatrix in="SourceAlpha" type="matrix" values="0 0 0 0 0 0 0 0 0 0 0 0 0 0 0 0 0 0 127 0" result="hardAlpha"/>
<feOffset dy="45.9275"/>
<feGaussianBlur stdDeviation="18.371"/>
<feColorMatrix type="matrix" values="0 0 0 0 0.101961 0 0 0 0 0 0 0 0 0 0.423529 0 0 0 0.0503198 0"/>
<feBlend mode="normal" in2="effect4_dropShadow_6_114" result="effect5_dropShadow_6_114"/>
<feColorMatrix in="SourceAlpha" type="matrix" values="0 0 0 0 0 0 0 0 0 0 0 0 0 0 0 0 0 0 127 0" result="hardAlpha"/>
<feOffset dy="109.933"/>
<feGaussianBlur stdDeviation="43.9734"/>
<feColorMatrix type="matrix" values="0 0 0 0 0.101961 0 0 0 0 0 0 0 0 0 0.423529 0 0 0 0.05 0"/>
<feBlend mode="normal" in2="effect5_dropShadow_6_114" result="effect6_dropShadow_6_114"/>
<feColorMatrix in="SourceAlpha" type="matrix" values="0 0 0 0 0 0 0 0 0 0 0 0 0 0 0 0 0 0 127 0" result="hardAlpha"/>
<feOffset dy="3.298"/>
<feGaussianBlur stdDeviation="1.649"/>
<feComposite in2="hardAlpha" operator="out"/>
<feColorMatrix type="matrix" values="0 0 0 0 0 0 0 0 0 0 0 0 0 0 0 0 0 0 0.04 0"/>
<feBlend mode="normal" in2="effect6_dropShadow_6_114" result="effect7_dropShadow_6_114"/>
<feColorMatrix in="SourceAlpha" type="matrix" values="0 0 0 0 0 0 0 0 0 0 0 0 0 0 0 0 0 0 127 0" result="hardAlpha"/>
<feOffset dy="3.04214"/>
<feGaussianBlur stdDeviation="1.21686"/>
<feColorMatrix type="matrix" values="0 0 0 0 0.101961 0 0 0 0 0 0 0 0 0 0.423529 0 0 0 0.0196802 0"/>
<feBlend mode="normal" in2="effect7_dropShadow_6_114" result="effect8_dropShadow_6_114"/>
<feBlend mode="normal" in="SourceGraphic" in2="effect8_dropShadow_6_114" result="shape"/>
<feColorMatrix in="SourceAlpha" type="matrix" values="0 0 0 0 0 0 0 0 0 0 0 0 0 0 0 0 0 0 127 0" result="hardAlpha"/>
<feOffset dy="-3.298"/>
<feComposite in2="hardAlpha" operator="arithmetic" k2="-1" k3="1"/>
<feColorMatrix type="matrix" values="0 0 0 0 0.0118343 0 0 0 0 0.265539 0 0 0 0 0.615385 0 0 0 1 0"/>
<feBlend mode="normal" in2="shape" result="effect9_innerShadow_6_114"/>
<feColorMatrix in="SourceAlpha" type="matrix" values="0 0 0 0 0 0 0 0 0 0 0 0 0 0 0 0 0 0 127 0" result="hardAlpha"/>
<feOffset dy="1.09933"/>
<feComposite in2="hardAlpha" operator="arithmetic" k2="-1" k3="1"/>
<feColorMatrix type="matrix" values="0 0 0 0 1 0 0 0 0 1 0 0 0 0 1 0 0 0 1 0"/>
<feBlend mode="normal" in2="effect9_innerShadow_6_114" result="effect10_innerShadow_6_114"/>
</filter>
<linearGradient id="paint0_linear_6_114" x1="489.179" y1="-0.206283" x2="96.4771" y2="394.06" gradientUnits="userSpaceOnUse">
<stop offset="0.539183" stop-color="white"/>
<stop offset="0.746272" stop-color="white" stop-opacity="0"/>
</linearGradient>
<linearGradient id="paint1_linear_6_114" x1="299.334" y1="0.324768" x2="299.334" y2="395.325" gradientUnits="userSpaceOnUse">
<stop offset="0.481731" stop-color="white"/>
<stop offset="1" stop-color="white" stop-opacity="0"/>
</linearGradient>
<linearGradient id="paint2_linear_6_114" x1="480.997" y1="78.0365" x2="476.705" y2="127.09" gradientUnits="userSpaceOnUse">
<stop stop-color="#239CFF"/>
<stop offset="1" stop-color="#005BE3"/>
</linearGradient>
<linearGradient id="paint3_linear_6_114" x1="293.311" y1="197.448" x2="286.187" y2="278.876" gradientUnits="userSpaceOnUse">
<stop stop-color="#239CFF"/>
<stop offset="1" stop-color="#005BE3"/>
</linearGradient>
<linearGradient id="paint4_linear_6_114" x1="293.311" y1="197.448" x2="286.187" y2="278.876" gradientUnits="userSpaceOnUse">
<stop stop-color="white" stop-opacity="0"/>
<stop offset="1" stop-color="white"/>
</linearGradient>
<linearGradient id="paint5_linear_6_114" x1="234.305" y1="0" x2="234.305" y2="50.98" gradientUnits="userSpaceOnUse">
<stop stop-color="#239CFF"/>
<stop offset="1" stop-color="#005BE3"/>
</linearGradient>
<linearGradient id="paint6_linear_6_114" x1="234.305" y1="0" x2="234.305" y2="50.98" gradientUnits="userSpaceOnUse">
<stop stop-color="#03449D" stop-opacity="0"/>
<stop offset="0.648429" stop-color="#03449D"/>
</linearGradient>
<linearGradient id="paint7_linear_6_114" x1="258.935" y1="0" x2="258.935" y2="319.248" gradientUnits="userSpaceOnUse">
<stop stop-color="#239CFF"/>
<stop offset="1" stop-color="#005BE3"/>
</linearGradient>
<clipPath id="clip0_6_114">
<rect width="517.87" height="319.248" rx="22.7358" transform="matrix(0.996195 0.0871557 -0.258819 0.965926 82.6276 0)" fill="white"/>
</clipPath>
</defs>
</svg>
