<svg width="518" height="321" viewBox="0 0 518 321" fill="none" xmlns="http://www.w3.org/2000/svg">
<g clip-path="url(#clip0_6_161)">
<rect width="517.87" height="320.196" rx="22.7358" fill="white"/>
<g opacity="0.3" filter="url(#filter0_f_6_161)">
<path d="M254.597 171.763L687.269 -115.92L580.527 59.2825L254.597 171.763Z" fill="url(#paint0_linear_6_161)"/>
</g>
<path opacity="0.8" d="M28.3371 32.6834V23.3163H25.1995V22.0734H33.0055V23.3163H29.8528V32.6834H28.3371ZM33.0442 32.6834V25.0442H34.4084L34.5448 26.4841C34.7166 26.1406 34.9389 25.8526 35.2117 25.6202C35.4845 25.3776 35.8028 25.1907 36.1666 25.0593C36.5405 24.928 36.9649 24.8623 37.4398 24.8623V26.469H36.8941C36.5809 26.469 36.2828 26.5094 35.9999 26.5902C35.7169 26.661 35.4643 26.7873 35.242 26.9692C35.0298 27.151 34.8631 27.3986 34.7418 27.7119C34.6206 28.0251 34.5599 28.4141 34.5599 28.879V32.6834H33.0442ZM40.7567 32.8653C40.1302 32.8653 39.6098 32.7592 39.1955 32.547C38.7812 32.3348 38.473 32.0519 38.271 31.6982C38.0689 31.3344 37.9678 30.9454 37.9678 30.5311C37.9678 30.0259 38.0992 29.5964 38.3619 29.2427C38.6246 28.879 38.9985 28.6011 39.4835 28.4091C39.9686 28.2171 40.5496 28.1211 41.2266 28.1211H43.2122C43.2122 27.6765 43.1465 27.3077 43.0151 27.0146C42.8838 26.7216 42.6867 26.5043 42.424 26.3629C42.1714 26.2113 41.848 26.1355 41.454 26.1355C40.9992 26.1355 40.6102 26.2467 40.2869 26.469C39.9635 26.6812 39.7614 26.9995 39.6806 27.4239H38.1649C38.2255 26.8883 38.4074 26.4336 38.7105 26.0597C39.0238 25.6757 39.4229 25.3827 39.9079 25.1806C40.393 24.9684 40.9083 24.8623 41.454 24.8623C42.1714 24.8623 42.7726 24.9886 43.2577 25.2412C43.7427 25.4939 44.1065 25.8526 44.349 26.3174C44.6016 26.7721 44.7279 27.3178 44.7279 27.9544V32.6834H43.4092L43.288 31.395C43.1768 31.5971 43.0455 31.7891 42.8939 31.971C42.7423 32.1529 42.5604 32.3095 42.3482 32.4409C42.1461 32.5723 41.9087 32.6733 41.6358 32.744C41.3731 32.8249 41.0801 32.8653 40.7567 32.8653ZM41.0447 31.6376C41.3681 31.6376 41.6611 31.5719 41.9238 31.4405C42.1866 31.3092 42.4089 31.1323 42.5907 30.91C42.7827 30.6776 42.9242 30.4199 43.0151 30.137C43.1162 29.844 43.1718 29.5459 43.1819 29.2427V29.1973H41.3782C40.9437 29.1973 40.59 29.2528 40.3172 29.364C40.0544 29.465 39.8625 29.6065 39.7412 29.7884C39.6199 29.9703 39.5593 30.1825 39.5593 30.425C39.5593 30.6776 39.6149 30.8949 39.726 31.0767C39.8473 31.2485 40.0191 31.3849 40.2414 31.486C40.4637 31.587 40.7315 31.6376 41.0447 31.6376ZM46.0563 32.6834V25.0442H47.4204L47.5114 26.3477C47.7539 25.893 48.0975 25.5343 48.5421 25.2715C48.9867 24.9987 49.497 24.8623 50.073 24.8623C50.6792 24.8623 51.1996 24.9836 51.6341 25.2261C52.0686 25.4686 52.4072 25.8374 52.6497 26.3325C52.8922 26.8176 53.0134 27.4289 53.0134 28.1666V32.6834H51.4977V28.3181C51.4977 27.6108 51.3411 27.0753 51.0279 26.7115C50.7146 26.3477 50.2599 26.1658 49.6637 26.1658C49.2696 26.1658 48.916 26.2618 48.6027 26.4538C48.2895 26.6357 48.0368 26.9085 47.8448 27.2723C47.663 27.6361 47.572 28.0807 47.572 28.6061V32.6834H46.0563ZM57.3016 32.8653C56.6549 32.8653 56.0891 32.7592 55.604 32.547C55.119 32.3348 54.735 32.0367 54.4521 31.6527C54.1691 31.2687 53.9974 30.8191 53.9367 30.3037H55.4828C55.5333 30.5462 55.6293 30.7686 55.7708 30.9706C55.9223 31.1727 56.1244 31.3344 56.377 31.4557C56.6398 31.5769 56.948 31.6376 57.3016 31.6376C57.6351 31.6376 57.9079 31.5921 58.1201 31.5012C58.3424 31.4001 58.5041 31.2687 58.6051 31.1071C58.7062 30.9353 58.7567 30.7534 58.7567 30.5614C58.7567 30.2785 58.686 30.0663 58.5445 29.9248C58.4132 29.7732 58.2111 29.657 57.9382 29.5762C57.6755 29.4852 57.3572 29.4044 56.9833 29.3337C56.6297 29.273 56.2861 29.1922 55.9526 29.0912C55.6293 28.98 55.3362 28.8436 55.0735 28.6819C54.8209 28.5202 54.6188 28.3181 54.4672 28.0756C54.3157 27.823 54.2399 27.5148 54.2399 27.151C54.2399 26.7165 54.3561 26.3275 54.5885 25.9839C54.8209 25.6303 55.1493 25.3574 55.5737 25.1654C56.0082 24.9634 56.5185 24.8623 57.1046 24.8623C57.9534 24.8623 58.6355 25.0644 59.1508 25.4686C59.6661 25.8728 59.9693 26.4437 60.0602 27.1814H58.59C58.5496 26.8378 58.398 26.5751 58.1353 26.3932C57.8725 26.2012 57.5239 26.1052 57.0894 26.1052C56.6549 26.1052 56.3215 26.1911 56.0891 26.3629C55.8566 26.5346 55.7404 26.762 55.7404 27.0449C55.7404 27.2268 55.8061 27.3885 55.9375 27.53C56.0688 27.6714 56.2608 27.7927 56.5135 27.8937C56.7762 27.9847 57.0945 28.0706 57.4684 28.1514C58.0039 28.2525 58.4839 28.3788 58.9083 28.5303C59.3327 28.6819 59.6712 28.9042 59.9238 29.1973C60.1764 29.4903 60.3027 29.9096 60.3027 30.4553C60.3129 30.9302 60.1916 31.3496 59.939 31.7134C59.6965 32.0771 59.3478 32.3601 58.8931 32.5622C58.4485 32.7642 57.918 32.8653 57.3016 32.8653ZM64.0124 32.8653C63.3859 32.8653 62.8655 32.7592 62.4512 32.547C62.0369 32.3348 61.7287 32.0519 61.5266 31.6982C61.3245 31.3344 61.2234 30.9454 61.2234 30.5311C61.2234 30.0259 61.3548 29.5964 61.6175 29.2427C61.8802 28.879 62.2541 28.6011 62.7391 28.4091C63.2242 28.2171 63.8052 28.1211 64.4822 28.1211H66.4678C66.4678 27.6765 66.4021 27.3077 66.2708 27.0146C66.1394 26.7216 65.9424 26.5043 65.6796 26.3629C65.427 26.2113 65.1037 26.1355 64.7096 26.1355C64.2549 26.1355 63.8658 26.2467 63.5425 26.469C63.2191 26.6812 63.017 26.9995 62.9362 27.4239H61.4205C61.4811 26.8883 61.663 26.4336 61.9661 26.0597C62.2794 25.6757 62.6785 25.3827 63.1635 25.1806C63.6486 24.9684 64.1639 24.8623 64.7096 24.8623C65.427 24.8623 66.0283 24.9886 66.5133 25.2412C66.9983 25.4939 67.3621 25.8526 67.6046 26.3174C67.8572 26.7721 67.9835 27.3178 67.9835 27.9544V32.6834H66.6649L66.5436 31.395C66.4324 31.5971 66.3011 31.7891 66.1495 31.971C65.9979 32.1529 65.8161 32.3095 65.6039 32.4409C65.4018 32.5723 65.1643 32.6733 64.8915 32.744C64.6287 32.8249 64.3357 32.8653 64.0124 32.8653ZM64.3003 31.6376C64.6237 31.6376 64.9167 31.5719 65.1795 31.4405C65.4422 31.3092 65.6645 31.1323 65.8464 30.91C66.0384 30.6776 66.1798 30.4199 66.2708 30.137C66.3718 29.844 66.4274 29.5459 66.4375 29.2427V29.1973H64.6338C64.1993 29.1973 63.8456 29.2528 63.5728 29.364C63.3101 29.465 63.1181 29.6065 62.9968 29.7884C62.8756 29.9703 62.8149 30.1825 62.8149 30.425C62.8149 30.6776 62.8705 30.8949 62.9817 31.0767C63.1029 31.2485 63.2747 31.3849 63.497 31.486C63.7193 31.587 63.9871 31.6376 64.3003 31.6376ZM72.8435 32.8653C72.1059 32.8653 71.4491 32.6986 70.8731 32.3651C70.2971 32.0215 69.8424 31.5517 69.509 30.9555C69.1856 30.3593 69.0239 29.6671 69.0239 28.879C69.0239 28.0807 69.1856 27.3834 69.509 26.7873C69.8424 26.181 70.2971 25.7111 70.8731 25.3776C71.4491 25.0341 72.1059 24.8623 72.8435 24.8623C73.7732 24.8623 74.5513 25.1048 75.1778 25.5898C75.8042 26.0749 76.2034 26.7317 76.3752 27.5603H74.7988C74.6978 27.1157 74.4654 26.7721 74.1016 26.5296C73.7479 26.2871 73.3235 26.1658 72.8284 26.1658C72.4242 26.1658 72.0503 26.2719 71.7068 26.4841C71.3632 26.6862 71.0853 26.9894 70.8731 27.3936C70.671 27.7876 70.57 28.2777 70.57 28.8638C70.57 29.2983 70.6306 29.6873 70.7519 30.0309C70.8731 30.3644 71.0348 30.6473 71.2369 30.8797C71.4491 31.1121 71.6916 31.2889 71.9644 31.4102C72.2373 31.5214 72.5252 31.5769 72.8284 31.5769C73.1618 31.5769 73.4599 31.5264 73.7227 31.4254C73.9955 31.3142 74.2228 31.1525 74.4047 30.9403C74.5967 30.7281 74.7281 30.4755 74.7988 30.1825H76.3752C76.2034 30.9909 75.8042 31.6426 75.1778 32.1378C74.5513 32.6228 73.7732 32.8653 72.8435 32.8653ZM80.5323 32.6834C80.0472 32.6834 79.6279 32.6076 79.2742 32.4561C78.9205 32.3045 78.6477 32.0519 78.4557 31.6982C78.2637 31.3445 78.1677 30.8645 78.1677 30.2583V26.3325H76.8491V25.0442H78.1677L78.3496 23.1344H79.6835V25.0442H81.8509V26.3325H79.6835V30.2734C79.6835 30.7079 79.7744 31.006 79.9563 31.1677C80.1382 31.3193 80.4514 31.395 80.896 31.395H81.7751V32.6834H80.5323ZM83.0222 32.6834V25.0442H84.5379V32.6834H83.0222ZM83.7952 23.6043C83.5022 23.6043 83.2596 23.5133 83.0677 23.3314C82.8858 23.1495 82.7948 22.9171 82.7948 22.6342C82.7948 22.3614 82.8858 22.1391 83.0677 21.9673C83.2596 21.7854 83.5022 21.6945 83.7952 21.6945C84.0781 21.6945 84.3156 21.7854 84.5076 21.9673C84.6996 22.1391 84.7956 22.3614 84.7956 22.6342C84.7956 22.9171 84.6996 23.1495 84.5076 23.3314C84.3156 23.5133 84.0781 23.6043 83.7952 23.6043ZM89.5852 32.8653C88.8678 32.8653 88.2211 32.6986 87.6451 32.3651C87.0793 32.0317 86.6296 31.5668 86.2961 30.9706C85.9728 30.3644 85.8111 29.6671 85.8111 28.879C85.8111 28.0706 85.9778 27.3683 86.3113 26.7721C86.6448 26.1658 87.0995 25.6959 87.6754 25.3625C88.2514 25.029 88.8981 24.8623 89.6156 24.8623C90.3431 24.8623 90.9898 25.029 91.5557 25.3625C92.1215 25.6959 92.5662 26.1608 92.8895 26.757C93.223 27.3531 93.3897 28.0554 93.3897 28.8638C93.3897 29.6722 93.223 30.3745 92.8895 30.9706C92.5662 31.5668 92.1165 32.0317 91.5405 32.3651C90.9646 32.6986 90.3128 32.8653 89.5852 32.8653ZM89.5852 31.5618C89.9995 31.5618 90.3734 31.4607 90.7069 31.2586C91.0504 31.0565 91.3233 30.7584 91.5254 30.3644C91.7376 29.9602 91.8437 29.46 91.8437 28.8638C91.8437 28.2676 91.7426 27.7725 91.5405 27.3784C91.3384 26.9742 91.0656 26.6711 90.722 26.469C90.3886 26.2669 90.0198 26.1658 89.6156 26.1658C89.2114 26.1658 88.8375 26.2669 88.4939 26.469C88.1504 26.6711 87.8725 26.9742 87.6603 27.3784C87.4582 27.7725 87.3571 28.2676 87.3571 28.8638C87.3571 29.46 87.4582 29.9602 87.6603 30.3644C87.8725 30.7584 88.1453 31.0565 88.4788 31.2586C88.8223 31.4607 89.1912 31.5618 89.5852 31.5618ZM94.5664 32.6834V25.0442H95.9305L96.0215 26.3477C96.264 25.893 96.6076 25.5343 97.0522 25.2715C97.4968 24.9987 98.0071 24.8623 98.583 24.8623C99.1893 24.8623 99.7097 24.9836 100.144 25.2261C100.579 25.4686 100.917 25.8374 101.16 26.3325C101.402 26.8176 101.524 27.4289 101.524 28.1666V32.6834H100.008V28.3181C100.008 27.6108 99.8512 27.0753 99.538 26.7115C99.2247 26.3477 98.77 26.1658 98.1738 26.1658C97.7797 26.1658 97.426 26.2618 97.1128 26.4538C96.7996 26.6357 96.5469 26.9085 96.3549 27.2723C96.1731 27.6361 96.0821 28.0807 96.0821 28.6061V32.6834H94.5664ZM109.341 32.6834L105.4 22.0734H107.037L110.251 31.1071L113.494 22.0734H115.101L111.16 32.6834H109.341ZM118.348 32.8653C117.63 32.8653 116.984 32.6986 116.408 32.3651C115.842 32.0317 115.392 31.5668 115.059 30.9706C114.735 30.3644 114.574 29.6671 114.574 28.879C114.574 28.0706 114.74 27.3683 115.074 26.7721C115.407 26.1658 115.862 25.6959 116.438 25.3625C117.014 25.029 117.661 24.8623 118.378 24.8623C119.106 24.8623 119.752 25.029 120.318 25.3625C120.884 25.6959 121.329 26.1608 121.652 26.757C121.986 27.3531 122.152 28.0554 122.152 28.8638C122.152 29.6722 121.986 30.3745 121.652 30.9706C121.329 31.5668 120.879 32.0317 120.303 32.3651C119.727 32.6986 119.075 32.8653 118.348 32.8653ZM118.348 31.5618C118.762 31.5618 119.136 31.4607 119.469 31.2586C119.813 31.0565 120.086 30.7584 120.288 30.3644C120.5 29.9602 120.606 29.46 120.606 28.8638C120.606 28.2676 120.505 27.7725 120.303 27.3784C120.101 26.9742 119.828 26.6711 119.485 26.469C119.151 26.2669 118.782 26.1658 118.378 26.1658C117.974 26.1658 117.6 26.2669 117.256 26.469C116.913 26.6711 116.635 26.9742 116.423 27.3784C116.221 27.7725 116.12 28.2676 116.12 28.8638C116.12 29.46 116.221 29.9602 116.423 30.3644C116.635 30.7584 116.908 31.0565 117.241 31.2586C117.585 31.4607 117.954 31.5618 118.348 31.5618ZM123.329 32.6834V21.7702H124.845V32.6834H123.329ZM129.124 32.8653C128.527 32.8653 128.007 32.744 127.562 32.5015C127.128 32.259 126.789 31.8952 126.547 31.4102C126.314 30.9252 126.198 30.3138 126.198 29.5762V25.0442H127.714V29.4095C127.714 30.1269 127.871 30.6675 128.184 31.0313C128.497 31.395 128.947 31.5769 129.533 31.5769C129.927 31.5769 130.281 31.4809 130.594 31.2889C130.917 31.097 131.17 30.8191 131.352 30.4553C131.534 30.0915 131.625 29.6469 131.625 29.1215V25.0442H133.14V32.6834H131.791L131.685 31.3799C131.453 31.8447 131.114 32.2085 130.67 32.4712C130.225 32.7339 129.71 32.8653 129.124 32.8653ZM134.609 32.6834V25.0442H135.973L136.079 26.1203C136.322 25.7263 136.645 25.4181 137.049 25.1958C137.454 24.9735 137.908 24.8623 138.414 24.8623C138.798 24.8623 139.146 24.9179 139.459 25.029C139.773 25.1301 140.051 25.2867 140.293 25.4989C140.536 25.7111 140.733 25.9738 140.884 26.2871C141.157 25.8425 141.521 25.4939 141.976 25.2412C142.44 24.9886 142.93 24.8623 143.446 24.8623C144.062 24.8623 144.593 24.9886 145.037 25.2412C145.482 25.4837 145.82 25.8526 146.053 26.3477C146.285 26.8327 146.401 27.439 146.401 28.1666V32.6834H144.901V28.3181C144.901 27.6108 144.754 27.0753 144.461 26.7115C144.178 26.3477 143.759 26.1658 143.203 26.1658C142.829 26.1658 142.496 26.2618 142.203 26.4538C141.91 26.6458 141.677 26.9237 141.506 27.2875C141.344 27.6512 141.263 28.0958 141.263 28.6213V32.6834H139.747V28.3181C139.747 27.6108 139.601 27.0753 139.308 26.7115C139.025 26.3477 138.606 26.1658 138.05 26.1658C137.696 26.1658 137.373 26.2618 137.08 26.4538C136.787 26.6458 136.554 26.9237 136.383 27.2875C136.211 27.6512 136.125 28.0958 136.125 28.6213V32.6834H134.609ZM151.21 32.8653C150.482 32.8653 149.835 32.6986 149.27 32.3651C148.704 32.0317 148.259 31.5668 147.936 30.9706C147.623 30.3745 147.466 29.6823 147.466 28.8941C147.466 28.0857 147.623 27.3834 147.936 26.7873C148.259 26.181 148.704 25.7111 149.27 25.3776C149.835 25.0341 150.492 24.8623 151.24 24.8623C151.988 24.8623 152.629 25.029 153.165 25.3625C153.701 25.6959 154.115 26.1406 154.408 26.6963C154.701 27.242 154.847 27.8483 154.847 28.5152C154.847 28.6162 154.842 28.7274 154.832 28.8486C154.832 28.9598 154.827 29.0861 154.817 29.2276H148.572V28.1514H153.332C153.301 27.5148 153.089 27.0197 152.695 26.666C152.301 26.3022 151.811 26.1203 151.225 26.1203C150.811 26.1203 150.432 26.2163 150.088 26.4083C149.745 26.5902 149.467 26.8631 149.254 27.2268C149.052 27.5805 148.951 28.0302 148.951 28.5758V29.0002C148.951 29.5661 149.052 30.0461 149.254 30.4401C149.467 30.8241 149.745 31.1172 150.088 31.3193C150.432 31.5113 150.806 31.6073 151.21 31.6073C151.695 31.6073 152.094 31.5012 152.407 31.2889C152.72 31.0767 152.953 30.7888 153.104 30.425H154.62C154.489 30.8898 154.266 31.3092 153.953 31.683C153.64 32.0468 153.251 32.3348 152.786 32.547C152.331 32.7592 151.806 32.8653 151.21 32.8653Z" fill="black"/>
<path d="M36.5539 81.0343C33.6917 80.5897 31.413 79.4781 29.718 77.6997C28.0229 75.9213 26.9392 73.8927 26.4668 71.6141H31.552C31.941 73.0035 32.7608 74.1845 34.0112 75.1571C35.2895 76.1297 36.9707 76.616 39.0548 76.616C40.4998 76.616 41.6947 76.4353 42.6395 76.0741C43.6121 75.7129 44.3207 75.2266 44.7653 74.6152C45.2099 73.9761 45.4322 73.2536 45.4322 72.4477C45.4322 71.5863 45.1126 70.8777 44.4735 70.3219C43.8622 69.7662 43.0841 69.3216 42.1393 68.9881C41.1945 68.6269 39.9162 68.2239 38.3045 67.7793C36.0259 67.168 34.1919 66.5844 32.8025 66.0287C31.413 65.4451 30.2182 64.5976 29.2178 63.4861C28.2174 62.3467 27.7172 60.8462 27.7172 58.9844C27.7172 57.6228 28.0646 56.3306 28.7593 55.1079C29.4818 53.8852 30.5099 52.871 31.8438 52.0651C33.1776 51.2315 34.7476 50.7035 36.5539 50.4812V46.6047H41.3473V50.6062C43.876 51.0508 45.8768 52.0651 47.3496 53.649C48.8501 55.2052 49.7949 56.9558 50.184 58.901H45.0987C44.7931 57.7895 44.0845 56.8586 42.9729 56.1083C41.8892 55.3302 40.4025 54.9412 38.5129 54.9412C37.2902 54.9412 36.2482 55.1218 35.3868 55.4831C34.5253 55.8443 33.8723 56.3306 33.4277 56.9419C33.0109 57.5255 32.8025 58.1785 32.8025 58.901C32.8025 59.7347 33.1081 60.4294 33.7195 60.9851C34.3308 61.5409 35.1089 61.9994 36.0537 62.3606C36.9985 62.6941 38.2767 63.0692 39.8884 63.4861C42.1393 64.1252 43.9733 64.7365 45.3905 65.3201C46.8077 65.8758 48.0165 66.7234 49.0169 67.8627C50.0172 69.002 50.5174 70.5026 50.5174 72.3644C50.5174 73.7816 50.1562 75.1154 49.4337 76.3659C48.7112 77.5886 47.6552 78.6167 46.2658 79.4504C44.9042 80.284 43.2647 80.8259 41.3473 81.076V84.9524H36.5539V81.0343ZM64.1638 81.201C61.6907 81.201 59.551 80.7981 57.7447 79.9922C55.9385 79.1586 54.563 78.0748 53.6182 76.741C52.6734 75.3794 52.201 73.9205 52.201 72.3644C52.201 70.5581 52.6317 69.1132 53.4931 68.0294C54.3824 66.9457 55.1465 66.2649 55.7857 65.987C56.4526 65.6813 57.2723 65.3618 58.2449 65.0283V64.7365C57.4113 64.4309 56.6332 64.0001 55.9107 63.4444C55.1882 62.8608 54.5908 62.1522 54.1184 61.3186C53.6738 60.4571 53.4515 59.4707 53.4515 58.3591C53.4515 56.9419 53.8822 55.622 54.7436 54.3993C55.605 53.1766 56.8416 52.2041 58.4533 51.4816C60.065 50.7313 61.9685 50.3561 64.1638 50.3561C66.3869 50.3561 68.3042 50.7313 69.916 51.4816C71.5277 52.2041 72.7642 53.1766 73.6257 54.3993C74.4871 55.622 74.9178 56.9419 74.9178 58.3591C74.9178 59.4707 74.6816 60.4571 74.2092 61.3186C73.7646 62.1522 73.1811 62.8608 72.4586 63.4444C71.7361 64.0001 70.958 64.4309 70.1244 64.7365V65.0283C71.2915 65.334 72.5836 66.0009 74.0008 67.029C75.4458 68.0294 76.1683 69.8079 76.1683 72.3644C76.1683 73.9205 75.6959 75.3794 74.7511 76.741C73.8063 78.0748 72.4169 79.1586 70.5829 79.9922C68.7766 80.7981 66.6369 81.201 64.1638 81.201ZM64.1638 76.5326C65.6644 76.5326 66.9287 76.3381 67.9569 75.9491C68.985 75.5322 69.7353 74.9765 70.2077 74.2818C70.7079 73.5871 70.958 72.809 70.958 71.9476C70.958 71.0861 70.7079 70.3081 70.2077 69.6133C69.7353 68.8909 68.985 68.3351 67.9569 67.9461C66.9287 67.5292 65.6644 67.3208 64.1638 67.3208C62.6632 67.3208 61.3989 67.5292 60.3707 67.9461C59.3703 68.3351 58.6201 68.8909 58.1199 69.6133C57.6475 70.3081 57.4113 71.0861 57.4113 71.9476C57.4113 72.809 57.6475 73.5871 58.1199 74.2818C58.6201 74.9765 59.3703 75.5322 60.3707 75.9491C61.3989 76.3381 62.6632 76.5326 64.1638 76.5326ZM64.1638 62.8608C65.3309 62.8608 66.3313 62.6941 67.1649 62.3606C68.0264 61.9994 68.6655 61.527 69.0823 60.9434C69.4991 60.3321 69.7075 59.6791 69.7075 58.9844C69.7075 58.2341 69.4991 57.5672 69.0823 56.9836C68.6933 56.3723 68.0819 55.8999 67.2483 55.5664C66.4146 55.2052 65.3865 55.0246 64.1638 55.0246C62.9689 55.0246 61.9546 55.2052 61.121 55.5664C60.2873 55.8999 59.6621 56.3723 59.2453 56.9836C58.8563 57.5672 58.6617 58.2341 58.6617 58.9844C58.6617 59.6791 58.8702 60.3321 59.287 60.9434C59.7038 61.527 60.329 61.9994 61.1627 62.3606C61.9963 62.6941 62.9967 62.8608 64.1638 62.8608ZM92.144 80.3674V74.5319H77.0133V69.9468L87.0171 51.1898H92.5191L82.5154 69.8634H92.144V62.7775H92.4358H97.1042V69.8634H101.272V74.5319H97.1042V80.3674H92.144ZM102.321 80.3674L113.992 56.1083V55.8582H99.1945V51.1898H119.494V55.8582L107.739 80.3674H102.321ZM116.528 83.827C117.39 83.7714 118.043 83.5074 118.487 83.035C118.96 82.5904 119.196 81.9513 119.196 81.1177C119.196 81.0621 119.196 80.9648 119.196 80.8259C119.196 80.7147 119.196 80.6314 119.196 80.5758C118.973 80.7147 118.696 80.7842 118.362 80.7842C117.779 80.7842 117.265 80.5341 116.82 80.0339C116.403 79.5337 116.195 78.9085 116.195 78.1582C116.195 77.2968 116.473 76.5882 117.028 76.0324C117.584 75.4489 118.279 75.1571 119.112 75.1571C120.002 75.1571 120.71 75.5044 121.238 76.1991C121.766 76.8938 122.03 77.9359 122.03 79.3253C122.03 81.4094 121.53 83.0072 120.53 84.1188C119.557 85.2303 118.223 85.8139 116.528 85.8694V83.827ZM134.732 81.201C132.425 81.201 130.452 80.7703 128.813 79.9089C127.173 79.0474 125.881 77.9359 124.937 76.5743C124.02 75.1849 123.394 73.6704 123.061 72.0309H128.271C128.605 73.2814 129.313 74.3512 130.397 75.2405C131.481 76.1019 132.926 76.5326 134.732 76.5326C136.038 76.5326 137.163 76.3103 138.108 75.8657C139.053 75.4211 139.762 74.8236 140.234 74.0733C140.734 73.3231 140.984 72.4755 140.984 71.5307C140.984 70.5581 140.748 69.6967 140.276 68.9464C139.831 68.1684 139.15 67.5709 138.233 67.1541C137.344 66.7095 136.274 66.4872 135.024 66.4872H128.48V62.569L137.233 55.9832V55.8582H124.52V51.1898H144.319V55.8582L135.857 61.9855L135.482 62.1939L135.44 62.3606H136.274C138.108 62.3606 139.775 62.7775 141.276 63.6111C142.777 64.417 143.944 65.5285 144.777 66.9457C145.639 68.3351 146.069 69.8634 146.069 71.5307C146.069 73.2536 145.597 74.8653 144.652 76.3659C143.707 77.8386 142.374 79.0196 140.651 79.9089C138.928 80.7703 136.955 81.201 134.732 81.201ZM153.168 80.3674L160.254 71.3223L161.254 70.4887V70.4053C161.032 70.5165 160.629 70.6415 160.046 70.7805C159.49 70.9194 158.795 70.9889 157.962 70.9889C156.044 70.9889 154.28 70.5304 152.668 69.6133C151.056 68.6963 149.778 67.4598 148.833 65.9036C147.916 64.3475 147.458 62.6385 147.458 60.7767C147.458 58.8593 147.944 57.1087 148.917 55.5247C149.889 53.9408 151.251 52.6903 153.001 51.7733C154.752 50.8285 156.753 50.3561 159.004 50.3561C161.227 50.3561 163.214 50.8285 164.964 51.7733C166.743 52.6903 168.118 53.9547 169.091 55.5664C170.063 57.1504 170.55 58.901 170.55 60.8184C170.55 62.0411 170.355 63.236 169.966 64.4031C169.605 65.5424 169.105 66.6261 168.466 67.6543C167.826 68.6824 167.048 69.794 166.131 70.9889C166.076 71.1 166.006 71.2112 165.923 71.3223C165.84 71.4057 165.756 71.5029 165.673 71.6141L158.879 80.3674H153.168ZM159.004 66.5289C160.254 66.5289 161.366 66.2788 162.338 65.7786C163.311 65.2784 164.061 64.5976 164.589 63.7361C165.117 62.8469 165.381 61.8604 165.381 60.7767C165.381 59.693 165.117 58.7204 164.589 57.859C164.061 56.9697 163.311 56.275 162.338 55.7748C161.366 55.2746 160.254 55.0246 159.004 55.0246C157.753 55.0246 156.642 55.2746 155.669 55.7748C154.696 56.275 153.946 56.9697 153.418 57.859C152.89 58.7204 152.626 59.693 152.626 60.7767C152.626 61.8604 152.89 62.8469 153.418 63.7361C153.946 64.5976 154.696 65.2784 155.669 65.7786C156.642 66.2788 157.753 66.5289 159.004 66.5289ZM171.714 80.3674V75.699L181.426 68.9047C183.093 67.7376 184.399 66.7095 185.344 65.8203C186.316 64.931 187.039 64.0279 187.511 63.1109C187.984 62.1939 188.22 61.1657 188.22 60.0264C188.22 59.0538 187.998 58.1924 187.553 57.4421C187.108 56.6918 186.469 56.1083 185.636 55.6915C184.802 55.2469 183.843 55.0246 182.76 55.0246C181.092 55.0246 179.772 55.5108 178.8 56.4834C177.827 57.456 177.216 58.637 176.966 60.0264H171.755C172.006 58.3036 172.547 56.7196 173.381 55.2746C174.243 53.8297 175.451 52.6487 177.007 51.7317C178.591 50.8146 180.509 50.3561 182.76 50.3561C184.844 50.3561 186.692 50.7869 188.303 51.6483C189.915 52.4819 191.166 53.6351 192.055 55.1079C192.944 56.5529 193.389 58.1646 193.389 59.9431C193.389 61.5548 193.111 62.9998 192.555 64.278C192.027 65.5285 191.235 66.6956 190.179 67.7793C189.151 68.8631 187.817 70.0024 186.178 71.1973C185.983 71.3084 185.802 71.4335 185.636 71.5724C185.469 71.6836 185.302 71.7947 185.135 71.9059L180.467 75.1154L179.217 75.6573V75.824L180.759 75.699H193.389V80.3674H171.714Z" fill="url(#paint1_linear_6_161)"/>
<path d="M39.3917 279.699C38.6035 279.699 37.9366 279.553 37.3909 279.259C36.8554 278.966 36.4259 278.577 36.1026 278.092C35.7792 277.597 35.5417 277.047 35.3902 276.44C35.2386 275.834 35.1628 275.213 35.1628 274.576C35.1628 273.394 35.3295 272.368 35.663 271.499C35.9965 270.62 36.4714 269.938 37.0878 269.453C37.7143 268.968 38.4671 268.725 39.3462 268.725C40.0737 268.725 40.6851 268.867 41.1802 269.15C41.6855 269.422 42.0795 269.786 42.3625 270.241C42.6454 270.696 42.8172 271.191 42.8778 271.726H41.1802C41.0893 271.251 40.8821 270.888 40.5588 270.635C40.2455 270.372 39.8363 270.241 39.331 270.241C38.8763 270.241 38.4721 270.382 38.1185 270.665C37.7648 270.948 37.4869 271.373 37.2848 271.939C37.0827 272.504 36.9665 273.222 36.9362 274.091C36.9362 274.111 36.9362 274.131 36.9362 274.152C36.9362 274.162 36.9362 274.177 36.9362 274.197C37.0979 273.904 37.3151 273.646 37.588 273.424C37.8608 273.192 38.174 273.01 38.5277 272.878C38.8915 272.747 39.2805 272.681 39.6948 272.681C40.291 272.681 40.8417 272.823 41.3469 273.106C41.8623 273.378 42.2766 273.773 42.5898 274.288C42.9132 274.803 43.0749 275.41 43.0749 276.107C43.0749 276.743 42.9233 277.335 42.6201 277.88C42.317 278.426 41.8876 278.865 41.3318 279.199C40.776 279.532 40.1293 279.699 39.3917 279.699ZM39.2856 278.138C39.6797 278.138 40.0283 278.052 40.3314 277.88C40.6346 277.708 40.872 277.476 41.0438 277.183C41.2257 276.89 41.3166 276.556 41.3166 276.183C41.3166 275.788 41.2257 275.445 41.0438 275.152C40.872 274.859 40.6295 274.631 40.3163 274.47C40.0131 274.308 39.6645 274.227 39.2704 274.227C38.8864 274.227 38.5378 274.313 38.2246 274.485C37.9214 274.647 37.6789 274.874 37.497 275.167C37.3151 275.46 37.2242 275.794 37.2242 276.167C37.2242 276.551 37.3151 276.89 37.497 277.183C37.6789 277.476 37.9214 277.708 38.2246 277.88C38.5378 278.052 38.8915 278.138 39.2856 278.138ZM44.942 279.517L48.8981 270.468H43.5627V268.907H50.7624V270.211L46.8367 279.517H44.942ZM53.2957 279.517L59.3131 268.907H61.1016L55.0842 279.517H53.2957ZM60.6166 279.699C60.1417 279.699 59.7072 279.593 59.3131 279.381C58.9291 279.158 58.6209 278.85 58.3885 278.456C58.1561 278.052 58.0399 277.577 58.0399 277.031C58.0399 276.476 58.1561 276.001 58.3885 275.607C58.6209 275.213 58.9291 274.909 59.3131 274.697C59.7072 274.475 60.1417 274.364 60.6166 274.364C61.1117 274.364 61.5462 274.475 61.9201 274.697C62.3041 274.909 62.6072 275.213 62.8295 275.607C63.0619 276.001 63.1781 276.476 63.1781 277.031C63.1781 277.577 63.0619 278.052 62.8295 278.456C62.6072 278.85 62.3041 279.158 61.9201 279.381C61.5361 279.593 61.1016 279.699 60.6166 279.699ZM60.6014 278.426C60.8136 278.426 61.0056 278.375 61.1774 278.274C61.3492 278.163 61.4856 278.006 61.5866 277.804C61.6877 277.592 61.7382 277.335 61.7382 277.031C61.7382 276.718 61.6877 276.46 61.5866 276.258C61.4856 276.056 61.3492 275.905 61.1774 275.804C61.0157 275.692 60.8288 275.637 60.6166 275.637C60.4145 275.637 60.2275 275.692 60.0558 275.804C59.884 275.905 59.7476 276.056 59.6465 276.258C59.5455 276.46 59.495 276.718 59.495 277.031C59.495 277.335 59.5455 277.592 59.6465 277.804C59.7476 278.006 59.8789 278.163 60.0406 278.274C60.2124 278.375 60.3993 278.426 60.6014 278.426ZM53.8716 274.061C53.3866 274.061 52.947 273.954 52.553 273.742C52.169 273.53 51.8608 273.222 51.6284 272.818C51.4061 272.413 51.2949 271.939 51.2949 271.393C51.2949 270.847 51.4061 270.377 51.6284 269.983C51.8608 269.579 52.174 269.271 52.5681 269.059C52.9622 268.846 53.3967 268.74 53.8716 268.74C54.3567 268.74 54.7912 268.846 55.1752 269.059C55.5591 269.271 55.8623 269.579 56.0846 269.983C56.317 270.377 56.4332 270.847 56.4332 271.393C56.4332 271.939 56.317 272.413 56.0846 272.818C55.8623 273.222 55.5591 273.53 55.1752 273.742C54.7912 273.954 54.3567 274.061 53.8716 274.061ZM53.8565 272.787C54.0687 272.787 54.2607 272.737 54.4325 272.636C54.6042 272.525 54.7356 272.368 54.8265 272.166C54.9276 271.954 54.9781 271.696 54.9781 271.393C54.9781 271.09 54.9276 270.832 54.8265 270.62C54.7356 270.408 54.6042 270.251 54.4325 270.15C54.2607 270.039 54.0737 269.983 53.8716 269.983C53.6695 269.983 53.4775 270.039 53.2957 270.15C53.1239 270.251 52.9875 270.408 52.8864 270.62C52.7854 270.832 52.7348 271.09 52.7348 271.393C52.7348 271.696 52.7854 271.954 52.8864 272.166C52.9875 272.368 53.1239 272.525 53.2957 272.636C53.4674 272.737 53.6544 272.787 53.8565 272.787Z" fill="black"/>
<path d="M365.166 279.699C364.479 279.699 363.852 279.578 363.286 279.335C362.721 279.083 362.266 278.704 361.922 278.198C361.589 277.683 361.412 277.036 361.392 276.258H363.18C363.19 276.612 363.271 276.935 363.423 277.228C363.585 277.511 363.812 277.739 364.105 277.91C364.398 278.072 364.752 278.153 365.166 278.153C365.56 278.153 365.893 278.077 366.166 277.926C366.449 277.774 366.661 277.567 366.803 277.304C366.944 277.041 367.015 276.748 367.015 276.425C367.015 276.031 366.919 275.708 366.727 275.455C366.535 275.192 366.272 274.995 365.939 274.864C365.605 274.733 365.227 274.667 364.802 274.667H364.014V273.166H364.802C365.358 273.166 365.813 273.04 366.166 272.787C366.52 272.525 366.697 272.146 366.697 271.651C366.697 271.236 366.56 270.903 366.288 270.65C366.025 270.398 365.646 270.271 365.151 270.271C364.635 270.271 364.226 270.423 363.923 270.726C363.63 271.029 363.468 271.403 363.438 271.848H361.649C361.68 271.211 361.841 270.66 362.134 270.195C362.438 269.721 362.847 269.357 363.362 269.104C363.878 268.852 364.479 268.725 365.166 268.725C365.883 268.725 366.49 268.852 366.985 269.104C367.48 269.357 367.854 269.695 368.106 270.12C368.369 270.544 368.5 271.009 368.5 271.514C368.5 271.908 368.425 272.267 368.273 272.59C368.122 272.914 367.914 273.186 367.652 273.409C367.399 273.621 367.101 273.778 366.757 273.879C367.152 273.96 367.5 274.116 367.803 274.349C368.117 274.581 368.359 274.879 368.531 275.243C368.713 275.596 368.804 276.011 368.804 276.486C368.804 277.062 368.662 277.597 368.379 278.092C368.106 278.577 367.697 278.966 367.152 279.259C366.616 279.553 365.954 279.699 365.166 279.699ZM373.633 279.699C372.946 279.699 372.32 279.578 371.754 279.335C371.188 279.083 370.733 278.704 370.39 278.198C370.056 277.683 369.879 277.036 369.859 276.258H371.648C371.658 276.612 371.739 276.935 371.89 277.228C372.052 277.511 372.279 277.739 372.572 277.91C372.865 278.072 373.219 278.153 373.633 278.153C374.027 278.153 374.361 278.077 374.634 277.926C374.917 277.774 375.129 277.567 375.27 277.304C375.412 277.041 375.482 276.748 375.482 276.425C375.482 276.031 375.386 275.708 375.194 275.455C375.002 275.192 374.74 274.995 374.406 274.864C374.073 274.733 373.694 274.667 373.269 274.667H372.481V273.166H373.269C373.825 273.166 374.28 273.04 374.634 272.787C374.987 272.525 375.164 272.146 375.164 271.651C375.164 271.236 375.028 270.903 374.755 270.65C374.492 270.398 374.113 270.271 373.618 270.271C373.103 270.271 372.693 270.423 372.39 270.726C372.097 271.029 371.936 271.403 371.905 271.848H370.117C370.147 271.211 370.309 270.66 370.602 270.195C370.905 269.721 371.314 269.357 371.83 269.104C372.345 268.852 372.946 268.725 373.633 268.725C374.351 268.725 374.957 268.852 375.452 269.104C375.947 269.357 376.321 269.695 376.574 270.12C376.836 270.544 376.968 271.009 376.968 271.514C376.968 271.908 376.892 272.267 376.74 272.59C376.589 272.914 376.382 273.186 376.119 273.409C375.866 273.621 375.568 273.778 375.225 273.879C375.619 273.96 375.967 274.116 376.271 274.349C376.584 274.581 376.826 274.879 376.998 275.243C377.18 275.596 377.271 276.011 377.271 276.486C377.271 277.062 377.129 277.597 376.847 278.092C376.574 278.577 376.164 278.966 375.619 279.259C375.083 279.553 374.421 279.699 373.633 279.699ZM380.073 279.517L386.09 268.907H387.879L381.862 279.517H380.073ZM387.394 279.699C386.919 279.699 386.484 279.593 386.09 279.381C385.706 279.158 385.398 278.85 385.166 278.456C384.933 278.052 384.817 277.577 384.817 277.031C384.817 276.476 384.933 276.001 385.166 275.607C385.398 275.213 385.706 274.909 386.09 274.697C386.484 274.475 386.919 274.364 387.394 274.364C387.889 274.364 388.324 274.475 388.697 274.697C389.081 274.909 389.385 275.213 389.607 275.607C389.839 276.001 389.955 276.476 389.955 277.031C389.955 277.577 389.839 278.052 389.607 278.456C389.385 278.85 389.081 279.158 388.697 279.381C388.313 279.593 387.879 279.699 387.394 279.699ZM387.379 278.426C387.591 278.426 387.783 278.375 387.955 278.274C388.127 278.163 388.263 278.006 388.364 277.804C388.465 277.592 388.516 277.335 388.516 277.031C388.516 276.718 388.465 276.46 388.364 276.258C388.263 276.056 388.127 275.905 387.955 275.804C387.793 275.692 387.606 275.637 387.394 275.637C387.192 275.637 387.005 275.692 386.833 275.804C386.661 275.905 386.525 276.056 386.424 276.258C386.323 276.46 386.272 276.718 386.272 277.031C386.272 277.335 386.323 277.592 386.424 277.804C386.525 278.006 386.656 278.163 386.818 278.274C386.99 278.375 387.177 278.426 387.379 278.426ZM380.649 274.061C380.164 274.061 379.724 273.954 379.33 273.742C378.946 273.53 378.638 273.222 378.406 272.818C378.183 272.413 378.072 271.939 378.072 271.393C378.072 270.847 378.183 270.377 378.406 269.983C378.638 269.579 378.951 269.271 379.345 269.059C379.74 268.846 380.174 268.74 380.649 268.74C381.134 268.74 381.569 268.846 381.952 269.059C382.336 269.271 382.64 269.579 382.862 269.983C383.094 270.377 383.211 270.847 383.211 271.393C383.211 271.939 383.094 272.413 382.862 272.818C382.64 273.222 382.336 273.53 381.952 273.742C381.569 273.954 381.134 274.061 380.649 274.061ZM380.634 272.787C380.846 272.787 381.038 272.737 381.21 272.636C381.382 272.525 381.513 272.368 381.604 272.166C381.705 271.954 381.755 271.696 381.755 271.393C381.755 271.09 381.705 270.832 381.604 270.62C381.513 270.408 381.382 270.251 381.21 270.15C381.038 270.039 380.851 269.983 380.649 269.983C380.447 269.983 380.255 270.039 380.073 270.15C379.901 270.251 379.765 270.408 379.664 270.62C379.563 270.832 379.512 271.09 379.512 271.393C379.512 271.696 379.563 271.954 379.664 272.166C379.765 272.368 379.901 272.525 380.073 272.636C380.245 272.737 380.432 272.787 380.634 272.787Z" fill="black"/>
<line x1="25.6044" y1="199.733" x2="25.6044" y2="292.283" stroke="url(#paint2_linear_6_161)" stroke-width="1.42099"/>
<line x1="348.748" y1="199.733" x2="348.748" y2="292.283" stroke="url(#paint3_linear_6_161)" stroke-width="1.42099"/>
<line opacity="0.5" x1="41.7668" y1="199.733" x2="41.7668" y2="250.005" stroke="url(#paint4_linear_6_161)" stroke-width="1.42099"/>
<line opacity="0.5" x1="364.91" y1="199.733" x2="364.91" y2="250.005" stroke="url(#paint5_linear_6_161)" stroke-width="1.42099"/>
<line opacity="0.5" x1="57.7259" y1="199.733" x2="57.7259" y2="250.005" stroke="url(#paint6_linear_6_161)" stroke-width="1.42099"/>
<line opacity="0.5" x1="380.87" y1="199.733" x2="380.87" y2="250.005" stroke="url(#paint7_linear_6_161)" stroke-width="1.42099"/>
<line opacity="0.5" x1="397.015" y1="199.733" x2="397.015" y2="250.005" stroke="url(#paint8_linear_6_161)" stroke-width="1.42099"/>
<line opacity="0.5" x1="413.16" y1="199.733" x2="413.16" y2="250.005" stroke="url(#paint9_linear_6_161)" stroke-width="1.42099"/>
<line opacity="0.5" x1="429.305" y1="199.733" x2="429.305" y2="250.005" stroke="url(#paint10_linear_6_161)" stroke-width="1.42099"/>
<line opacity="0.5" x1="445.45" y1="199.733" x2="445.45" y2="250.005" stroke="url(#paint11_linear_6_161)" stroke-width="1.42099"/>
<line opacity="0.5" x1="461.596" y1="199.733" x2="461.595" y2="250.005" stroke="url(#paint12_linear_6_161)" stroke-width="1.42099"/>
<line opacity="0.5" x1="477.741" y1="199.733" x2="477.741" y2="250.005" stroke="url(#paint13_linear_6_161)" stroke-width="1.42099"/>
<line opacity="0.5" x1="493.886" y1="199.733" x2="493.886" y2="250.005" stroke="url(#paint14_linear_6_161)" stroke-width="1.42099"/>
<line opacity="0.5" x1="73.6852" y1="199.733" x2="73.6852" y2="250.005" stroke="url(#paint15_linear_6_161)" stroke-width="1.42099"/>
<line opacity="0.5" x1="89.6443" y1="199.733" x2="89.6443" y2="250.005" stroke="url(#paint16_linear_6_161)" stroke-width="1.42099"/>
<line opacity="0.5" x1="105.604" y1="199.733" x2="105.604" y2="250.005" stroke="url(#paint17_linear_6_161)" stroke-width="1.42099"/>
<line opacity="0.5" x1="121.563" y1="199.733" x2="121.563" y2="250.005" stroke="url(#paint18_linear_6_161)" stroke-width="1.42099"/>
<line opacity="0.5" x1="137.522" y1="199.733" x2="137.522" y2="250.005" stroke="url(#paint19_linear_6_161)" stroke-width="1.42099"/>
<line opacity="0.5" x1="153.481" y1="199.733" x2="153.481" y2="250.005" stroke="url(#paint20_linear_6_161)" stroke-width="1.42099"/>
<line opacity="0.5" x1="169.441" y1="199.733" x2="169.441" y2="250.005" stroke="url(#paint21_linear_6_161)" stroke-width="1.42099"/>
<line opacity="0.5" x1="185.4" y1="199.733" x2="185.4" y2="250.005" stroke="url(#paint22_linear_6_161)" stroke-width="1.42099"/>
<line opacity="0.5" x1="201.359" y1="199.733" x2="201.359" y2="250.005" stroke="url(#paint23_linear_6_161)" stroke-width="1.42099"/>
<line opacity="0.5" x1="217.319" y1="199.733" x2="217.319" y2="250.005" stroke="url(#paint24_linear_6_161)" stroke-width="1.42099"/>
<line opacity="0.5" x1="233.278" y1="199.733" x2="233.278" y2="250.005" stroke="url(#paint25_linear_6_161)" stroke-width="1.42099"/>
<line opacity="0.5" x1="249.045" y1="199.733" x2="249.045" y2="250.005" stroke="url(#paint26_linear_6_161)" stroke-width="1.42099"/>
<line opacity="0.5" x1="264.812" y1="199.733" x2="264.812" y2="250.005" stroke="url(#paint27_linear_6_161)" stroke-width="1.42099"/>
<line opacity="0.5" x1="280.578" y1="199.733" x2="280.578" y2="250.005" stroke="url(#paint28_linear_6_161)" stroke-width="1.42099"/>
<line opacity="0.5" x1="296.345" y1="199.733" x2="296.345" y2="250.005" stroke="url(#paint29_linear_6_161)" stroke-width="1.42099"/>
<line opacity="0.5" x1="312.112" y1="199.733" x2="312.112" y2="250.005" stroke="url(#paint30_linear_6_161)" stroke-width="1.42099"/>
<line opacity="0.5" x1="327.879" y1="199.733" x2="327.879" y2="250.005" stroke="url(#paint31_linear_6_161)" stroke-width="1.42099"/>
<path opacity="0.8" d="M423.336 149.418V138.808H427.262C428 138.808 428.616 138.929 429.111 139.172C429.606 139.404 429.975 139.727 430.218 140.142C430.47 140.546 430.597 141.006 430.597 141.521C430.597 142.057 430.48 142.506 430.248 142.87C430.016 143.234 429.707 143.517 429.323 143.719C428.95 143.911 428.545 144.022 428.111 144.052L428.323 143.901C428.788 143.911 429.212 144.037 429.596 144.28C429.98 144.512 430.283 144.825 430.506 145.219C430.728 145.614 430.839 146.048 430.839 146.523C430.839 147.069 430.708 147.564 430.445 148.008C430.182 148.443 429.793 148.786 429.278 149.039C428.763 149.292 428.131 149.418 427.383 149.418H423.336ZM424.852 148.16H427.186C427.853 148.16 428.369 148.008 428.732 147.705C429.106 147.392 429.293 146.952 429.293 146.387C429.293 145.831 429.101 145.386 428.717 145.053C428.343 144.719 427.823 144.553 427.156 144.553H424.852V148.16ZM424.852 143.385H427.095C427.732 143.385 428.217 143.239 428.55 142.946C428.884 142.643 429.051 142.228 429.051 141.703C429.051 141.198 428.884 140.799 428.55 140.506C428.217 140.202 427.717 140.051 427.05 140.051H424.852V143.385ZM434.496 149.6C433.87 149.6 433.349 149.494 432.935 149.282C432.521 149.069 432.212 148.786 432.01 148.433C431.808 148.069 431.707 147.68 431.707 147.266C431.707 146.76 431.838 146.331 432.101 145.977C432.364 145.614 432.738 145.336 433.223 145.144C433.708 144.952 434.289 144.856 434.966 144.856H436.951C436.951 144.411 436.886 144.042 436.754 143.749C436.623 143.456 436.426 143.239 436.163 143.097C435.911 142.946 435.587 142.87 435.193 142.87C434.739 142.87 434.349 142.981 434.026 143.204C433.703 143.416 433.501 143.734 433.42 144.158H431.904C431.965 143.623 432.147 143.168 432.45 142.794C432.763 142.41 433.162 142.117 433.647 141.915C434.132 141.703 434.648 141.597 435.193 141.597C435.911 141.597 436.512 141.723 436.997 141.976C437.482 142.228 437.846 142.587 438.088 143.052C438.341 143.507 438.467 144.052 438.467 144.689V149.418H437.149L437.027 148.13C436.916 148.332 436.785 148.524 436.633 148.706C436.482 148.887 436.3 149.044 436.088 149.175C435.885 149.307 435.648 149.408 435.375 149.479C435.112 149.559 434.819 149.6 434.496 149.6ZM434.784 148.372C435.107 148.372 435.4 148.306 435.663 148.175C435.926 148.044 436.148 147.867 436.33 147.645C436.522 147.412 436.663 147.154 436.754 146.872C436.855 146.579 436.911 146.28 436.921 145.977V145.932H435.117C434.683 145.932 434.329 145.987 434.056 146.099C433.794 146.2 433.602 146.341 433.48 146.523C433.359 146.705 433.299 146.917 433.299 147.16C433.299 147.412 433.354 147.629 433.465 147.811C433.587 147.983 433.758 148.12 433.981 148.221C434.203 148.322 434.471 148.372 434.784 148.372ZM439.796 149.418V141.779H441.16L441.251 143.082C441.493 142.628 441.837 142.269 442.281 142.006C442.726 141.733 443.236 141.597 443.812 141.597C444.419 141.597 444.939 141.718 445.373 141.961C445.808 142.203 446.146 142.572 446.389 143.067C446.631 143.552 446.753 144.163 446.753 144.901V149.418H445.237V145.053C445.237 144.345 445.08 143.81 444.767 143.446C444.454 143.082 443.999 142.9 443.403 142.9C443.009 142.9 442.655 142.996 442.342 143.188C442.029 143.37 441.776 143.643 441.584 144.007C441.402 144.371 441.311 144.815 441.311 145.341V149.418H439.796ZM452.89 149.418L449.374 145.235L452.557 141.779H454.391L450.601 145.826V144.689L454.8 149.418H452.89ZM448.085 149.418V138.505H449.601V149.418H448.085ZM454.851 150.949L458.64 137.762H460.125L456.336 150.949H454.851ZM463.644 149.418L467.54 138.808H469.192L473.087 149.418H471.466L468.358 140.627L465.236 149.418H463.644ZM465.403 146.796L465.827 145.583H470.814L471.238 146.796H465.403ZM478.039 149.6C476.998 149.6 476.099 149.372 475.341 148.918C474.593 148.453 474.012 147.811 473.598 146.993C473.194 146.164 472.992 145.204 472.992 144.113C472.992 143.032 473.194 142.077 473.598 141.248C474.012 140.42 474.593 139.778 475.341 139.323C476.099 138.858 476.998 138.626 478.039 138.626C479.282 138.626 480.287 138.924 481.055 139.52C481.834 140.117 482.329 140.955 482.541 142.036H480.874C480.722 141.41 480.409 140.91 479.934 140.536C479.469 140.162 478.837 139.975 478.039 139.975C477.322 139.975 476.7 140.142 476.175 140.475C475.649 140.809 475.245 141.284 474.962 141.9C474.679 142.516 474.538 143.254 474.538 144.113C474.538 144.972 474.679 145.715 474.962 146.341C475.245 146.957 475.649 147.432 476.175 147.766C476.7 148.089 477.322 148.251 478.039 148.251C478.837 148.251 479.469 148.074 479.934 147.72C480.409 147.357 480.722 146.867 480.874 146.25H482.541C482.329 147.301 481.834 148.125 481.055 148.721C480.287 149.307 479.282 149.6 478.039 149.6ZM490.493 149.418V138.808H492.009V149.418H490.493ZM483.748 149.418V138.808H485.264V149.418H483.748ZM485.006 144.628V143.385H490.826V144.628H485.006Z" fill="black"/>
<path d="M399.489 176.26V174.57C400.356 173.884 401.185 173.197 401.975 172.511C402.765 171.825 403.477 171.145 404.112 170.472C404.746 169.798 405.245 169.138 405.607 168.49C405.97 167.843 406.151 167.221 406.151 166.626C406.151 166.237 406.08 165.875 405.937 165.538C405.795 165.201 405.568 164.929 405.258 164.722C404.96 164.515 404.558 164.411 404.053 164.411C403.561 164.411 403.14 164.521 402.791 164.741C402.454 164.962 402.202 165.259 402.033 165.635C401.865 165.998 401.781 166.412 401.781 166.878H399.527C399.553 165.894 399.767 165.072 400.168 164.411C400.57 163.751 401.114 163.259 401.8 162.935C402.486 162.598 403.257 162.43 404.112 162.43C405.031 162.43 405.814 162.598 406.462 162.935C407.109 163.272 407.608 163.744 407.958 164.353C408.307 164.962 408.482 165.68 408.482 166.509C408.482 167.118 408.365 167.72 408.132 168.315C407.912 168.898 407.601 169.468 407.2 170.025C406.799 170.569 406.345 171.1 405.84 171.618C405.348 172.123 404.837 172.608 404.306 173.074C403.775 173.528 403.263 173.948 402.771 174.337H408.851V176.26H399.489ZM410.995 176.26L416.065 164.664H409.228V162.663H418.454V164.334L413.423 176.26H410.995ZM423.941 176.493C423.022 176.493 422.239 176.318 421.591 175.969C420.957 175.606 420.458 175.133 420.095 174.551C419.733 173.955 419.519 173.32 419.454 172.647H421.611C421.727 173.256 421.986 173.728 422.388 174.065C422.802 174.389 423.333 174.551 423.98 174.551C424.576 174.551 425.094 174.376 425.534 174.026C425.974 173.664 426.324 173.126 426.583 172.414C426.855 171.689 427.004 170.782 427.03 169.695C427.03 169.669 427.03 169.636 427.03 169.597C427.03 169.559 427.03 169.52 427.03 169.481C426.836 169.844 426.564 170.174 426.214 170.472C425.864 170.769 425.457 171.002 424.99 171.171C424.537 171.339 424.045 171.423 423.514 171.423C422.763 171.423 422.051 171.249 421.377 170.899C420.717 170.536 420.186 170.025 419.785 169.364C419.383 168.704 419.183 167.927 419.183 167.034C419.183 166.218 419.377 165.46 419.765 164.761C420.154 164.062 420.704 163.498 421.416 163.071C422.129 162.644 422.951 162.43 423.883 162.43C424.906 162.43 425.761 162.618 426.447 162.993C427.146 163.369 427.703 163.874 428.118 164.508C428.532 165.13 428.83 165.829 429.011 166.606C429.205 167.383 429.302 168.18 429.302 168.995C429.302 170.497 429.089 171.812 428.661 172.938C428.247 174.065 427.638 174.939 426.836 175.561C426.046 176.182 425.081 176.493 423.941 176.493ZM424.058 169.442C424.55 169.442 424.99 169.339 425.379 169.131C425.78 168.911 426.098 168.613 426.331 168.238C426.564 167.849 426.68 167.422 426.68 166.956C426.68 166.464 426.564 166.03 426.331 165.654C426.098 165.266 425.78 164.968 425.379 164.761C424.99 164.541 424.544 164.431 424.039 164.431C423.534 164.431 423.087 164.541 422.698 164.761C422.31 164.981 421.999 165.279 421.766 165.654C421.546 166.017 421.436 166.444 421.436 166.936C421.436 167.441 421.546 167.882 421.766 168.257C421.999 168.633 422.31 168.924 422.698 169.131C423.1 169.339 423.553 169.442 424.058 169.442ZM429.862 178.649L430.969 173.91H433.242L431.397 178.649H429.862ZM439.566 176.493C438.556 176.493 437.701 176.305 437.002 175.93C436.315 175.554 435.765 175.056 435.351 174.434C434.936 173.8 434.632 173.094 434.438 172.317C434.243 171.54 434.146 170.744 434.146 169.928C434.146 168.413 434.36 167.098 434.787 165.985C435.215 164.858 435.823 163.984 436.613 163.362C437.416 162.741 438.381 162.43 439.507 162.43C440.44 162.43 441.223 162.611 441.858 162.974C442.505 163.324 443.01 163.79 443.373 164.372C443.735 164.955 443.956 165.59 444.033 166.276H441.858C441.741 165.667 441.476 165.201 441.061 164.877C440.66 164.541 440.135 164.372 439.488 164.372C438.905 164.372 438.387 164.554 437.934 164.916C437.481 165.279 437.125 165.823 436.866 166.548C436.607 167.273 436.458 168.192 436.419 169.306C436.419 169.332 436.419 169.358 436.419 169.384C436.419 169.397 436.419 169.416 436.419 169.442C436.626 169.067 436.905 168.736 437.254 168.451C437.604 168.154 438.005 167.921 438.459 167.752C438.925 167.584 439.423 167.5 439.954 167.5C440.718 167.5 441.424 167.681 442.071 168.044C442.732 168.393 443.263 168.898 443.664 169.559C444.079 170.219 444.286 170.996 444.286 171.89C444.286 172.705 444.091 173.463 443.703 174.162C443.315 174.861 442.764 175.425 442.052 175.852C441.34 176.279 440.511 176.493 439.566 176.493ZM439.43 174.492C439.935 174.492 440.381 174.382 440.77 174.162C441.158 173.942 441.463 173.644 441.683 173.269C441.916 172.893 442.033 172.466 442.033 171.987C442.033 171.482 441.916 171.041 441.683 170.666C441.463 170.29 441.152 169.999 440.751 169.792C440.362 169.585 439.915 169.481 439.41 169.481C438.918 169.481 438.471 169.591 438.07 169.811C437.682 170.018 437.371 170.31 437.138 170.685C436.905 171.061 436.788 171.488 436.788 171.967C436.788 172.459 436.905 172.893 437.138 173.269C437.371 173.644 437.682 173.942 438.07 174.162C438.471 174.382 438.925 174.492 439.43 174.492ZM450.459 176.493C449.578 176.493 448.776 176.338 448.05 176.027C447.325 175.703 446.742 175.218 446.302 174.57C445.875 173.91 445.648 173.081 445.622 172.084H447.914C447.927 172.537 448.031 172.951 448.225 173.327C448.432 173.689 448.724 173.981 449.099 174.201C449.475 174.408 449.928 174.512 450.459 174.512C450.964 174.512 451.391 174.415 451.741 174.22C452.104 174.026 452.375 173.761 452.557 173.424C452.738 173.087 452.829 172.712 452.829 172.297C452.829 171.792 452.706 171.378 452.46 171.054C452.214 170.718 451.877 170.465 451.45 170.297C451.022 170.128 450.537 170.044 449.993 170.044H448.983V168.121H449.993C450.705 168.121 451.288 167.959 451.741 167.636C452.194 167.299 452.421 166.813 452.421 166.179C452.421 165.648 452.246 165.221 451.896 164.897C451.56 164.573 451.074 164.411 450.44 164.411C449.779 164.411 449.255 164.606 448.866 164.994C448.491 165.382 448.283 165.862 448.245 166.431H445.953C445.991 165.616 446.199 164.91 446.574 164.314C446.963 163.706 447.487 163.239 448.147 162.916C448.808 162.592 449.578 162.43 450.459 162.43C451.378 162.43 452.155 162.592 452.79 162.916C453.424 163.239 453.903 163.673 454.227 164.217C454.564 164.761 454.732 165.357 454.732 166.004C454.732 166.509 454.635 166.969 454.441 167.383C454.247 167.798 453.981 168.147 453.644 168.432C453.321 168.704 452.939 168.905 452.498 169.034C453.003 169.138 453.45 169.339 453.839 169.636C454.24 169.934 454.551 170.316 454.771 170.782C455.004 171.236 455.121 171.767 455.121 172.375C455.121 173.113 454.939 173.8 454.577 174.434C454.227 175.056 453.703 175.554 453.003 175.93C452.317 176.305 451.469 176.493 450.459 176.493ZM460.953 176.493C460.033 176.493 459.25 176.318 458.602 175.969C457.968 175.606 457.469 175.133 457.107 174.551C456.744 173.955 456.53 173.32 456.466 172.647H458.622C458.738 173.256 458.997 173.728 459.399 174.065C459.813 174.389 460.344 174.551 460.991 174.551C461.587 174.551 462.105 174.376 462.545 174.026C462.986 173.664 463.335 173.126 463.594 172.414C463.866 171.689 464.015 170.782 464.041 169.695C464.041 169.669 464.041 169.636 464.041 169.597C464.041 169.559 464.041 169.52 464.041 169.481C463.847 169.844 463.575 170.174 463.225 170.472C462.876 170.769 462.468 171.002 462.002 171.171C461.548 171.339 461.056 171.423 460.525 171.423C459.774 171.423 459.062 171.249 458.389 170.899C457.728 170.536 457.197 170.025 456.796 169.364C456.394 168.704 456.194 167.927 456.194 167.034C456.194 166.218 456.388 165.46 456.776 164.761C457.165 164.062 457.715 163.498 458.428 163.071C459.14 162.644 459.962 162.43 460.894 162.43C461.917 162.43 462.772 162.618 463.458 162.993C464.158 163.369 464.714 163.874 465.129 164.508C465.543 165.13 465.841 165.829 466.022 166.606C466.217 167.383 466.314 168.18 466.314 168.995C466.314 170.497 466.1 171.812 465.673 172.938C465.258 174.065 464.65 174.939 463.847 175.561C463.057 176.182 462.092 176.493 460.953 176.493ZM461.069 169.442C461.561 169.442 462.002 169.339 462.39 169.131C462.791 168.911 463.109 168.613 463.342 168.238C463.575 167.849 463.691 167.422 463.691 166.956C463.691 166.464 463.575 166.03 463.342 165.654C463.109 165.266 462.791 164.968 462.39 164.761C462.002 164.541 461.555 164.431 461.05 164.431C460.545 164.431 460.098 164.541 459.71 164.761C459.321 164.981 459.01 165.279 458.777 165.654C458.557 166.017 458.447 166.444 458.447 166.936C458.447 167.441 458.557 167.882 458.777 168.257C459.01 168.633 459.321 168.924 459.71 169.131C460.111 169.339 460.564 169.442 461.069 169.442ZM468.267 176.357C467.826 176.357 467.47 176.221 467.198 175.949C466.926 175.677 466.79 175.353 466.79 174.978C466.79 174.577 466.926 174.24 467.198 173.968C467.47 173.696 467.826 173.56 468.267 173.56C468.694 173.56 469.044 173.696 469.315 173.968C469.587 174.24 469.723 174.577 469.723 174.978C469.723 175.353 469.587 175.677 469.315 175.949C469.044 176.221 468.694 176.357 468.267 176.357ZM475.557 176.493C474.676 176.493 473.874 176.338 473.148 176.027C472.423 175.703 471.841 175.218 471.4 174.57C470.973 173.91 470.746 173.081 470.72 172.084H473.012C473.025 172.537 473.129 172.951 473.323 173.327C473.53 173.689 473.822 173.981 474.197 174.201C474.573 174.408 475.026 174.512 475.557 174.512C476.062 174.512 476.489 174.415 476.839 174.22C477.202 174.026 477.473 173.761 477.655 173.424C477.836 173.087 477.927 172.712 477.927 172.297C477.927 171.792 477.804 171.378 477.558 171.054C477.312 170.718 476.975 170.465 476.548 170.297C476.12 170.128 475.635 170.044 475.091 170.044H474.081V168.121H475.091C475.803 168.121 476.386 167.959 476.839 167.636C477.292 167.299 477.519 166.813 477.519 166.179C477.519 165.648 477.344 165.221 476.994 164.897C476.658 164.573 476.172 164.411 475.538 164.411C474.877 164.411 474.353 164.606 473.964 164.994C473.589 165.382 473.381 165.862 473.343 166.431H471.051C471.089 165.616 471.297 164.91 471.672 164.314C472.061 163.706 472.585 163.239 473.246 162.916C473.906 162.592 474.676 162.43 475.557 162.43C476.476 162.43 477.253 162.592 477.888 162.916C478.522 163.239 479.002 163.673 479.325 164.217C479.662 164.761 479.83 165.357 479.83 166.004C479.83 166.509 479.733 166.969 479.539 167.383C479.345 167.798 479.079 168.147 478.743 168.432C478.419 168.704 478.037 168.905 477.597 169.034C478.102 169.138 478.548 169.339 478.937 169.636C479.338 169.934 479.649 170.316 479.869 170.782C480.102 171.236 480.219 171.767 480.219 172.375C480.219 173.113 480.037 173.8 479.675 174.434C479.325 175.056 478.801 175.554 478.102 175.93C477.415 176.305 476.567 176.493 475.557 176.493ZM487.029 176.493C486.019 176.493 485.165 176.305 484.466 175.93C483.779 175.554 483.229 175.056 482.814 174.434C482.4 173.8 482.096 173.094 481.902 172.317C481.707 171.54 481.61 170.744 481.61 169.928C481.61 168.413 481.824 167.098 482.251 165.985C482.678 164.858 483.287 163.984 484.077 163.362C484.88 162.741 485.845 162.43 486.971 162.43C487.904 162.43 488.687 162.611 489.322 162.974C489.969 163.324 490.474 163.79 490.837 164.372C491.199 164.955 491.419 165.59 491.497 166.276H489.322C489.205 165.667 488.94 165.201 488.525 164.877C488.124 164.541 487.599 164.372 486.952 164.372C486.369 164.372 485.851 164.554 485.398 164.916C484.945 165.279 484.589 165.823 484.33 166.548C484.071 167.273 483.922 168.192 483.883 169.306C483.883 169.332 483.883 169.358 483.883 169.384C483.883 169.397 483.883 169.416 483.883 169.442C484.09 169.067 484.368 168.736 484.718 168.451C485.068 168.154 485.469 167.921 485.922 167.752C486.388 167.584 486.887 167.5 487.418 167.5C488.182 167.5 488.888 167.681 489.535 168.044C490.196 168.393 490.727 168.898 491.128 169.559C491.542 170.219 491.75 170.996 491.75 171.89C491.75 172.705 491.555 173.463 491.167 174.162C490.778 174.861 490.228 175.425 489.516 175.852C488.804 176.279 487.975 176.493 487.029 176.493ZM486.894 174.492C487.399 174.492 487.845 174.382 488.234 174.162C488.622 173.942 488.927 173.644 489.147 173.269C489.38 172.893 489.496 172.466 489.496 171.987C489.496 171.482 489.38 171.041 489.147 170.666C488.927 170.29 488.616 169.999 488.214 169.792C487.826 169.585 487.379 169.481 486.874 169.481C486.382 169.481 485.935 169.591 485.534 169.811C485.145 170.018 484.835 170.31 484.601 170.685C484.368 171.061 484.252 171.488 484.252 171.967C484.252 172.459 484.368 172.893 484.601 173.269C484.835 173.644 485.145 173.942 485.534 174.162C485.935 174.382 486.388 174.492 486.894 174.492Z" fill="black"/>
<path opacity="0.8" d="M30.9353 149.6C29.8945 149.6 28.9951 149.372 28.2373 148.918C27.4895 148.453 26.9085 147.811 26.4942 146.993C26.09 146.164 25.8879 145.204 25.8879 144.113C25.8879 143.032 26.09 142.077 26.4942 141.248C26.9085 140.42 27.4895 139.778 28.2373 139.323C28.9951 138.858 29.8945 138.626 30.9353 138.626C32.1782 138.626 33.1836 138.924 33.9515 139.52C34.7296 140.117 35.2248 140.955 35.437 142.036H33.7697C33.6181 141.41 33.3048 140.91 32.8299 140.536C32.3651 140.162 31.7335 139.975 30.9353 139.975C30.2178 139.975 29.5964 140.142 29.0709 140.475C28.5455 140.809 28.1413 141.284 27.8584 141.9C27.5754 142.516 27.434 143.254 27.434 144.113C27.434 144.972 27.5754 145.715 27.8584 146.341C28.1413 146.957 28.5455 147.432 29.0709 147.766C29.5964 148.089 30.2178 148.251 30.9353 148.251C31.7335 148.251 32.3651 148.074 32.8299 147.72C33.3048 147.357 33.6181 146.867 33.7697 146.25H35.437C35.2248 147.301 34.7296 148.125 33.9515 148.721C33.1836 149.307 32.1782 149.6 30.9353 149.6ZM36.5682 149.418V141.779H37.9323L38.0687 143.219C38.2405 142.875 38.4628 142.587 38.7357 142.355C39.0085 142.112 39.3268 141.925 39.6906 141.794C40.0644 141.663 40.4888 141.597 40.9638 141.597V143.204H40.4181C40.1049 143.204 39.8068 143.244 39.5238 143.325C39.2409 143.396 38.9883 143.522 38.766 143.704C38.5538 143.886 38.387 144.133 38.2658 144.446C38.1445 144.76 38.0839 145.149 38.0839 145.614V149.418H36.5682ZM44.9833 149.6C44.2557 149.6 43.609 149.433 43.0431 149.1C42.4773 148.766 42.0327 148.301 41.7093 147.705C41.3961 147.109 41.2394 146.417 41.2394 145.629C41.2394 144.82 41.3961 144.118 41.7093 143.522C42.0327 142.916 42.4773 142.446 43.0431 142.112C43.609 141.769 44.2658 141.597 45.0136 141.597C45.7613 141.597 46.403 141.764 46.9385 142.097C47.4741 142.431 47.8884 142.875 48.1814 143.431C48.4745 143.977 48.621 144.583 48.621 145.25C48.621 145.351 48.6159 145.462 48.6058 145.583C48.6058 145.694 48.6008 145.821 48.5907 145.962H42.3459V144.886H47.1053C47.0749 144.249 46.8627 143.754 46.4687 143.401C46.0746 143.037 45.5845 142.855 44.9984 142.855C44.5841 142.855 44.2052 142.951 43.8616 143.143C43.5181 143.325 43.2402 143.598 43.028 143.961C42.8259 144.315 42.7248 144.765 42.7248 145.31V145.735C42.7248 146.301 42.8259 146.781 43.028 147.175C43.2402 147.559 43.5181 147.852 43.8616 148.054C44.2052 148.246 44.5791 148.342 44.9833 148.342C45.4683 148.342 45.8674 148.236 46.1807 148.024C46.4939 147.811 46.7263 147.523 46.8779 147.16H48.3936C48.2623 147.624 48.04 148.044 47.7267 148.418C47.4135 148.781 47.0244 149.069 46.5596 149.282C46.1049 149.494 45.5794 149.6 44.9833 149.6ZM53.0939 149.6C52.3663 149.6 51.7247 149.428 51.1689 149.085C50.6132 148.731 50.1787 148.256 49.8654 147.66C49.5623 147.053 49.4107 146.366 49.4107 145.598C49.4107 144.82 49.5623 144.133 49.8654 143.537C50.1787 142.941 50.6132 142.471 51.1689 142.127C51.7348 141.774 52.3815 141.597 53.109 141.597C53.7052 141.597 54.2307 141.718 54.6854 141.961C55.1401 142.193 55.4938 142.527 55.7464 142.961V138.505H57.2621V149.418H55.898L55.7464 148.236C55.5948 148.468 55.3978 148.69 55.1553 148.903C54.9128 149.105 54.6197 149.271 54.2761 149.403C53.9326 149.534 53.5385 149.6 53.0939 149.6ZM53.3364 148.281C53.8113 148.281 54.2307 148.17 54.5944 147.948C54.9582 147.725 55.2361 147.412 55.4281 147.008C55.6302 146.604 55.7312 146.134 55.7312 145.598C55.7312 145.063 55.6302 144.598 55.4281 144.204C55.2361 143.8 54.9582 143.486 54.5944 143.264C54.2307 143.032 53.8113 142.916 53.3364 142.916C52.8817 142.916 52.4724 143.032 52.1087 143.264C51.7449 143.486 51.462 143.8 51.2599 144.204C51.0578 144.598 50.9567 145.063 50.9567 145.598C50.9567 146.134 51.0578 146.604 51.2599 147.008C51.462 147.412 51.7449 147.725 52.1087 147.948C52.4724 148.17 52.8817 148.281 53.3364 148.281ZM58.8346 149.418V141.779H60.3503V149.418H58.8346ZM59.6076 140.339C59.3145 140.339 59.072 140.248 58.88 140.066C58.6981 139.884 58.6072 139.652 58.6072 139.369C58.6072 139.096 58.6981 138.874 58.88 138.702C59.072 138.52 59.3145 138.429 59.6076 138.429C59.8905 138.429 60.128 138.52 60.32 138.702C60.5119 138.874 60.6079 139.096 60.6079 139.369C60.6079 139.652 60.5119 139.884 60.32 140.066C60.128 140.248 59.8905 140.339 59.6076 140.339ZM65.0642 149.418C64.5791 149.418 64.1598 149.342 63.8061 149.191C63.4524 149.039 63.1796 148.786 62.9876 148.433C62.7956 148.079 62.6996 147.599 62.6996 146.993V143.067H61.381V141.779H62.6996L62.8815 139.869H64.2154V141.779H66.3828V143.067H64.2154V147.008C64.2154 147.442 64.3063 147.741 64.4882 147.902C64.6701 148.054 64.9833 148.13 65.4279 148.13H66.307V149.418H65.0642ZM75.4488 149.6C74.408 149.6 73.5087 149.372 72.7509 148.918C72.0031 148.453 71.4221 147.811 71.0078 146.993C70.6036 146.164 70.4015 145.204 70.4015 144.113C70.4015 143.032 70.6036 142.077 71.0078 141.248C71.4221 140.42 72.0031 139.778 72.7509 139.323C73.5087 138.858 74.408 138.626 75.4488 138.626C76.6917 138.626 77.6972 138.924 78.4651 139.52C79.2432 140.117 79.7383 140.955 79.9505 142.036H78.2832C78.1317 141.41 77.8184 140.91 77.3435 140.536C76.8787 140.162 76.2471 139.975 75.4488 139.975C74.7314 139.975 74.11 140.142 73.5845 140.475C73.0591 140.809 72.6549 141.284 72.3719 141.9C72.089 142.516 71.9475 143.254 71.9475 144.113C71.9475 144.972 72.089 145.715 72.3719 146.341C72.6549 146.957 73.0591 147.432 73.5845 147.766C74.11 148.089 74.7314 148.251 75.4488 148.251C76.2471 148.251 76.8787 148.074 77.3435 147.72C77.8184 147.357 78.1317 146.867 78.2832 146.25H79.9505C79.7383 147.301 79.2432 148.125 78.4651 148.721C77.6972 149.307 76.6917 149.6 75.4488 149.6ZM83.613 149.6C82.9865 149.6 82.4661 149.494 82.0518 149.282C81.6375 149.069 81.3293 148.786 81.1272 148.433C80.9251 148.069 80.8241 147.68 80.8241 147.266C80.8241 146.76 80.9554 146.331 81.2182 145.977C81.4809 145.614 81.8548 145.336 82.3398 145.144C82.8248 144.952 83.4059 144.856 84.0829 144.856H86.0685C86.0685 144.411 86.0028 144.042 85.8714 143.749C85.7401 143.456 85.543 143.239 85.2803 143.097C85.0277 142.946 84.7043 142.87 84.3102 142.87C83.8555 142.87 83.4665 142.981 83.1431 143.204C82.8198 143.416 82.6177 143.734 82.5368 144.158H81.0211C81.0817 143.623 81.2636 143.168 81.5668 142.794C81.88 142.41 82.2792 142.117 82.7642 141.915C83.2492 141.703 83.7646 141.597 84.3102 141.597C85.0277 141.597 85.6289 141.723 86.1139 141.976C86.599 142.228 86.9627 142.587 87.2053 143.052C87.4579 143.507 87.5842 144.052 87.5842 144.689V149.418H86.2655L86.1442 148.13C86.0331 148.332 85.9017 148.524 85.7502 148.706C85.5986 148.887 85.4167 149.044 85.2045 149.175C85.0024 149.307 84.7649 149.408 84.4921 149.479C84.2294 149.559 83.9364 149.6 83.613 149.6ZM83.901 148.372C84.2243 148.372 84.5174 148.306 84.7801 148.175C85.0428 148.044 85.2651 147.867 85.447 147.645C85.639 147.412 85.7805 147.154 85.8714 146.872C85.9725 146.579 86.028 146.28 86.0381 145.977V145.932H84.2344C83.7999 145.932 83.4463 145.987 83.1734 146.099C82.9107 146.2 82.7187 146.341 82.5975 146.523C82.4762 146.705 82.4156 146.917 82.4156 147.16C82.4156 147.412 82.4712 147.629 82.5823 147.811C82.7036 147.983 82.8753 148.12 83.0977 148.221C83.32 148.322 83.5877 148.372 83.901 148.372ZM88.9126 149.418V141.779H90.2767L90.4131 143.219C90.5849 142.875 90.8072 142.587 91.08 142.355C91.3529 142.112 91.6712 141.925 92.0349 141.794C92.4088 141.663 92.8332 141.597 93.3082 141.597V143.204H92.7625C92.4492 143.204 92.1512 143.244 91.8682 143.325C91.5853 143.396 91.3327 143.522 91.1104 143.704C90.8982 143.886 90.7314 144.133 90.6102 144.446C90.4889 144.76 90.4283 145.149 90.4283 145.614V149.418H88.9126ZM97.267 149.6C96.5395 149.6 95.8978 149.428 95.3421 149.085C94.7863 148.731 94.3518 148.256 94.0385 147.66C93.7354 147.053 93.5838 146.366 93.5838 145.598C93.5838 144.82 93.7354 144.133 94.0385 143.537C94.3518 142.941 94.7863 142.471 95.3421 142.127C95.9079 141.774 96.5546 141.597 97.2822 141.597C97.8784 141.597 98.4038 141.718 98.8585 141.961C99.3132 142.193 99.6669 142.527 99.9195 142.961V138.505H101.435V149.418H100.071L99.9195 148.236C99.768 148.468 99.5709 148.69 99.3284 148.903C99.0859 149.105 98.7928 149.271 98.4493 149.403C98.1057 149.534 97.7116 149.6 97.267 149.6ZM97.5095 148.281C97.9845 148.281 98.4038 148.17 98.7676 147.948C99.1313 147.725 99.4092 147.412 99.6012 147.008C99.8033 146.604 99.9044 146.134 99.9044 145.598C99.9044 145.063 99.8033 144.598 99.6012 144.204C99.4092 143.8 99.1313 143.486 98.7676 143.264C98.4038 143.032 97.9845 142.916 97.5095 142.916C97.0548 142.916 96.6456 143.032 96.2818 143.264C95.918 143.486 95.6351 143.8 95.433 144.204C95.2309 144.598 95.1299 145.063 95.1299 145.598C95.1299 146.134 95.2309 146.604 95.433 147.008C95.6351 147.412 95.918 147.725 96.2818 147.948C96.6456 148.17 97.0548 148.281 97.5095 148.281ZM105.857 149.6C105.211 149.6 104.645 149.494 104.16 149.282C103.675 149.069 103.291 148.771 103.008 148.387C102.725 148.003 102.553 147.554 102.492 147.038H104.038C104.089 147.281 104.185 147.503 104.326 147.705C104.478 147.907 104.68 148.069 104.933 148.19C105.195 148.311 105.504 148.372 105.857 148.372C106.191 148.372 106.464 148.327 106.676 148.236C106.898 148.135 107.06 148.003 107.161 147.842C107.262 147.67 107.312 147.488 107.312 147.296C107.312 147.013 107.242 146.801 107.1 146.659C106.969 146.508 106.767 146.392 106.494 146.311C106.231 146.22 105.913 146.139 105.539 146.068C105.185 146.008 104.842 145.927 104.508 145.826C104.185 145.715 103.892 145.578 103.629 145.416C103.377 145.255 103.174 145.053 103.023 144.81C102.871 144.558 102.795 144.249 102.795 143.886C102.795 143.451 102.912 143.062 103.144 142.718C103.377 142.365 103.705 142.092 104.129 141.9C104.564 141.698 105.074 141.597 105.66 141.597C106.509 141.597 107.191 141.799 107.706 142.203C108.222 142.607 108.525 143.178 108.616 143.916H107.146C107.105 143.572 106.954 143.31 106.691 143.128C106.428 142.936 106.08 142.84 105.645 142.84C105.211 142.84 104.877 142.926 104.645 143.097C104.412 143.269 104.296 143.497 104.296 143.779C104.296 143.961 104.362 144.123 104.493 144.265C104.624 144.406 104.816 144.527 105.069 144.628C105.332 144.719 105.65 144.805 106.024 144.886C106.56 144.987 107.039 145.113 107.464 145.265C107.888 145.416 108.227 145.639 108.479 145.932C108.732 146.225 108.858 146.644 108.858 147.19C108.868 147.665 108.747 148.084 108.495 148.448C108.252 148.812 107.903 149.095 107.449 149.297C107.004 149.499 106.474 149.6 105.857 149.6Z" fill="black"/>
<path d="M31.3114 176.493C30.3402 176.493 29.4985 176.325 28.7863 175.988C28.087 175.638 27.5367 175.166 27.1352 174.57C26.7338 173.961 26.4942 173.275 26.4166 172.511H28.6892C28.8057 173.081 29.0971 173.56 29.5633 173.948C30.0294 174.324 30.6122 174.512 31.3114 174.512C31.8423 174.512 32.2956 174.389 32.6711 174.143C33.0466 173.884 33.338 173.541 33.5452 173.113C33.7653 172.673 33.8754 172.181 33.8754 171.637C33.8754 171.08 33.7653 170.595 33.5452 170.18C33.338 169.766 33.0466 169.449 32.6711 169.228C32.2956 168.995 31.8618 168.879 31.3697 168.879C30.7611 168.879 30.2366 169.021 29.7963 169.306C29.369 169.578 29.0582 169.921 28.864 170.336H26.6108L27.7374 162.663H35.2351V164.703H29.4856L28.864 168.063C29.1618 167.739 29.5568 167.48 30.0489 167.286C30.5409 167.079 31.1042 166.975 31.7388 166.975C32.451 166.975 33.079 167.098 33.6229 167.344C34.1668 167.59 34.6265 167.927 35.002 168.354C35.3775 168.782 35.6559 169.28 35.8372 169.85C36.0315 170.407 36.1286 170.996 36.1286 171.618C36.1286 172.317 36.012 172.964 35.779 173.56C35.5459 174.143 35.2157 174.654 34.7883 175.095C34.374 175.535 33.8689 175.878 33.2733 176.124C32.6905 176.37 32.0366 176.493 31.3114 176.493ZM42.7942 176.493C41.7842 176.493 40.9295 176.305 40.2303 175.93C39.5439 175.554 38.9936 175.056 38.5792 174.434C38.1648 173.8 37.8605 173.094 37.6663 172.317C37.472 171.54 37.3749 170.744 37.3749 169.928C37.3749 168.413 37.5886 167.098 38.0159 165.985C38.4432 164.858 39.0519 163.984 39.8418 163.362C40.6446 162.741 41.6094 162.43 42.736 162.43C43.6683 162.43 44.4518 162.611 45.0863 162.974C45.7338 163.324 46.2388 163.79 46.6014 164.372C46.9639 164.955 47.1841 165.59 47.2618 166.276H45.0863C44.9697 165.667 44.7043 165.201 44.2899 164.877C43.8885 164.541 43.364 164.372 42.7165 164.372C42.1338 164.372 41.6158 164.554 41.1626 164.916C40.7094 165.279 40.3533 165.823 40.0943 166.548C39.8353 167.273 39.6864 168.192 39.6475 169.306C39.6475 169.332 39.6475 169.358 39.6475 169.384C39.6475 169.397 39.6475 169.416 39.6475 169.442C39.8547 169.067 40.1331 168.736 40.4828 168.451C40.8324 168.154 41.2338 167.921 41.6871 167.752C42.1532 167.584 42.6518 167.5 43.1827 167.5C43.9467 167.5 44.6525 167.681 45.2999 168.044C45.9604 168.393 46.4913 168.898 46.8927 169.559C47.3071 170.219 47.5143 170.996 47.5143 171.89C47.5143 172.705 47.3201 173.463 46.9316 174.162C46.5431 174.861 45.9927 175.425 45.2805 175.852C44.5683 176.279 43.7395 176.493 42.7942 176.493ZM42.6583 174.492C43.1633 174.492 43.6101 174.382 43.9985 174.162C44.387 173.942 44.6913 173.644 44.9115 173.269C45.1446 172.893 45.2611 172.466 45.2611 171.987C45.2611 171.482 45.1446 171.041 44.9115 170.666C44.6913 170.29 44.3805 169.999 43.9791 169.792C43.5906 169.585 43.1439 169.481 42.6388 169.481C42.1468 169.481 41.7 169.591 41.2986 169.811C40.9101 170.018 40.5993 170.31 40.3662 170.685C40.1331 171.061 40.0166 171.488 40.0166 171.967C40.0166 172.459 40.1331 172.893 40.3662 173.269C40.5993 173.644 40.9101 173.942 41.2986 174.162C41.7 174.382 42.1532 174.492 42.6583 174.492ZM49.9071 176.26L54.9768 164.664H48.1395V162.663H57.3659V164.334L52.3351 176.26H49.9071ZM56.5954 178.649L57.7025 173.91H59.9751L58.1299 178.649H56.5954ZM62.2004 176.26L67.2701 164.664H60.4328V162.663H69.6593V164.334L64.6284 176.26H62.2004ZM75.1901 176.493C74.2189 176.493 73.3772 176.325 72.665 175.988C71.9657 175.638 71.4154 175.166 71.0139 174.57C70.6125 173.961 70.3729 173.275 70.2952 172.511H72.5679C72.6844 173.081 72.9758 173.56 73.4419 173.948C73.9081 174.324 74.4908 174.512 75.1901 174.512C75.721 174.512 76.1743 174.389 76.5498 174.143C76.9253 173.884 77.2167 173.541 77.4239 173.113C77.644 172.673 77.7541 172.181 77.7541 171.637C77.7541 171.08 77.644 170.595 77.4239 170.18C77.2167 169.766 76.9253 169.449 76.5498 169.228C76.1743 168.995 75.7405 168.879 75.2484 168.879C74.6398 168.879 74.1153 169.021 73.675 169.306C73.2477 169.578 72.9369 169.921 72.7427 170.336H70.4895L71.6161 162.663H79.1138V164.703H73.3643L72.7427 168.063C73.0405 167.739 73.4355 167.48 73.9275 167.286C74.4196 167.079 74.9829 166.975 75.6174 166.975C76.3297 166.975 76.9577 167.098 77.5016 167.344C78.0455 167.59 78.5052 167.927 78.8807 168.354C79.2562 168.782 79.5346 169.28 79.7159 169.85C79.9102 170.407 80.0073 170.996 80.0073 171.618C80.0073 172.317 79.8907 172.964 79.6577 173.56C79.4246 174.143 79.0944 174.654 78.667 175.095C78.2526 175.535 77.7476 175.878 77.1519 176.124C76.5692 176.37 75.9153 176.493 75.1901 176.493ZM81.1222 176.26V174.57C81.9898 173.884 82.8186 173.197 83.6085 172.511C84.3984 171.825 85.1106 171.145 85.7451 170.472C86.3797 169.798 86.8782 169.138 87.2408 168.49C87.6034 167.843 87.7847 167.221 87.7847 166.626C87.7847 166.237 87.7134 165.875 87.571 165.538C87.4286 165.201 87.2019 164.929 86.8912 164.722C86.5933 164.515 86.1919 164.411 85.6869 164.411C85.1948 164.411 84.7739 164.521 84.4243 164.741C84.0876 164.962 83.8351 165.259 83.6668 165.635C83.4984 165.998 83.4142 166.412 83.4142 166.878H81.161C81.1869 165.894 81.4006 165.072 81.802 164.411C82.2035 163.751 82.7473 163.259 83.4337 162.935C84.12 162.598 84.8905 162.43 85.7451 162.43C86.6645 162.43 87.448 162.598 88.0954 162.935C88.7429 163.272 89.2415 163.744 89.5911 164.353C89.9407 164.962 90.1155 165.68 90.1155 166.509C90.1155 167.118 89.999 167.72 89.7659 168.315C89.5458 168.898 89.235 169.468 88.8336 170.025C88.4321 170.569 87.9789 171.1 87.4739 171.618C86.9818 172.123 86.4703 172.608 85.9394 173.074C85.4084 173.528 84.8969 173.948 84.4049 174.337H90.4846V176.26H81.1222ZM92.8184 176.357C92.3781 176.357 92.022 176.221 91.7501 175.949C91.4781 175.677 91.3421 175.353 91.3421 174.978C91.3421 174.577 91.4781 174.24 91.7501 173.968C92.022 173.696 92.3781 173.56 92.8184 173.56C93.2457 173.56 93.5953 173.696 93.8673 173.968C94.1392 174.24 94.2752 174.577 94.2752 174.978C94.2752 175.353 94.1392 175.677 93.8673 175.949C93.5953 176.221 93.2457 176.357 92.8184 176.357ZM100.142 176.493C99.1323 176.493 98.2776 176.305 97.5783 175.93C96.892 175.554 96.3417 175.056 95.9273 174.434C95.5129 173.8 95.2086 173.094 95.0144 172.317C94.8201 171.54 94.723 170.744 94.723 169.928C94.723 168.413 94.9367 167.098 95.364 165.985C95.7913 164.858 96.3999 163.984 97.1899 163.362C97.9927 162.741 98.9575 162.43 100.084 162.43C101.016 162.43 101.8 162.611 102.434 162.974C103.082 163.324 103.587 163.79 103.949 164.372C104.312 164.955 104.532 165.59 104.61 166.276H102.434C102.318 165.667 102.052 165.201 101.638 164.877C101.237 164.541 100.712 164.372 100.065 164.372C99.4819 164.372 98.9639 164.554 98.5107 164.916C98.0575 165.279 97.7014 165.823 97.4424 166.548C97.1834 167.273 97.0345 168.192 96.9956 169.306C96.9956 169.332 96.9956 169.358 96.9956 169.384C96.9956 169.397 96.9956 169.416 96.9956 169.442C97.2028 169.067 97.4812 168.736 97.8309 168.451C98.1805 168.154 98.5819 167.921 99.0351 167.752C99.5013 167.584 99.9999 167.5 100.531 167.5C101.295 167.5 102.001 167.681 102.648 168.044C103.308 168.393 103.839 168.898 104.241 169.559C104.655 170.219 104.862 170.996 104.862 171.89C104.862 172.705 104.668 173.463 104.28 174.162C103.891 174.861 103.341 175.425 102.629 175.852C101.916 176.279 101.088 176.493 100.142 176.493ZM100.006 174.492C100.511 174.492 100.958 174.382 101.347 174.162C101.735 173.942 102.039 173.644 102.26 173.269C102.493 172.893 102.609 172.466 102.609 171.987C102.609 171.482 102.493 171.041 102.26 170.666C102.039 170.29 101.729 169.999 101.327 169.792C100.939 169.585 100.492 169.481 99.9869 169.481C99.4949 169.481 99.0481 169.591 98.6467 169.811C98.2582 170.018 97.9474 170.31 97.7143 170.685C97.4812 171.061 97.3647 171.488 97.3647 171.967C97.3647 172.459 97.4812 172.893 97.7143 173.269C97.9474 173.644 98.2582 173.942 98.6467 174.162C99.0481 174.382 99.5013 174.492 100.006 174.492ZM112.823 176.26V173.677H106.082V171.812L112.492 162.663H115.134V171.637H116.979V173.677H115.134V176.26H112.823ZM108.588 171.637H112.959V165.227L108.588 171.637Z" fill="black"/>
</g>
<rect x="0.473662" y="0.473662" width="516.923" height="319.248" rx="22.2621" stroke="url(#paint32_linear_6_161)" stroke-width="0.947324"/>
<defs>
<filter id="filter0_f_6_161" x="108.709" y="-261.808" width="724.448" height="579.458" filterUnits="userSpaceOnUse" color-interpolation-filters="sRGB">
<feFlood flood-opacity="0" result="BackgroundImageFix"/>
<feBlend mode="normal" in="SourceGraphic" in2="BackgroundImageFix" result="shape"/>
<feGaussianBlur stdDeviation="72.944" result="effect1_foregroundBlur_6_161"/>
</filter>
<linearGradient id="paint0_linear_6_161" x1="449.478" y1="-52.4072" x2="492.388" y2="108.25" gradientUnits="userSpaceOnUse">
<stop stop-color="#239CFF"/>
<stop offset="1" stop-color="#005BE3"/>
</linearGradient>
<linearGradient id="paint1_linear_6_161" x1="110.13" y1="43.3674" x2="110.13" y2="93.3674" gradientUnits="userSpaceOnUse">
<stop stop-color="#239CFF"/>
<stop offset="1" stop-color="#005BE3"/>
</linearGradient>
<linearGradient id="paint2_linear_6_161" x1="24.8939" y1="246.008" x2="23.8939" y2="246.008" gradientUnits="userSpaceOnUse">
<stop stop-color="#239CFF"/>
<stop offset="1" stop-color="#005BE3"/>
</linearGradient>
<linearGradient id="paint3_linear_6_161" x1="348.037" y1="246.008" x2="347.037" y2="246.008" gradientUnits="userSpaceOnUse">
<stop stop-color="#239CFF"/>
<stop offset="1" stop-color="#005BE3"/>
</linearGradient>
<linearGradient id="paint4_linear_6_161" x1="41.0563" y1="224.869" x2="40.0563" y2="224.869" gradientUnits="userSpaceOnUse">
<stop stop-color="#239CFF"/>
<stop offset="1" stop-color="#005BE3"/>
</linearGradient>
<linearGradient id="paint5_linear_6_161" x1="364.2" y1="224.869" x2="363.2" y2="224.869" gradientUnits="userSpaceOnUse">
<stop stop-color="#239CFF"/>
<stop offset="1" stop-color="#005BE3"/>
</linearGradient>
<linearGradient id="paint6_linear_6_161" x1="57.0154" y1="224.869" x2="56.0154" y2="224.869" gradientUnits="userSpaceOnUse">
<stop stop-color="#239CFF"/>
<stop offset="1" stop-color="#005BE3"/>
</linearGradient>
<linearGradient id="paint7_linear_6_161" x1="380.159" y1="224.869" x2="379.159" y2="224.869" gradientUnits="userSpaceOnUse">
<stop stop-color="#239CFF"/>
<stop offset="1" stop-color="#005BE3"/>
</linearGradient>
<linearGradient id="paint8_linear_6_161" x1="396.304" y1="224.869" x2="395.304" y2="224.869" gradientUnits="userSpaceOnUse">
<stop stop-color="#239CFF"/>
<stop offset="1" stop-color="#005BE3"/>
</linearGradient>
<linearGradient id="paint9_linear_6_161" x1="412.449" y1="224.869" x2="411.449" y2="224.869" gradientUnits="userSpaceOnUse">
<stop stop-color="#239CFF"/>
<stop offset="1" stop-color="#005BE3"/>
</linearGradient>
<linearGradient id="paint10_linear_6_161" x1="428.595" y1="224.869" x2="427.595" y2="224.869" gradientUnits="userSpaceOnUse">
<stop stop-color="#239CFF"/>
<stop offset="1" stop-color="#005BE3"/>
</linearGradient>
<linearGradient id="paint11_linear_6_161" x1="444.74" y1="224.869" x2="443.74" y2="224.869" gradientUnits="userSpaceOnUse">
<stop stop-color="#239CFF"/>
<stop offset="1" stop-color="#005BE3"/>
</linearGradient>
<linearGradient id="paint12_linear_6_161" x1="460.885" y1="224.869" x2="459.885" y2="224.869" gradientUnits="userSpaceOnUse">
<stop stop-color="#239CFF"/>
<stop offset="1" stop-color="#005BE3"/>
</linearGradient>
<linearGradient id="paint13_linear_6_161" x1="477.03" y1="224.869" x2="476.03" y2="224.869" gradientUnits="userSpaceOnUse">
<stop stop-color="#239CFF"/>
<stop offset="1" stop-color="#005BE3"/>
</linearGradient>
<linearGradient id="paint14_linear_6_161" x1="493.176" y1="224.869" x2="492.176" y2="224.869" gradientUnits="userSpaceOnUse">
<stop stop-color="#239CFF"/>
<stop offset="1" stop-color="#005BE3"/>
</linearGradient>
<linearGradient id="paint15_linear_6_161" x1="72.9747" y1="224.869" x2="71.9747" y2="224.869" gradientUnits="userSpaceOnUse">
<stop stop-color="#239CFF"/>
<stop offset="1" stop-color="#005BE3"/>
</linearGradient>
<linearGradient id="paint16_linear_6_161" x1="88.9338" y1="224.869" x2="87.9338" y2="224.869" gradientUnits="userSpaceOnUse">
<stop stop-color="#239CFF"/>
<stop offset="1" stop-color="#005BE3"/>
</linearGradient>
<linearGradient id="paint17_linear_6_161" x1="104.893" y1="224.869" x2="103.893" y2="224.869" gradientUnits="userSpaceOnUse">
<stop stop-color="#239CFF"/>
<stop offset="1" stop-color="#005BE3"/>
</linearGradient>
<linearGradient id="paint18_linear_6_161" x1="120.852" y1="224.869" x2="119.852" y2="224.869" gradientUnits="userSpaceOnUse">
<stop stop-color="#239CFF"/>
<stop offset="1" stop-color="#005BE3"/>
</linearGradient>
<linearGradient id="paint19_linear_6_161" x1="136.812" y1="224.869" x2="135.812" y2="224.869" gradientUnits="userSpaceOnUse">
<stop stop-color="#239CFF"/>
<stop offset="1" stop-color="#005BE3"/>
</linearGradient>
<linearGradient id="paint20_linear_6_161" x1="152.771" y1="224.869" x2="151.771" y2="224.869" gradientUnits="userSpaceOnUse">
<stop stop-color="#239CFF"/>
<stop offset="1" stop-color="#005BE3"/>
</linearGradient>
<linearGradient id="paint21_linear_6_161" x1="168.73" y1="224.869" x2="167.73" y2="224.869" gradientUnits="userSpaceOnUse">
<stop stop-color="#239CFF"/>
<stop offset="1" stop-color="#005BE3"/>
</linearGradient>
<linearGradient id="paint22_linear_6_161" x1="184.689" y1="224.869" x2="183.689" y2="224.869" gradientUnits="userSpaceOnUse">
<stop stop-color="#239CFF"/>
<stop offset="1" stop-color="#005BE3"/>
</linearGradient>
<linearGradient id="paint23_linear_6_161" x1="200.649" y1="224.869" x2="199.649" y2="224.869" gradientUnits="userSpaceOnUse">
<stop stop-color="#239CFF"/>
<stop offset="1" stop-color="#005BE3"/>
</linearGradient>
<linearGradient id="paint24_linear_6_161" x1="216.608" y1="224.869" x2="215.608" y2="224.869" gradientUnits="userSpaceOnUse">
<stop stop-color="#239CFF"/>
<stop offset="1" stop-color="#005BE3"/>
</linearGradient>
<linearGradient id="paint25_linear_6_161" x1="232.567" y1="224.869" x2="231.567" y2="224.869" gradientUnits="userSpaceOnUse">
<stop stop-color="#239CFF"/>
<stop offset="1" stop-color="#005BE3"/>
</linearGradient>
<linearGradient id="paint26_linear_6_161" x1="248.334" y1="224.869" x2="247.334" y2="224.869" gradientUnits="userSpaceOnUse">
<stop stop-color="#239CFF"/>
<stop offset="1" stop-color="#005BE3"/>
</linearGradient>
<linearGradient id="paint27_linear_6_161" x1="264.101" y1="224.869" x2="263.101" y2="224.869" gradientUnits="userSpaceOnUse">
<stop stop-color="#239CFF"/>
<stop offset="1" stop-color="#005BE3"/>
</linearGradient>
<linearGradient id="paint28_linear_6_161" x1="279.868" y1="224.869" x2="278.868" y2="224.869" gradientUnits="userSpaceOnUse">
<stop stop-color="#239CFF"/>
<stop offset="1" stop-color="#005BE3"/>
</linearGradient>
<linearGradient id="paint29_linear_6_161" x1="295.635" y1="224.869" x2="294.635" y2="224.869" gradientUnits="userSpaceOnUse">
<stop stop-color="#239CFF"/>
<stop offset="1" stop-color="#005BE3"/>
</linearGradient>
<linearGradient id="paint30_linear_6_161" x1="311.401" y1="224.869" x2="310.401" y2="224.869" gradientUnits="userSpaceOnUse">
<stop stop-color="#239CFF"/>
<stop offset="1" stop-color="#005BE3"/>
</linearGradient>
<linearGradient id="paint31_linear_6_161" x1="327.168" y1="224.869" x2="326.168" y2="224.869" gradientUnits="userSpaceOnUse">
<stop stop-color="#239CFF"/>
<stop offset="1" stop-color="#005BE3"/>
</linearGradient>
<linearGradient id="paint32_linear_6_161" x1="258.935" y1="0" x2="258.935" y2="320.196" gradientUnits="userSpaceOnUse">
<stop stop-color="#239CFF"/>
<stop offset="1" stop-color="#005BE3"/>
</linearGradient>
<clipPath id="clip0_6_161">
<rect width="517.87" height="320.196" rx="22.7358" fill="white"/>
</clipPath>
</defs>
</svg>
