<svg width="599" height="354" viewBox="0 0 599 354" fill="none" xmlns="http://www.w3.org/2000/svg">
<g clip-path="url(#clip0_6_134)">
<rect width="517.87" height="319.248" rx="22.7358" transform="matrix(0.996195 -0.0871557 0.258819 0.965926 0 44.8106)" fill="white"/>
<path opacity="0.8" d="M37.6846 74.3154C36.9095 74.3832 36.1947 74.3109 35.5402 74.0984C34.8832 73.8762 34.3282 73.5352 33.8753 73.0753C33.4224 72.6155 33.1084 72.0586 32.9331 71.4046L34.5186 71.2659C34.628 71.6359 34.8102 71.9696 35.065 72.267C35.3272 72.5537 35.6493 72.7753 36.0312 72.9317C36.4205 73.0774 36.8618 73.1287 37.3551 73.0855C37.7779 73.0486 38.1219 72.9485 38.3873 72.7855C38.6628 72.6215 38.8496 72.4154 38.9479 72.167C39.0436 71.9089 39.0496 71.6237 38.9659 71.3114C38.8691 70.9502 38.7038 70.66 38.4699 70.4407C38.236 70.2215 37.9535 70.0514 37.6223 69.9305C37.2986 69.799 36.9298 69.6914 36.5159 69.6078C36.1121 69.5232 35.6855 69.4307 35.2362 69.3302C34.33 69.1397 33.6144 68.8527 33.0892 68.4691C32.5741 68.0846 32.2263 67.5557 32.0459 66.8822C31.8916 66.3063 31.8991 65.7962 32.0685 65.3519C32.2353 64.8977 32.539 64.5315 32.9795 64.2532C33.4275 63.9643 33.9988 63.7895 34.6934 63.7287C35.3779 63.6688 36.0095 63.7384 36.5883 63.9375C37.1671 64.1366 37.6599 64.4381 38.0669 64.842C38.4739 65.246 38.7546 65.7359 38.9089 66.3117L37.3083 66.4518C37.2377 66.1882 37.098 65.9357 36.889 65.6943C36.6801 65.4528 36.4138 65.2664 36.0901 65.1349C35.7638 64.9936 35.3943 64.941 34.9815 64.9771C34.6367 64.9973 34.344 65.0778 34.1036 65.2188C33.8632 65.3597 33.6976 65.549 33.6067 65.7867C33.5159 66.0244 33.5123 66.2994 33.596 66.6117C33.6797 66.9241 33.8131 67.1721 33.9963 67.3559C34.1869 67.529 34.4314 67.6724 34.7297 67.7862C35.0281 67.8999 35.3641 68.0004 35.7377 68.0876C36.1188 68.1641 36.539 68.2522 36.9984 68.3519C37.5664 68.472 38.0843 68.6364 38.5524 68.8452C39.0278 69.0434 39.4324 69.3226 39.7659 69.6831C40.1068 70.0328 40.3558 70.5005 40.5127 71.0861C40.6487 71.5937 40.6397 72.079 40.4856 72.542C40.3315 73.005 40.0256 73.4013 39.5679 73.7311C39.1076 74.051 38.4798 74.2458 37.6846 74.3154ZM44.1012 76.8706L44.8757 72.6673L44.4378 72.7056L39.6755 66.4095L41.3063 66.2668L45.1278 71.4166L46.0928 65.848L47.6783 65.7093L45.6866 76.7319L44.1012 76.8706ZM52.9632 72.9787C52.3189 73.035 51.7278 72.9819 51.1897 72.8192C50.6515 72.6565 50.1919 72.402 49.8106 72.0558C49.4294 71.7095 49.1419 71.2902 48.9481 70.7977L50.4883 70.6629C50.6014 70.8928 50.7545 71.0991 50.9478 71.282C51.1511 71.464 51.3942 71.6026 51.6773 71.6977C51.9704 71.7919 52.2931 71.8236 52.6454 71.7928C52.9776 71.7637 53.2376 71.696 53.4255 71.5897C53.6208 71.4727 53.7479 71.3317 53.8067 71.1667C53.8629 70.992 53.8661 70.8119 53.8164 70.6265C53.7432 70.3532 53.6178 70.1544 53.4403 70.03C53.2702 69.8951 53.0388 69.8005 52.7461 69.7461C52.4608 69.6812 52.1228 69.6309 51.732 69.5951C51.364 69.5674 51.0008 69.5192 50.6425 69.4507C50.2916 69.3715 49.9644 69.2653 49.6608 69.132C49.3673 68.9979 49.1137 68.8203 48.8999 68.5992C48.6835 68.3684 48.5283 68.0773 48.4341 67.726C48.3217 67.3063 48.3367 66.9204 48.4793 66.5682C48.6193 66.2064 48.8759 65.9142 49.249 65.6918C49.6295 65.4587 50.1117 65.3166 50.6956 65.2655C51.5411 65.1916 52.2729 65.3273 52.8909 65.6728C53.5089 66.0183 53.9587 66.5434 54.2402 67.248L52.7755 67.3761C52.6463 67.0478 52.4273 66.8072 52.1185 66.6544C51.8071 66.4919 51.435 66.4295 51.0021 66.4674C50.5693 66.5053 50.2593 66.6173 50.0723 66.8035C49.8852 66.9897 49.8283 67.2194 49.9015 67.4927C49.9486 67.6684 50.0559 67.8188 50.2233 67.944C50.3908 68.0692 50.6135 68.1696 50.8913 68.2452C51.1765 68.3102 51.5159 68.3654 51.9092 68.4109C52.4689 68.4618 52.9797 68.542 53.4418 68.6514C53.9038 68.7608 54.2985 68.946 54.626 69.2071C54.9535 69.4681 55.1879 69.8622 55.3291 70.3892C55.4621 70.8471 55.4499 71.2627 55.2923 71.6361C55.1449 72.0086 54.8708 72.3123 54.4702 72.5471C54.0796 72.7811 53.5772 72.9249 52.9632 72.9787ZM59.9107 72.191C59.4275 72.2333 58.9902 72.1966 58.5986 72.0811C58.2071 71.9655 57.8699 71.7452 57.5871 71.4204C57.3043 71.0955 57.0844 70.6402 56.9275 70.0546L55.9115 66.2626L54.5978 66.3776L54.2644 65.1331L55.578 65.0182L55.2649 63.1576L56.5937 63.0414L57.088 64.8861L59.2472 64.6972L59.5807 65.9416L57.4214 66.1305L58.4414 69.9371C58.5539 70.3568 58.7216 70.6368 58.9446 70.7772C59.1651 70.9077 59.4967 70.9536 59.9397 70.9149L60.8154 70.8382L61.1489 72.0827L59.9107 72.191ZM65.5688 71.8758C64.844 71.9392 64.1566 71.8345 63.5066 71.5618C62.8566 71.289 62.2934 70.8788 61.8169 70.3311C61.3506 69.7825 61.0154 69.1276 60.8114 68.3662C60.6022 67.5854 60.5764 66.8934 60.7342 66.2902C60.8994 65.6764 61.2207 65.1838 61.6981 64.8124C62.1729 64.4312 62.7828 64.208 63.5277 64.1429C64.2726 64.0777 64.9549 64.1828 65.5748 64.4582C66.1946 64.7337 66.7224 65.127 67.1581 65.6383C67.5913 66.1398 67.8942 66.7127 68.0668 67.3569C68.0929 67.4545 68.1167 67.5623 68.138 67.6803C68.1668 67.7877 68.1944 67.9101 68.221 68.0476L62 68.5919L61.7214 67.5524L66.4627 67.1376C66.2677 66.5253 65.9282 66.0656 65.4441 65.7583C64.9573 65.4413 64.422 65.3083 63.8382 65.3594C63.4255 65.3955 63.0728 65.5212 62.7802 65.7366C62.4851 65.9423 62.2789 66.23 62.1616 66.5999C62.0518 66.9591 62.0675 67.4023 62.2088 67.9293L62.3186 68.3393C62.4651 68.8859 62.69 69.3407 62.9933 69.7037C63.3041 70.0561 63.6567 70.315 64.0513 70.4802C64.4432 70.6357 64.8405 70.6959 65.2432 70.6606C65.7264 70.6184 66.0965 70.4811 66.3537 70.2488C66.6108 70.0165 66.7678 69.7181 66.8246 69.3535L68.3346 69.2214C68.324 69.6819 68.2111 70.1063 67.9958 70.4947C67.7779 70.8734 67.4649 71.1855 67.0568 71.431C66.6587 71.6756 66.1627 71.8239 65.5688 71.8758ZM70.2192 71.2892L68.242 63.9102L69.601 63.7913L69.9852 64.8216C70.1248 64.4198 70.3672 64.0939 70.7123 63.844C71.0574 63.594 71.4816 63.447 71.9849 63.403C72.3674 63.3695 72.7291 63.3928 73.0699 63.4729C73.4082 63.5432 73.7255 63.6702 74.022 63.8541C74.3185 64.0379 74.5828 64.2745 74.8149 64.5639C74.9716 64.1106 75.2438 63.7422 75.6314 63.4585C76.029 63.174 76.4846 63.0093 76.998 62.9644C77.612 62.9107 78.1732 62.9864 78.6815 63.1917C79.1872 63.3872 79.6198 63.7139 79.9795 64.172C80.3366 64.6202 80.6093 65.1957 80.7976 65.8985L81.9666 70.2614L80.4718 70.3922L79.3419 66.1756C79.1589 65.4924 78.8743 64.9879 78.4882 64.662C78.1122 64.3353 77.6474 64.1962 77.0937 64.2446C76.7213 64.2772 76.4139 64.399 76.1717 64.61C75.9295 64.821 75.7699 65.1096 75.6929 65.476C75.626 65.8415 75.6605 66.278 75.7965 66.7855L76.8479 70.7092L75.3379 70.8413L74.2081 66.6248C74.025 65.9416 73.7405 65.437 73.3544 65.1112C72.9784 64.7845 72.5136 64.6453 71.9599 64.6938C71.6076 64.7246 71.3103 64.8455 71.0681 65.0565C70.8258 65.2675 70.6662 65.5561 70.5893 65.9225C70.5123 66.2888 70.5418 66.7258 70.6778 67.2333L71.7291 71.157L70.2192 71.2892ZM86.6488 69.8518L83.9027 59.6032L87.5115 59.2875C88.357 59.2135 89.0882 59.2894 89.705 59.5152C90.3219 59.7409 90.8226 60.0717 91.2072 60.5075C91.5919 60.9434 91.8626 61.4541 92.0196 62.0397C92.1686 62.5961 92.1751 63.12 92.0389 63.6114C91.9102 64.0921 91.6119 64.4978 91.1442 64.8284C90.6738 65.1493 90.0108 65.3471 89.1552 65.422L87.0564 65.6056L88.1587 69.7196L86.6488 69.8518ZM86.7308 64.3904L88.7692 64.2121C89.5644 64.1425 90.0837 63.9273 90.3269 63.5663C90.5777 63.1948 90.6285 62.7308 90.4794 62.1745C90.3199 61.5791 90.0258 61.1353 89.5973 60.8432C89.1788 60.5501 88.5719 60.4384 87.7767 60.508L85.7382 60.6863L86.7308 64.3904ZM94.8904 69.1307L92.9132 61.7518L94.2722 61.6329L94.7807 63.0119C94.8629 62.665 95.0099 62.3675 95.2215 62.1192C95.4305 61.8612 95.6992 61.6529 96.0276 61.4943C96.3661 61.3348 96.7719 61.2344 97.245 61.193L97.6608 62.7449L97.1172 62.7925C96.8052 62.8198 96.5187 62.8848 96.2577 62.9875C95.9942 63.0805 95.7752 63.2245 95.6008 63.4196C95.4365 63.6138 95.3345 63.8674 95.2948 64.1806C95.2551 64.4937 95.2954 64.8748 95.4157 65.3238L96.4003 68.9986L94.8904 69.1307ZM103.351 68.5703C102.636 68.6329 101.949 68.5282 101.289 68.2563C100.638 67.9835 100.07 67.5737 99.5837 67.0269C99.1047 66.4695 98.7632 65.8101 98.5592 65.0488C98.35 64.2679 98.3343 63.575 98.5122 62.9701C98.6875 62.3554 99.0188 61.8619 99.5063 61.4896C99.9938 61.1173 100.595 60.8999 101.31 60.8374C102.034 60.774 102.722 60.8787 103.372 61.1514C104.022 61.4242 104.585 61.8344 105.061 62.3821C105.548 62.9289 105.896 63.5928 106.105 64.3736C106.314 65.1544 106.33 65.8473 106.152 66.4523C105.984 67.0563 105.657 67.5445 105.169 67.9168C104.682 68.2891 104.075 68.5069 103.351 68.5703ZM103.013 67.3112C103.426 67.2751 103.772 67.1449 104.052 66.9207C104.342 66.6955 104.537 66.3838 104.636 65.9855C104.743 65.5766 104.719 65.0842 104.565 64.5083C104.411 63.9325 104.182 63.463 103.878 63.1C103.572 62.7272 103.222 62.4581 102.828 62.2929C102.443 62.1267 102.05 62.0613 101.647 62.0965C101.244 62.1317 100.898 62.2619 100.608 62.4871C100.318 62.7122 100.12 63.0292 100.013 63.4382C99.9136 63.8364 99.9411 64.3235 100.095 64.8994C100.25 65.4752 100.48 65.9496 100.786 66.3224C101.099 66.6845 101.448 66.9487 101.833 67.1148C102.227 67.2801 102.621 67.3456 103.013 67.3112ZM111.112 67.7115C110.628 67.7538 110.191 67.7171 109.8 67.6016C109.408 67.486 109.071 67.2657 108.788 66.9409C108.505 66.616 108.285 66.1607 108.128 65.5751L107.112 61.7832L105.799 61.8981L105.465 60.6536L106.779 60.5387L106.466 58.6781L107.795 58.5619L108.289 60.4066L110.448 60.2177L110.782 61.4621L108.622 61.651L109.642 65.4576C109.755 65.8773 109.922 66.1573 110.146 66.2977C110.366 66.4282 110.698 66.4741 111.141 66.4354L112.016 66.3587L112.35 67.6032L111.112 67.7115ZM116.77 67.3963C116.045 67.4597 115.358 67.355 114.707 67.0823C114.057 66.8095 113.494 66.3993 113.018 65.8516C112.551 65.303 112.216 64.6481 112.012 63.8867C111.803 63.1059 111.777 62.4139 111.935 61.8107C112.1 61.1969 112.422 60.7043 112.899 60.3329C113.374 59.9517 113.984 59.7285 114.729 59.6634C115.473 59.5982 116.156 59.7033 116.776 59.9788C117.395 60.2542 117.923 60.6475 118.359 61.1588C118.792 61.6603 119.095 62.2332 119.268 62.8774C119.294 62.975 119.318 63.0828 119.339 63.2008C119.368 63.3082 119.395 63.4306 119.422 63.5681L113.201 64.1124L112.922 63.0729L117.664 62.6581C117.469 62.0458 117.129 61.5861 116.645 61.2788C116.158 60.9618 115.623 60.8288 115.039 60.8799C114.626 60.916 114.274 61.0417 113.981 61.2571C113.686 61.4628 113.48 61.7505 113.363 62.1204C113.253 62.4796 113.268 62.9228 113.41 63.4498L113.52 63.8598C113.666 64.4064 113.891 64.8612 114.194 65.2242C114.505 65.5766 114.858 65.8355 115.252 66.0007C115.644 66.1562 116.041 66.2164 116.444 66.1811C116.927 66.1389 117.297 66.0016 117.555 65.7693C117.812 65.5371 117.969 65.2386 118.026 64.874L119.535 64.7419C119.525 65.2024 119.412 65.6268 119.197 66.0152C118.979 66.3939 118.666 66.706 118.258 66.9515C117.86 67.1961 117.364 67.3444 116.77 67.3963ZM124.985 66.6775C124.251 66.7418 123.553 66.638 122.893 66.3661C122.23 66.0845 121.656 65.6702 121.169 65.1234C120.693 64.5758 120.353 63.9213 120.149 63.1599C119.942 62.3889 119.923 61.7013 120.09 61.0972C120.266 60.4825 120.597 59.9891 121.084 59.6168C121.569 59.2347 122.179 59.0115 122.914 58.9472C123.84 58.8662 124.678 59.0327 125.428 59.4466C126.177 59.8605 126.745 60.4601 127.131 61.2455L125.56 61.3829C125.344 60.9622 125.024 60.6506 124.599 60.4481C124.184 60.2446 123.73 60.1645 123.236 60.2077C122.834 60.2429 122.489 60.378 122.201 60.6129C121.911 60.838 121.713 61.1551 121.606 61.564C121.507 61.9622 121.533 62.4444 121.685 63.0105C121.797 63.4302 121.958 63.8007 122.168 64.122C122.375 64.4336 122.609 64.6928 122.871 64.8996C123.142 65.1056 123.43 65.2553 123.733 65.3487C124.034 65.4322 124.335 65.4608 124.637 65.4344C124.969 65.4053 125.253 65.3306 125.488 65.2101C125.731 65.0789 125.916 64.9029 126.042 64.6821C126.179 64.4604 126.244 64.2049 126.239 63.9157L127.809 63.7783C127.847 64.5741 127.618 65.2385 127.122 65.7713C126.624 66.2945 125.911 66.5965 124.985 66.6775ZM132.598 65.8317C132.115 65.874 131.677 65.8374 131.286 65.7218C130.894 65.6062 130.557 65.386 130.274 65.0611C129.991 64.7362 129.771 64.2809 129.615 63.6953L128.598 59.9034L127.285 60.0183L126.951 58.7738L128.265 58.6589L127.952 56.7983L129.281 56.6821L129.775 58.5268L131.934 58.3379L132.268 59.5823L130.108 59.7713L131.128 63.5778C131.241 63.9975 131.409 64.2775 131.632 64.4179C131.852 64.5484 132.184 64.5943 132.627 64.5556L133.502 64.479L133.836 65.7234L132.598 65.8317ZM135.078 65.6147L133.101 58.2358L134.611 58.1037L136.588 65.4826L135.078 65.6147ZM133.498 56.7776C133.206 56.8031 132.941 56.7364 132.703 56.5774C132.475 56.4176 132.324 56.201 132.251 55.9277C132.18 55.6642 132.213 55.4416 132.35 55.2598C132.494 55.0674 132.712 54.9584 133.004 54.9328C133.286 54.9082 133.546 54.9753 133.784 55.1343C134.02 55.2835 134.173 55.4898 134.244 55.7534C134.317 56.0267 134.282 56.2595 134.137 56.4519C133.993 56.6444 133.78 56.7529 133.498 56.7776ZM141.663 65.2184C140.949 65.2809 140.261 65.1763 139.601 64.9044C138.951 64.6316 138.383 64.2218 137.896 63.675C137.417 63.1175 137.076 62.4582 136.872 61.6968C136.663 60.916 136.647 60.2231 136.825 59.6182C137 59.0035 137.331 58.51 137.819 58.1377C138.306 57.7654 138.908 57.548 139.622 57.4855C140.347 57.4221 141.034 57.5267 141.684 57.7995C142.334 58.0723 142.898 58.4825 143.374 59.0302C143.861 59.577 144.208 60.2408 144.418 61.0217C144.627 61.8025 144.643 62.4954 144.465 63.1003C144.297 63.7044 143.969 64.1926 143.482 64.5648C142.994 64.9371 142.388 65.155 141.663 65.2184ZM141.326 63.9593C141.739 63.9232 142.085 63.793 142.365 63.5687C142.655 63.3436 142.849 63.0319 142.949 62.6336C143.056 62.2247 143.032 61.7323 142.878 61.1564C142.723 60.5806 142.494 60.1111 142.191 59.7481C141.885 59.3752 141.535 59.1062 141.14 58.9409C140.756 58.7748 140.362 58.7093 139.96 58.7446C139.557 58.7798 139.211 58.91 138.921 59.1351C138.631 59.3603 138.432 59.6773 138.326 60.0862C138.226 60.4845 138.254 60.9716 138.408 61.5474C138.562 62.1233 138.792 62.5977 139.098 62.9705C139.412 63.3326 139.761 63.5968 140.145 63.7629C140.54 63.9282 140.933 63.9937 141.326 63.9593ZM146.578 64.6086L144.601 57.2297L145.96 57.1108L146.388 58.3619C146.512 57.9016 146.762 57.5251 147.136 57.2326C147.509 56.9303 147.982 56.7541 148.556 56.7039C149.16 56.6511 149.709 56.7228 150.205 56.9192C150.701 57.1156 151.133 57.4423 151.503 57.8995C151.87 58.3468 152.149 58.9268 152.34 59.6393L153.509 64.0022L151.999 64.1343L150.869 59.9178C150.686 59.2346 150.392 58.7309 149.985 58.4068C149.579 58.0828 149.079 57.9467 148.485 57.9987C148.093 58.033 147.765 58.1566 147.503 58.3693C147.238 58.5723 147.057 58.8579 146.96 59.226C146.873 59.5932 146.897 60.0306 147.033 60.5381L148.088 64.4765L146.578 64.6086Z" fill="black"/>
<path d="M52.6856 119.962L57.4036 110.608L58.1844 109.715L58.1628 109.635C57.9701 109.761 57.6011 109.917 57.0557 110.102C56.538 110.285 55.864 110.413 55.0335 110.485C53.1234 110.652 51.2469 110.363 49.404 109.618C47.561 108.873 45.9676 107.79 44.6236 106.369C43.3074 104.946 42.4083 103.335 41.9264 101.537C41.4302 99.6846 41.4615 97.9512 42.0204 96.3364C42.5794 94.7217 43.6122 93.3952 45.1188 92.3568C46.6183 91.2917 48.4892 90.661 50.7314 90.4648C52.946 90.2711 55.0476 90.5542 57.0361 91.3142C59.0451 92.045 60.7426 93.1464 62.1287 94.6184C63.5075 96.0636 64.4451 97.7122 64.9413 99.5643C65.2578 100.745 65.3732 101.916 65.2878 103.078C65.2228 104.21 65.005 105.3 64.6344 106.349C64.2638 107.398 63.7764 108.539 63.1721 109.773C63.1455 109.885 63.1051 109.999 63.0508 110.114C62.9893 110.201 62.9315 110.303 62.8772 110.417L58.3743 119.464L52.6856 119.962ZM54.9172 106.086C56.1629 105.977 57.2055 105.639 58.0449 105.071C58.8844 104.503 59.4556 103.78 59.7586 102.902C60.0544 101.997 60.0621 101.021 59.7816 99.9745C59.5011 98.9277 58.9864 98.0112 58.2375 97.2252C57.4814 96.4123 56.5541 95.8066 55.4558 95.4082C54.3574 95.0099 53.1854 94.8652 51.9397 94.9741C50.694 95.0831 49.6514 95.4216 48.812 95.9895C47.9726 96.5574 47.4049 97.2938 47.1091 98.1988C46.8061 99.0769 46.7949 100.039 47.0754 101.086C47.3558 102.133 47.8741 103.063 48.6303 103.876C49.3792 104.662 50.3028 105.254 51.4012 105.652C52.4995 106.051 53.6715 106.195 54.9172 106.086ZM77.0986 117.826L81.8166 108.472L82.5974 107.579L82.5758 107.499C82.3831 107.626 82.0141 107.781 81.4687 107.966C80.951 108.149 80.2769 108.277 79.4465 108.349C77.5364 108.517 75.6599 108.227 73.8169 107.482C71.974 106.737 70.3806 105.654 69.0366 104.233C67.7203 102.81 66.8213 101.199 66.3394 99.4007C65.8431 97.5487 65.8745 95.8153 66.4334 94.2006C66.9924 92.5859 68.0252 91.2593 69.5318 90.221C71.0313 89.1558 72.9021 88.5251 75.1444 88.329C77.359 88.1352 79.4606 88.4183 81.4491 89.1784C83.4581 89.9091 85.1556 91.0105 86.5417 92.4825C87.9205 93.9277 88.858 95.5764 89.3543 97.4284C89.6707 98.6094 89.7862 99.7806 89.7007 100.942C89.6357 102.074 89.418 103.164 89.0474 104.213C88.6768 105.262 88.1894 106.403 87.5851 107.637C87.5585 107.75 87.5181 107.863 87.4638 107.978C87.4023 108.065 87.3444 108.167 87.2902 108.281L82.7873 117.328L77.0986 117.826ZM79.3302 103.951C80.5759 103.842 81.6185 103.503 82.4579 102.935C83.2974 102.367 83.8686 101.644 84.1716 100.766C84.4674 99.8613 84.4751 98.8854 84.1946 97.8386C83.9141 96.7918 83.3994 95.8754 82.6505 95.0893C81.8943 94.2764 80.9671 93.6708 79.8688 93.2724C78.7704 92.874 77.5984 92.7293 76.3527 92.8383C75.107 92.9473 74.0644 93.2857 73.225 93.8536C72.3856 94.4215 71.8179 95.158 71.5221 96.0629C71.2191 96.941 71.2078 97.9035 71.4883 98.9503C71.7688 99.9971 72.2871 100.927 73.0432 101.74C73.7922 102.526 74.7158 103.118 75.8141 103.517C76.9125 103.915 78.0845 104.06 79.3302 103.951ZM98.9743 116.53C98.1439 116.603 97.3799 116.395 96.6824 115.907C95.9849 115.418 95.5283 114.772 95.3125 113.966C95.0968 113.161 95.1938 112.466 95.6036 111.881C96.0134 111.295 96.6335 110.966 97.464 110.894C98.2945 110.821 99.0585 111.029 99.756 111.517C100.453 112.006 100.91 112.652 101.126 113.458C101.342 114.263 101.245 114.958 100.835 115.543C100.425 116.129 99.8048 116.458 98.9743 116.53ZM103.037 115.557L101.828 111.048L109.745 103.638C111.104 102.366 112.139 101.259 112.85 100.318C113.588 99.3738 114.074 98.4385 114.308 97.5116C114.541 96.5846 114.51 95.5709 114.215 94.4704C113.964 93.531 113.519 92.7183 112.882 92.0323C112.245 91.3464 111.457 90.8384 110.519 90.5084C109.573 90.1516 108.561 90.0204 107.481 90.1149C105.82 90.2602 104.631 90.845 103.914 91.8692C103.197 92.8934 102.893 94.0874 103.004 95.4513L97.8135 95.9054C97.6167 94.2195 97.7466 92.6423 98.2031 91.1739C98.6872 89.703 99.5857 88.4569 100.899 87.4355C102.239 86.4117 104.031 85.8017 106.273 85.6056C108.349 85.4239 110.301 85.6789 112.13 86.3705C113.951 87.0353 115.495 88.0402 116.762 89.3853C118.022 90.7036 118.882 92.2216 119.343 93.9394C119.76 95.4962 119.857 96.9162 119.634 98.1993C119.432 99.4532 118.945 100.65 118.174 101.788C117.43 102.925 116.396 104.142 115.072 105.439C114.907 105.563 114.759 105.7 114.629 105.848C114.492 105.97 114.355 106.092 114.217 106.214L110.397 109.721L109.292 110.353L109.335 110.514L110.839 110.259L123.421 109.158L124.629 113.668L103.037 115.557ZM130.14 113.186L140.028 83.4765L144.181 83.1132L134.293 112.822L130.14 113.186ZM148.726 111.972C147.453 112.083 146.197 111.891 144.959 111.395C143.742 110.869 142.678 110.125 141.768 109.16C140.879 108.167 140.272 107.066 139.948 105.858C139.618 104.624 139.62 103.47 139.956 102.396C140.312 101.294 140.937 100.401 141.831 99.7187C142.745 99.0069 143.839 98.5953 145.112 98.4839C146.358 98.3749 147.589 98.5831 148.807 99.1084C150.044 99.6044 151.108 100.349 151.998 101.343C152.908 102.307 153.528 103.406 153.859 104.641C154.183 105.849 154.166 107.004 153.81 108.107C153.474 109.18 152.849 110.073 151.935 110.784C151.041 111.467 149.972 111.863 148.726 111.972ZM147.809 108.549C148.75 108.467 149.457 108.089 149.928 107.416C150.392 106.716 150.498 105.897 150.246 104.957C149.987 103.991 149.457 103.227 148.655 102.665C147.845 102.077 146.97 101.824 146.029 101.906C145.088 101.988 144.385 102.38 143.921 103.08C143.45 103.753 143.344 104.572 143.603 105.539C143.854 106.478 144.385 107.242 145.194 107.83C145.996 108.392 146.868 108.632 147.809 108.549ZM129.209 97.8149C127.963 97.9239 126.721 97.7304 125.484 97.2343C124.266 96.709 123.203 95.9642 122.293 94.9999C121.403 94.0064 120.793 92.8923 120.462 91.6576C120.138 90.4497 120.144 89.3092 120.48 88.2359C120.836 87.1334 121.461 86.2409 122.355 85.5584C123.269 84.8465 124.349 84.4362 125.595 84.3272C126.841 84.2182 128.072 84.4263 129.289 84.9517C130.527 85.4477 131.591 86.1925 132.48 87.186C133.39 88.1503 134.007 89.2364 134.331 90.4442C134.662 91.6789 134.649 92.8475 134.293 93.9501C133.957 95.0233 133.332 95.9158 132.418 96.6276C131.524 97.3102 130.455 97.7059 129.209 97.8149ZM128.292 94.3927C129.233 94.3103 129.939 93.9326 130.411 93.2596C130.875 92.5597 130.977 91.7266 130.718 90.7603C130.467 89.8208 129.94 89.0703 129.138 88.5087C128.328 87.9202 127.453 87.6671 126.512 87.7494C125.571 87.8318 124.868 88.2229 124.404 88.9228C123.933 89.5958 123.823 90.4021 124.075 91.3415C124.333 92.3078 124.868 93.0852 125.677 93.6737C126.479 94.2354 127.351 94.475 128.292 94.3927Z" fill="url(#paint0_linear_6_134)"/>
<path opacity="0.8" d="M75.0221 225.387L72.276 215.138L78.8443 214.563L79.166 215.764L74.1077 216.207L74.9982 219.53L79.2261 219.16L79.5399 220.331L75.312 220.701L76.5321 225.254L75.0221 225.387ZM82.5265 224.73L80.5493 217.351L81.9082 217.232L82.4168 218.611C82.499 218.264 82.646 217.967 82.8576 217.719C83.0666 217.461 83.3353 217.252 83.6637 217.094C84.0022 216.934 84.408 216.834 84.8811 216.792L85.2969 218.344L84.7533 218.392C84.4413 218.419 84.1548 218.484 83.8938 218.587C83.6303 218.68 83.4113 218.824 83.2369 219.019C83.0726 219.213 82.9706 219.467 82.9309 219.78C82.8912 220.093 82.9314 220.474 83.0518 220.923L84.0364 224.598L82.5265 224.73ZM90.2567 224.234C89.6326 224.288 89.0867 224.231 88.6191 224.062C88.1514 223.893 87.7712 223.647 87.4783 223.323C87.1828 222.989 86.9815 222.622 86.8743 222.222C86.7435 221.734 86.7632 221.308 86.9334 220.943C87.101 220.569 87.4015 220.268 87.835 220.04C88.2685 219.812 88.8225 219.669 89.4969 219.61L91.4749 219.437C91.3599 219.008 91.199 218.657 90.9923 218.385C90.7856 218.114 90.533 217.921 90.2347 217.807C89.9438 217.683 89.6021 217.638 89.2095 217.672C88.7565 217.712 88.3977 217.853 88.1331 218.096C87.8659 218.329 87.747 218.654 87.7763 219.071L86.2664 219.203C86.1881 218.681 86.2516 218.226 86.4569 217.838C86.6695 217.44 86.9913 217.122 87.4222 216.885C87.8505 216.637 88.3364 216.49 88.88 216.442C89.5947 216.38 90.2263 216.45 90.7749 216.651C91.3234 216.853 91.7787 217.168 92.1406 217.596C92.5099 218.013 92.777 218.529 92.9417 219.144L94.1657 223.712L92.8521 223.827L92.3978 222.593C92.3394 222.798 92.2582 222.995 92.1543 223.183C92.0504 223.372 91.9097 223.54 91.7323 223.685C91.565 223.829 91.3546 223.948 91.1011 224.04C90.8603 224.141 90.5788 224.205 90.2567 224.234ZM90.2258 223.023C90.548 222.994 90.8229 222.905 91.0506 222.756C91.2783 222.606 91.454 222.416 91.5777 222.185C91.7088 221.944 91.783 221.683 91.8004 221.401C91.8252 221.11 91.8034 220.817 91.735 220.523L91.7233 220.479L89.9264 220.636C89.4936 220.674 89.1556 220.759 88.9126 220.89C88.677 221.01 88.5224 221.164 88.4487 221.35C88.375 221.536 88.3695 221.747 88.4323 221.981C88.4976 222.225 88.6092 222.43 88.767 222.596C88.9323 222.751 89.1387 222.868 89.3863 222.946C89.634 223.024 89.9138 223.05 90.2258 223.023ZM98.3295 223.527C97.7356 223.579 97.1858 223.507 96.6801 223.312C96.1845 223.116 95.7531 222.794 95.386 222.346C95.0289 221.898 94.755 221.318 94.564 220.605L93.3911 216.228L94.901 216.096L96.0308 220.312C96.2165 221.005 96.5125 221.514 96.9187 221.838C97.3249 222.162 97.8199 222.298 98.4038 222.247C98.7963 222.213 99.1238 222.089 99.3862 221.876C99.6586 221.663 99.8384 221.372 99.9254 221.005C100.012 220.638 99.988 220.201 99.852 219.693L98.7967 215.755L100.307 215.623L102.284 223.002L100.94 223.119L100.497 221.869C100.386 222.338 100.143 222.719 99.7677 223.012C99.3928 223.304 98.9134 223.476 98.3295 223.527ZM107.177 222.753C106.452 222.817 105.768 222.707 105.126 222.423C104.48 222.13 103.925 221.709 103.458 221.161C102.999 220.601 102.67 219.951 102.472 219.209C102.27 218.458 102.243 217.781 102.391 217.178C102.549 216.575 102.86 216.083 103.325 215.703C103.797 215.312 104.396 215.085 105.12 215.022C105.714 214.97 106.269 215.041 106.785 215.236C107.298 215.42 107.737 215.712 108.101 216.109L106.947 211.805L108.457 211.673L111.282 222.214L109.923 222.333L109.466 221.204C109.375 221.442 109.236 221.674 109.05 221.9C108.86 222.116 108.612 222.303 108.303 222.46C107.995 222.617 107.619 222.715 107.177 222.753ZM107.077 221.458C107.55 221.417 107.939 221.273 108.244 221.027C108.549 220.78 108.744 220.453 108.831 220.046C108.928 219.638 108.907 219.176 108.768 218.658C108.63 218.141 108.409 217.701 108.105 217.338C107.809 216.964 107.452 216.686 107.032 216.503C106.609 216.31 106.161 216.234 105.688 216.276C105.235 216.315 104.858 216.463 104.555 216.719C104.25 216.966 104.05 217.293 103.953 217.701C103.854 218.099 103.873 218.557 104.012 219.074C104.15 219.592 104.373 220.037 104.679 220.41C104.985 220.782 105.348 221.06 105.767 221.243C106.187 221.426 106.624 221.498 107.077 221.458ZM116.077 221.795L113.331 211.546L117.242 211.204C117.977 211.14 118.622 211.203 119.178 211.394C119.732 211.576 120.183 211.856 120.532 212.235C120.888 212.603 121.133 213.036 121.266 213.534C121.405 214.051 121.405 214.496 121.268 214.868C121.131 215.239 120.897 215.539 120.567 215.768C120.244 215.986 119.87 216.129 119.445 216.196L119.617 216.031C120.083 216 120.538 216.085 120.984 216.286C121.426 216.477 121.809 216.753 122.133 217.114C122.456 217.476 122.68 217.886 122.802 218.344C122.944 218.872 122.941 219.361 122.794 219.814C122.645 220.256 122.346 220.622 121.898 220.911C121.45 221.2 120.854 221.377 120.109 221.442L116.077 221.795ZM117.262 220.447L119.587 220.244C120.251 220.186 120.726 219.995 121.01 219.67C121.301 219.335 121.373 218.894 121.227 218.347C121.083 217.811 120.777 217.398 120.308 217.109C119.849 216.82 119.288 216.704 118.623 216.762L116.328 216.963L117.262 220.447ZM116.026 215.836L118.261 215.64C118.895 215.585 119.34 215.401 119.597 215.089C119.85 214.767 119.909 214.352 119.773 213.845C119.642 213.357 119.373 212.986 118.965 212.732C118.554 212.468 118.017 212.365 117.352 212.423L115.163 212.615L116.026 215.836ZM124.673 221.043L121.848 210.501L123.358 210.369L126.183 220.911L124.673 221.043ZM131.172 220.654C130.457 220.716 129.77 220.612 129.11 220.34C128.46 220.067 127.892 219.657 127.405 219.11C126.926 218.553 126.585 217.894 126.381 217.132C126.171 216.352 126.156 215.659 126.334 215.054C126.509 214.439 126.84 213.946 127.328 213.573C127.815 213.201 128.416 212.984 129.131 212.921C129.856 212.858 130.543 212.962 131.193 213.235C131.843 213.508 132.406 213.918 132.883 214.466C133.369 215.013 133.717 215.676 133.926 216.457C134.136 217.238 134.151 217.931 133.973 218.536C133.806 219.14 133.478 219.628 132.991 220C132.503 220.373 131.897 220.591 131.172 220.654ZM130.835 219.395C131.247 219.359 131.594 219.229 131.874 219.004C132.164 218.779 132.358 218.467 132.458 218.069C132.564 217.66 132.541 217.168 132.386 216.592C132.232 216.016 132.003 215.547 131.7 215.184C131.394 214.811 131.044 214.542 130.649 214.376C130.265 214.21 129.871 214.145 129.468 214.18C129.066 214.215 128.719 214.345 128.429 214.571C128.14 214.796 127.941 215.113 127.834 215.522C127.735 215.92 127.763 216.407 127.917 216.983C128.071 217.559 128.301 218.033 128.607 218.406C128.921 218.768 129.27 219.032 129.654 219.198C130.049 219.364 130.442 219.429 130.835 219.395ZM139.653 219.912C138.918 219.976 138.22 219.872 137.56 219.601C136.897 219.319 136.323 218.905 135.836 218.358C135.36 217.81 135.02 217.156 134.816 216.394C134.609 215.623 134.59 214.936 134.758 214.332C134.933 213.717 135.264 213.223 135.752 212.851C136.236 212.469 136.846 212.246 137.581 212.182C138.507 212.101 139.345 212.267 140.095 212.681C140.844 213.095 141.412 213.695 141.798 214.48L140.227 214.617C140.012 214.197 139.691 213.885 139.266 213.683C138.851 213.479 138.397 213.399 137.903 213.442C137.501 213.477 137.156 213.612 136.868 213.847C136.579 214.072 136.38 214.39 136.273 214.798C136.174 215.197 136.2 215.679 136.352 216.245C136.464 216.665 136.625 217.035 136.835 217.356C137.042 217.668 137.277 217.927 137.538 218.134C137.81 218.34 138.097 218.49 138.4 218.583C138.701 218.667 139.002 218.695 139.304 218.669C139.636 218.64 139.92 218.565 140.156 218.444C140.399 218.313 140.583 218.137 140.71 217.917C140.846 217.695 140.911 217.439 140.906 217.15L142.476 217.013C142.514 217.809 142.285 218.473 141.79 219.006C141.291 219.529 140.579 219.831 139.653 219.912ZM149.073 218.908L144.487 215.174L146.764 211.558L148.591 211.398L145.863 215.638L145.569 214.54L150.975 218.742L149.073 218.908ZM144.286 219.327L141.462 208.785L142.972 208.653L145.796 219.195L144.286 219.327ZM154.56 218.608C153.835 218.671 153.148 218.566 152.498 218.294C151.848 218.021 151.284 217.611 150.808 217.063C150.342 216.514 150.006 215.86 149.802 215.098C149.593 214.317 149.567 213.625 149.725 213.022C149.89 212.408 150.212 211.916 150.689 211.544C151.164 211.163 151.774 210.94 152.519 210.875C153.264 210.81 153.946 210.915 154.566 211.19C155.186 211.466 155.713 211.859 156.149 212.37C156.582 212.872 156.885 213.445 157.058 214.089C157.084 214.186 157.108 214.294 157.129 214.412C157.158 214.52 157.185 214.642 157.212 214.78L150.991 215.324L150.712 214.284L155.454 213.87C155.259 213.257 154.919 212.798 154.435 212.49C153.948 212.173 153.413 212.04 152.829 212.091C152.416 212.127 152.064 212.253 151.771 212.469C151.476 212.674 151.27 212.962 151.153 213.332C151.043 213.691 151.058 214.134 151.2 214.661L151.31 215.071C151.456 215.618 151.681 216.073 151.984 216.436C152.295 216.788 152.648 217.047 153.042 217.212C153.434 217.368 153.831 217.428 154.234 217.393C154.717 217.35 155.087 217.213 155.345 216.981C155.602 216.749 155.759 216.45 155.816 216.085L157.326 215.953C157.315 216.414 157.202 216.838 156.987 217.227C156.769 217.605 156.456 217.917 156.048 218.163C155.65 218.408 155.154 218.556 154.56 218.608ZM162.64 217.901C161.915 217.964 161.231 217.854 160.588 217.571C159.943 217.278 159.388 216.857 158.921 216.308C158.462 215.749 158.133 215.099 157.935 214.357C157.733 213.605 157.706 212.928 157.854 212.326C158.012 211.723 158.323 211.231 158.788 210.851C159.26 210.46 159.858 210.233 160.583 210.169C161.177 210.117 161.732 210.189 162.248 210.383C162.761 210.568 163.2 210.859 163.564 211.257L162.41 206.953L163.92 206.821L166.745 217.362L165.386 217.481L164.929 216.352C164.838 216.59 164.699 216.822 164.513 217.048C164.323 217.264 164.075 217.451 163.766 217.608C163.458 217.764 163.082 217.862 162.64 217.901ZM162.54 216.606C163.013 216.565 163.402 216.421 163.707 216.174C164.012 215.928 164.207 215.601 164.294 215.194C164.391 214.786 164.37 214.323 164.231 213.806C164.093 213.289 163.872 212.848 163.568 212.485C163.272 212.112 162.914 211.833 162.495 211.65C162.072 211.457 161.624 211.382 161.151 211.423C160.698 211.463 160.32 211.611 160.018 211.867C159.713 212.113 159.513 212.441 159.416 212.849C159.317 213.247 159.336 213.705 159.475 214.222C159.613 214.739 159.836 215.184 160.142 215.557C160.448 215.93 160.811 216.208 161.23 216.391C161.65 216.574 162.087 216.646 162.54 216.606Z" fill="black"/>
<path d="M86.0901 252.624L81.6761 236.151L82.9725 236.037L87.3865 252.511L86.0901 252.624ZM86.5257 251.146C85.5453 251.232 84.6293 251.139 83.7777 250.868C82.9261 250.597 82.2037 250.167 81.6104 249.579C81.0171 248.991 80.5984 248.266 80.3542 247.404L82.8117 247.189C82.929 247.626 83.1378 248.011 83.438 248.344C83.7478 248.662 84.1166 248.905 84.5443 249.072C84.9849 249.239 85.4762 249.298 86.018 249.251C86.4824 249.21 86.8638 249.106 87.1624 248.939C87.4705 248.759 87.6796 248.529 87.7898 248.251C87.9096 247.959 87.9209 247.631 87.8237 247.269C87.7131 246.856 87.5194 246.527 87.2426 246.283C86.9754 246.024 86.6425 245.817 86.2439 245.659C85.8453 245.502 85.4018 245.375 84.9135 245.277C84.4217 245.166 83.9026 245.051 83.3559 244.933C82.1913 244.676 81.2661 244.303 80.5802 243.812C79.8909 243.309 79.4239 242.601 79.1793 241.688C78.9748 240.925 78.9859 240.252 79.2125 239.669C79.4392 239.086 79.8477 238.615 80.4381 238.256C81.038 237.884 81.783 237.658 82.6731 237.581C83.5761 237.502 84.4049 237.589 85.1595 237.843C85.927 238.096 86.5796 238.487 87.1175 239.016C87.6648 239.531 88.0489 240.176 88.2696 240.951L85.7928 241.167C85.6927 240.843 85.522 240.551 85.2805 240.29C85.0357 240.017 84.7286 239.807 84.3592 239.66C83.9993 239.5 83.5937 239.439 83.1421 239.479C82.7518 239.5 82.4202 239.593 82.1475 239.758C81.8843 239.909 81.6959 240.117 81.5824 240.383C81.4784 240.636 81.4749 240.943 81.5721 241.306C81.666 241.656 81.8221 241.943 82.0406 242.168C82.2687 242.378 82.5593 242.551 82.9124 242.687C83.2622 242.81 83.662 242.922 84.1117 243.023C84.5613 243.125 85.0531 243.235 85.5868 243.355C86.3146 243.509 86.9913 243.719 87.6169 243.984C88.252 244.236 88.7962 244.591 89.2494 245.051C89.7026 245.51 90.0331 246.128 90.2409 246.904C90.4219 247.579 90.4106 248.226 90.2069 248.846C89.9999 249.453 89.5966 249.968 88.9972 250.392C88.3945 250.803 87.5706 251.054 86.5257 251.146ZM92.361 250.405L91.9236 248.773C92.6103 248.034 93.2583 247.299 93.8675 246.567C94.4768 245.835 95.0104 245.116 95.4682 244.411C95.926 243.705 96.2517 243.024 96.4454 242.367C96.639 241.71 96.6587 241.093 96.5046 240.518C96.404 240.143 96.2392 239.799 96.0102 239.486C95.7811 239.173 95.485 238.93 95.1218 238.757C94.7714 238.583 94.3447 238.518 93.8416 238.562C93.3514 238.605 92.9607 238.748 92.6693 238.991C92.3909 239.233 92.2164 239.543 92.1459 239.92C92.0721 240.285 92.0955 240.693 92.2161 241.143L89.9715 241.339C89.7426 240.386 89.7426 239.574 89.9716 238.901C90.2006 238.228 90.615 237.705 91.2149 237.332C91.8115 236.947 92.5355 236.718 93.3869 236.643C94.3028 236.563 95.1268 236.657 95.859 236.926C96.5911 237.195 97.2101 237.608 97.7159 238.165C98.2217 238.723 98.5819 239.402 98.7964 240.202C98.9539 240.79 98.9937 241.382 98.9156 241.978C98.8472 242.56 98.685 243.137 98.4292 243.71C98.1701 244.27 97.856 244.823 97.487 245.367C97.1275 245.898 96.7436 246.411 96.3354 246.908C95.9238 247.392 95.5231 247.843 95.1335 248.261L101.19 247.731L101.688 249.589L92.361 250.405ZM107.537 249.308C106.659 249.384 105.819 249.304 105.017 249.067C104.21 248.818 103.504 248.399 102.898 247.812C102.301 247.212 101.861 246.431 101.577 245.47L103.861 245.27C103.991 245.707 104.201 246.098 104.492 246.444C104.792 246.776 105.158 247.032 105.589 247.212C106.017 247.38 106.495 247.44 107.024 247.394C107.527 247.35 107.928 247.219 108.226 247.001C108.537 246.781 108.739 246.501 108.832 246.16C108.926 245.819 108.919 245.449 108.811 245.048C108.681 244.561 108.451 244.171 108.122 243.88C107.79 243.576 107.389 243.361 106.92 243.236C106.451 243.111 105.945 243.072 105.403 243.119L104.397 243.207L103.899 241.35L104.905 241.262C105.615 241.2 106.154 240.992 106.521 240.64C106.886 240.276 106.986 239.787 106.822 239.174C106.684 238.661 106.399 238.263 105.967 237.981C105.548 237.698 105.022 237.584 104.39 237.639C103.732 237.697 103.26 237.93 102.974 238.339C102.7 238.747 102.618 239.228 102.727 239.782L100.443 239.981C100.271 239.19 100.295 238.49 100.515 237.882C100.744 237.26 101.146 236.764 101.72 236.394C102.294 236.024 103.02 235.8 103.897 235.724C104.813 235.644 105.629 235.732 106.345 235.99C107.06 236.247 107.65 236.624 108.113 237.121C108.59 237.617 108.911 238.178 109.079 238.803C109.21 239.291 109.232 239.744 109.146 240.161C109.059 240.578 108.885 240.939 108.624 241.244C108.372 241.534 108.043 241.762 107.638 241.925C108.168 241.981 108.665 242.136 109.129 242.39C109.606 242.643 110.014 242.985 110.354 243.416C110.704 243.833 110.957 244.336 111.115 244.924C111.306 245.637 111.303 246.315 111.106 246.96C110.919 247.591 110.525 248.118 109.926 248.542C109.339 248.964 108.543 249.22 107.537 249.308ZM113.467 250.92L113.343 246.246L115.607 246.048L114.996 250.786L113.467 250.92ZM123.676 247.665L123.008 245.17L116.293 245.757L115.81 243.956L119.828 234.56L122.46 234.33L124.782 242.998L126.621 242.837L127.149 244.807L125.31 244.968L125.979 247.464L123.676 247.665ZM118.261 243.569L122.615 243.188L120.956 236.996L118.261 243.569ZM134.528 246.946C133.303 247.053 132.176 246.864 131.148 246.378C130.116 245.879 129.226 245.144 128.477 244.173C127.738 243.188 127.188 242.02 126.826 240.669C126.464 239.318 126.379 238.116 126.572 237.062C126.775 235.994 127.239 235.141 127.965 234.501C128.688 233.849 129.663 233.469 130.888 233.362C132.101 233.256 133.216 233.453 134.235 233.953C135.263 234.439 136.147 235.174 136.886 236.159C137.635 237.131 138.19 238.292 138.552 239.643C138.914 240.994 138.994 242.203 138.791 243.27C138.598 244.324 138.14 245.177 137.417 245.829C136.704 246.468 135.741 246.84 134.528 246.946ZM133.966 244.921C134.649 244.862 135.205 244.621 135.634 244.199C136.059 243.765 136.318 243.18 136.41 242.442C136.516 241.703 136.437 240.839 136.172 239.851C135.907 238.863 135.531 238.025 135.043 237.338C134.568 236.65 134.016 236.142 133.387 235.813C132.754 235.471 132.096 235.33 131.412 235.39C130.728 235.45 130.174 235.697 129.749 236.131C129.32 236.553 129.053 237.133 128.948 237.872C128.855 238.609 128.941 239.472 129.206 240.461C129.471 241.449 129.84 242.287 130.315 242.975C130.803 243.662 131.363 244.176 131.996 244.518C132.625 244.847 133.282 244.981 133.966 244.921ZM143.432 245.937L140.601 235.374L138.363 236.184L137.895 234.439L140.841 232.722L142.292 232.595L145.812 245.728L143.432 245.937Z" fill="black"/>
<path opacity="0.8" d="M100.187 301.564C99.15 301.655 98.1953 301.514 97.3226 301.141C96.4574 300.757 95.7125 300.188 95.088 299.433C94.4709 298.668 94.0211 297.758 93.7386 296.704C93.4588 295.66 93.413 294.72 93.6012 293.884C93.7994 293.048 94.2122 292.377 94.8394 291.873C95.4741 291.358 96.3098 291.055 97.3467 290.964C98.5848 290.856 99.6636 291.056 100.583 291.565C101.512 292.073 102.223 292.84 102.714 293.866L101.053 294.011C100.74 293.42 100.298 292.964 99.7284 292.644C99.1686 292.323 98.491 292.198 97.6958 292.267C96.9811 292.33 96.4052 292.545 95.968 292.913C95.5309 293.281 95.2511 293.775 95.1288 294.395C95.0065 295.015 95.0565 295.74 95.2788 296.569C95.5011 297.399 95.8342 298.104 96.2782 298.685C96.7196 299.255 97.2452 299.679 97.855 299.955C98.4621 300.222 99.123 300.324 99.8377 300.261C100.633 300.192 101.216 299.966 101.588 299.584C101.967 299.191 102.152 298.69 102.144 298.082L103.804 297.936C103.865 298.97 103.585 299.809 102.964 300.452C102.351 301.085 101.425 301.456 100.187 301.564ZM105.751 300.898L102.927 290.356L104.437 290.224L105.606 294.587C105.742 294.136 105.999 293.769 106.377 293.486C106.765 293.202 107.23 293.037 107.774 292.989C108.378 292.936 108.929 293.013 109.427 293.219C109.923 293.415 110.35 293.742 110.71 294.201C111.067 294.649 111.341 295.229 111.532 295.942L112.697 300.29L111.202 300.421L110.076 296.219C109.893 295.536 109.604 295.032 109.207 294.707C108.809 294.372 108.312 294.23 107.718 294.282C107.316 294.318 106.978 294.442 106.706 294.656C106.433 294.869 106.25 295.165 106.155 295.543C106.058 295.911 106.078 296.349 106.214 296.856L107.261 300.766L105.751 300.898ZM116.593 300.129C115.969 300.184 115.423 300.126 114.955 299.958C114.488 299.789 114.107 299.542 113.814 299.218C113.519 298.884 113.318 298.517 113.21 298.117C113.08 297.629 113.099 297.203 113.27 296.838C113.437 296.464 113.738 296.163 114.171 295.936C114.605 295.708 115.159 295.564 115.833 295.505L117.811 295.332C117.696 294.903 117.535 294.552 117.328 294.281C117.122 294.009 116.869 293.816 116.571 293.703C116.28 293.578 115.938 293.533 115.546 293.568C115.093 293.607 114.734 293.749 114.469 293.991C114.202 294.225 114.083 294.55 114.112 294.967L112.602 295.099C112.524 294.576 112.588 294.121 112.793 293.734C113.006 293.335 113.327 293.018 113.758 292.78C114.187 292.533 114.673 292.385 115.216 292.338C115.931 292.275 116.562 292.345 117.111 292.547C117.66 292.748 118.115 293.063 118.477 293.491C118.846 293.908 119.113 294.424 119.278 295.039L120.502 299.607L119.188 299.722L118.734 298.488C118.676 298.693 118.594 298.89 118.49 299.079C118.387 299.268 118.246 299.435 118.068 299.58C117.901 299.725 117.691 299.843 117.437 299.935C117.196 300.036 116.915 300.101 116.593 300.129ZM116.562 298.918C116.884 298.89 117.159 298.801 117.387 298.651C117.614 298.501 117.79 298.311 117.914 298.08C118.045 297.839 118.119 297.578 118.137 297.297C118.161 297.005 118.14 296.712 118.071 296.418L118.059 296.374L116.263 296.532C115.83 296.57 115.492 296.654 115.249 296.785C115.013 296.906 114.859 297.059 114.785 297.245C114.711 297.432 114.706 297.642 114.768 297.876C114.834 298.12 114.945 298.325 115.103 298.491C115.268 298.646 115.475 298.763 115.722 298.842C115.97 298.92 116.25 298.945 116.562 298.918ZM121.825 299.491L119.848 292.112L121.207 291.994L121.716 293.372C121.798 293.026 121.945 292.728 122.156 292.48C122.365 292.222 122.634 292.014 122.962 291.855C123.301 291.695 123.707 291.595 124.18 291.554L124.596 293.106L124.052 293.153C123.74 293.18 123.453 293.245 123.193 293.348C122.929 293.441 122.71 293.585 122.536 293.78C122.371 293.974 122.269 294.228 122.23 294.541C122.19 294.854 122.23 295.235 122.35 295.684L123.335 299.359L121.825 299.491ZM130.815 302.181C130.121 302.242 129.483 302.208 128.903 302.079C128.325 301.959 127.843 301.737 127.456 301.411C127.07 301.085 126.809 300.669 126.673 300.161C126.603 299.897 126.591 299.624 126.639 299.34C126.689 299.066 126.817 298.795 127.024 298.527C127.23 298.259 127.539 298.008 127.949 297.772L128.972 298.357C128.508 298.587 128.219 298.837 128.106 299.107C128.006 299.385 127.988 299.646 128.053 299.89C128.132 300.183 128.288 300.419 128.521 300.599C128.755 300.778 129.041 300.903 129.379 300.973C129.727 301.043 130.103 301.06 130.505 301.024C130.898 300.99 131.226 300.906 131.489 300.774C131.752 300.641 131.938 300.47 132.047 300.26C132.156 300.051 132.175 299.815 132.104 299.551C132.02 299.239 131.829 298.986 131.53 298.792C131.233 298.608 130.738 298.527 130.043 298.548C129.458 298.559 128.956 298.548 128.535 298.515C128.124 298.481 127.764 298.427 127.456 298.354C127.159 298.281 126.898 298.193 126.676 298.093C126.463 297.992 126.274 297.883 126.109 297.768L126.019 297.431L127.125 295.791L128.458 296.094L127.208 297.717L127.349 297.03C127.478 297.089 127.602 297.148 127.721 297.207C127.837 297.257 127.988 297.299 128.172 297.333C128.356 297.367 128.599 297.39 128.902 297.404C129.204 297.417 129.597 297.423 130.081 297.421C130.778 297.409 131.358 297.479 131.821 297.628C132.293 297.776 132.667 297.998 132.942 298.294C133.217 298.59 133.412 298.952 133.527 299.382C133.639 299.801 133.626 300.212 133.486 300.614C133.357 301.015 133.073 301.359 132.635 301.647C132.207 301.934 131.6 302.112 130.815 302.181ZM129.297 296.515C128.653 296.571 128.073 296.502 127.557 296.308C127.051 296.112 126.624 295.825 126.275 295.446C125.937 295.066 125.702 294.632 125.571 294.144C125.438 293.646 125.434 293.192 125.561 292.781C125.696 292.36 125.958 292.012 126.348 291.738C126.736 291.455 127.247 291.285 127.881 291.23C128.515 291.174 129.086 291.249 129.595 291.454C130.11 291.649 130.538 291.936 130.876 292.316C131.223 292.686 131.462 293.119 131.596 293.617C131.727 294.105 131.725 294.56 131.59 294.981C131.466 295.401 131.209 295.748 130.819 296.022C130.438 296.295 129.931 296.46 129.297 296.515ZM128.983 295.344C129.477 295.301 129.836 295.144 130.063 294.875C130.287 294.595 130.335 294.217 130.207 293.738C130.078 293.26 129.836 292.912 129.478 292.693C129.119 292.465 128.692 292.373 128.199 292.416C127.705 292.459 127.342 292.621 127.108 292.901C126.871 293.171 126.817 293.546 126.945 294.024C127.073 294.502 127.322 294.855 127.692 295.082C128.06 295.3 128.49 295.387 128.983 295.344ZM129.476 292.454L128.804 291.329L131.929 291.055L132.2 292.066L129.476 292.454ZM138.012 298.255C137.287 298.318 136.6 298.214 135.95 297.941C135.3 297.668 134.737 297.258 134.26 296.71C133.794 296.162 133.459 295.507 133.255 294.745C133.045 293.965 133.02 293.273 133.177 292.669C133.343 292.056 133.664 291.563 134.141 291.192C134.616 290.81 135.226 290.587 135.971 290.522C136.716 290.457 137.398 290.562 138.018 290.837C138.638 291.113 139.166 291.506 139.601 292.017C140.035 292.519 140.337 293.092 140.51 293.736C140.536 293.834 140.56 293.941 140.581 294.059C140.61 294.167 140.638 294.289 140.664 294.427L134.443 294.971L134.165 293.932L138.906 293.517C138.711 292.904 138.371 292.445 137.887 292.137C137.401 291.82 136.865 291.687 136.281 291.739C135.869 291.775 135.516 291.9 135.224 292.116C134.928 292.321 134.722 292.609 134.605 292.979C134.495 293.338 134.511 293.781 134.652 294.308L134.762 294.718C134.908 295.265 135.133 295.72 135.437 296.083C135.747 296.435 136.1 296.694 136.495 296.859C136.887 297.015 137.284 297.075 137.686 297.04C138.17 296.998 138.54 296.86 138.797 296.628C139.054 296.396 139.211 296.097 139.268 295.733L140.778 295.601C140.767 296.061 140.654 296.485 140.439 296.874C140.221 297.253 139.908 297.565 139.5 297.81C139.102 298.055 138.606 298.203 138.012 298.255ZM146.862 297.481C146.449 297.517 146.056 297.491 145.682 297.404C145.321 297.326 144.989 297.2 144.685 297.027C144.381 296.854 144.11 296.648 143.87 296.409L144.021 297.549L142.662 297.668L139.838 287.127L141.348 286.995L142.505 291.314C142.647 290.922 142.901 290.58 143.266 290.288C143.638 289.986 144.146 289.807 144.791 289.75C145.515 289.687 146.2 289.802 146.846 290.095C147.488 290.378 148.039 290.8 148.498 291.359C148.964 291.908 149.298 292.558 149.499 293.309C149.696 294.041 149.716 294.714 149.561 295.327C149.416 295.939 149.111 296.435 148.646 296.815C148.181 297.195 147.587 297.417 146.862 297.481ZM146.279 296.228C146.742 296.188 147.121 296.045 147.416 295.799C147.721 295.553 147.921 295.225 148.018 294.817C148.125 294.408 148.109 293.945 147.97 293.428C147.832 292.911 147.606 292.471 147.292 292.109C146.986 291.736 146.624 291.458 146.204 291.275C145.791 291.081 145.353 291.005 144.89 291.045C144.417 291.087 144.03 291.235 143.727 291.492C143.433 291.737 143.237 292.064 143.14 292.472C143.041 292.87 143.06 293.328 143.199 293.845C143.338 294.363 143.56 294.808 143.866 295.181C144.172 295.553 144.53 295.832 144.939 296.016C145.359 296.199 145.806 296.269 146.279 296.228ZM154.212 296.838C153.588 296.892 153.042 296.835 152.574 296.666C152.107 296.497 151.726 296.251 151.433 295.927C151.138 295.593 150.937 295.226 150.829 294.826C150.699 294.338 150.718 293.912 150.889 293.547C151.056 293.173 151.357 292.872 151.79 292.644C152.224 292.417 152.778 292.273 153.452 292.214L155.43 292.041C155.315 291.612 155.154 291.261 154.947 290.99C154.741 290.718 154.488 290.525 154.19 290.411C153.899 290.287 153.557 290.242 153.165 290.276C152.712 290.316 152.353 290.457 152.088 290.7C151.821 290.933 151.702 291.258 151.731 291.675L150.221 291.808C150.143 291.285 150.207 290.83 150.412 290.442C150.625 290.044 150.946 289.726 151.377 289.489C151.806 289.242 152.292 289.094 152.835 289.047C153.55 288.984 154.181 289.054 154.73 289.255C155.279 289.457 155.734 289.772 156.096 290.2C156.465 290.617 156.732 291.133 156.897 291.748L158.121 296.316L156.807 296.431L156.353 295.197C156.295 295.402 156.213 295.599 156.109 295.788C156.006 295.976 155.865 296.144 155.687 296.289C155.52 296.434 155.31 296.552 155.056 296.644C154.815 296.745 154.534 296.809 154.212 296.838ZM154.181 295.627C154.503 295.598 154.778 295.51 155.006 295.36C155.233 295.21 155.409 295.02 155.533 294.789C155.664 294.548 155.738 294.287 155.756 294.006C155.78 293.714 155.759 293.421 155.69 293.127L155.678 293.083L153.882 293.24C153.449 293.278 153.111 293.363 152.868 293.494C152.632 293.614 152.478 293.768 152.404 293.954C152.33 294.14 152.325 294.351 152.387 294.585C152.453 294.829 152.564 295.034 152.722 295.2C152.887 295.355 153.094 295.472 153.341 295.55C153.589 295.629 153.869 295.654 154.181 295.627ZM163.009 296.068C162.275 296.132 161.577 296.028 160.917 295.757C160.254 295.475 159.68 295.061 159.193 294.514C158.717 293.966 158.377 293.312 158.173 292.55C157.966 291.779 157.947 291.092 158.114 290.488C158.29 289.873 158.621 289.379 159.109 289.007C159.593 288.625 160.203 288.402 160.938 288.338C161.864 288.257 162.702 288.423 163.452 288.837C164.201 289.251 164.769 289.851 165.155 290.636L163.584 290.773C163.369 290.353 163.048 290.041 162.623 289.839C162.208 289.635 161.754 289.555 161.26 289.598C160.858 289.633 160.513 289.768 160.225 290.003C159.935 290.228 159.737 290.546 159.63 290.954C159.531 291.353 159.557 291.835 159.709 292.401C159.821 292.821 159.982 293.191 160.192 293.512C160.399 293.824 160.634 294.083 160.895 294.29C161.167 294.496 161.454 294.646 161.757 294.739C162.058 294.823 162.359 294.851 162.661 294.825C162.993 294.796 163.277 294.721 163.513 294.6C163.756 294.469 163.94 294.293 164.066 294.073C164.203 293.851 164.268 293.595 164.263 293.306L165.833 293.169C165.871 293.965 165.642 294.629 165.146 295.162C164.648 295.685 163.936 295.987 163.009 296.068ZM172.43 295.064L167.844 291.33L170.121 287.714L171.948 287.554L169.22 291.794L168.926 290.696L174.332 294.898L172.43 295.064ZM167.643 295.483L164.819 284.941L166.329 284.809L169.153 295.351L167.643 295.483ZM177.581 294.793C176.936 294.85 176.345 294.796 175.807 294.634C175.269 294.471 174.809 294.217 174.428 293.87C174.047 293.524 173.759 293.105 173.566 292.612L175.106 292.477C175.219 292.707 175.372 292.914 175.565 293.097C175.768 293.279 176.012 293.417 176.295 293.512C176.588 293.606 176.911 293.638 177.263 293.607C177.595 293.578 177.855 293.511 178.043 293.404C178.238 293.287 178.365 293.146 178.424 292.981C178.48 292.807 178.484 292.626 178.434 292.441C178.361 292.168 178.235 291.969 178.058 291.845C177.888 291.71 177.656 291.615 177.363 291.561C177.078 291.496 176.74 291.445 176.349 291.41C175.981 291.382 175.618 291.334 175.26 291.265C174.909 291.186 174.582 291.08 174.278 290.947C173.985 290.812 173.731 290.635 173.517 290.414C173.301 290.183 173.146 289.892 173.052 289.54C172.939 289.121 172.954 288.735 173.097 288.383C173.237 288.021 173.493 287.729 173.866 287.506C174.247 287.273 174.729 287.131 175.313 287.08C176.159 287.006 176.89 287.142 177.508 287.487C178.126 287.833 178.576 288.358 178.858 289.062L177.393 289.191C177.264 288.862 177.045 288.622 176.736 288.469C176.425 288.306 176.052 288.244 175.62 288.282C175.187 288.32 174.877 288.432 174.69 288.618C174.503 288.804 174.446 289.034 174.519 289.307C174.566 289.483 174.673 289.633 174.841 289.759C175.008 289.884 175.231 289.984 175.509 290.06C175.794 290.125 176.133 290.18 176.527 290.225C177.086 290.276 177.597 290.356 178.059 290.466C178.521 290.575 178.916 290.761 179.243 291.022C179.571 291.283 179.805 291.677 179.947 292.204C180.08 292.662 180.067 293.077 179.91 293.451C179.762 293.823 179.488 294.127 179.088 294.362C178.697 294.596 178.195 294.739 177.581 294.793Z" fill="black"/>
<path d="M108.805 327.166L108.136 324.67L101.422 325.258L100.939 323.457L104.957 314.061L107.588 313.831L109.911 322.499L111.749 322.338L112.277 324.308L110.439 324.469L111.108 326.964L108.805 327.166ZM103.39 323.069L107.744 322.688L106.085 316.497L103.39 323.069Z" fill="black"/>
<path opacity="0.8" d="M205.462 213.975L202.716 203.726L205.963 203.442C207.191 203.335 208.264 203.456 209.182 203.805C210.099 204.154 210.853 204.697 211.442 205.435C212.038 206.162 212.478 207.053 212.76 208.107C213.043 209.161 213.09 210.086 212.901 210.881C212.723 211.676 212.287 212.319 211.594 212.809C210.909 213.288 209.947 213.582 208.709 213.691L205.462 213.975ZM206.643 212.613L208.319 212.466C209.295 212.381 210.029 212.157 210.519 211.794C211.009 211.432 211.297 210.952 211.385 210.355C211.48 209.747 211.42 209.043 211.205 208.243C210.988 207.433 210.675 206.746 210.267 206.182C209.868 205.618 209.34 205.204 208.683 204.942C208.025 204.68 207.208 204.592 206.232 204.677L204.556 204.824L206.643 212.613ZM215.373 213.108L213.396 205.729L214.906 205.597L216.883 212.975L215.373 213.108ZM213.793 204.27C213.501 204.296 213.236 204.229 212.998 204.07C212.769 203.91 212.619 203.694 212.545 203.421C212.475 203.157 212.508 202.934 212.645 202.753C212.789 202.56 213.007 202.451 213.299 202.426C213.581 202.401 213.841 202.468 214.079 202.627C214.315 202.776 214.468 202.983 214.539 203.246C214.612 203.519 214.576 203.752 214.432 203.945C214.288 204.137 214.075 204.246 213.793 204.27ZM221.429 212.757C220.785 212.814 220.194 212.761 219.656 212.598C219.118 212.435 218.658 212.181 218.277 211.835C217.896 211.488 217.608 211.069 217.414 210.576L218.955 210.442C219.068 210.672 219.221 210.878 219.414 211.061C219.617 211.243 219.861 211.381 220.144 211.476C220.437 211.571 220.759 211.602 221.112 211.572C221.444 211.542 221.704 211.475 221.892 211.368C222.087 211.251 222.214 211.11 222.273 210.946C222.329 210.771 222.332 210.591 222.283 210.405C222.21 210.132 222.084 209.933 221.907 209.809C221.736 209.674 221.505 209.579 221.212 209.525C220.927 209.46 220.589 209.41 220.198 209.374C219.83 209.346 219.467 209.298 219.109 209.229C218.758 209.15 218.431 209.044 218.127 208.911C217.834 208.777 217.58 208.599 217.366 208.378C217.15 208.147 216.995 207.856 216.9 207.505C216.788 207.085 216.803 206.699 216.946 206.347C217.086 205.985 217.342 205.693 217.715 205.471C218.096 205.237 218.578 205.095 219.162 205.044C220.007 204.97 220.739 205.106 221.357 205.452C221.975 205.797 222.425 206.322 222.706 207.027L221.242 207.155C221.113 206.827 220.894 206.586 220.585 206.433C220.273 206.271 219.901 206.208 219.468 206.246C219.036 206.284 218.726 206.396 218.539 206.582C218.352 206.768 218.295 206.998 218.368 207.271C218.415 207.447 218.522 207.598 218.69 207.723C218.857 207.848 219.08 207.948 219.358 208.024C219.643 208.089 219.982 208.144 220.376 208.19C220.935 208.241 221.446 208.321 221.908 208.43C222.37 208.54 222.765 208.725 223.092 208.986C223.42 209.247 223.654 209.641 223.795 210.168C223.928 210.626 223.916 211.041 223.759 211.415C223.611 211.787 223.337 212.091 222.936 212.326C222.546 212.56 222.044 212.704 221.429 212.757ZM226.409 215.438L223.569 204.839L224.928 204.72L225.385 205.848C225.486 205.61 225.631 205.382 225.82 205.166C226.007 204.94 226.249 204.749 226.547 204.593C226.856 204.436 227.236 204.338 227.689 204.298C228.414 204.235 229.094 204.35 229.729 204.644C230.374 204.937 230.926 205.364 231.385 205.923C231.852 206.471 232.184 207.117 232.383 207.858C232.582 208.6 232.603 209.278 232.448 209.89C232.291 210.494 231.979 210.985 231.515 211.366C231.06 211.745 230.47 211.966 229.745 212.03C229.152 212.082 228.598 212.015 228.085 211.831C227.569 211.636 227.125 211.345 226.754 210.958L227.919 215.306L226.409 215.438ZM229.163 210.777C229.626 210.737 230.004 210.594 230.299 210.348C230.604 210.102 230.805 209.775 230.902 209.366C231.008 208.958 230.992 208.494 230.854 207.977C230.715 207.46 230.489 207.02 230.176 206.658C229.87 206.285 229.507 206.007 229.087 205.824C228.675 205.631 228.237 205.554 227.774 205.594C227.301 205.636 226.913 205.785 226.611 206.041C226.316 206.286 226.12 206.613 226.024 207.021C225.924 207.42 225.944 207.877 226.082 208.395C226.221 208.912 226.443 209.357 226.749 209.73C227.055 210.103 227.413 210.381 227.823 210.565C228.243 210.748 228.689 210.819 229.163 210.777ZM237.367 211.363C236.773 211.415 236.223 211.343 235.718 211.148C235.222 210.951 234.791 210.63 234.424 210.182C234.067 209.734 233.793 209.154 233.602 208.441L232.429 204.063L233.939 203.931L235.068 208.148C235.254 208.841 235.55 209.349 235.956 209.673C236.362 209.998 236.858 210.134 237.441 210.083C237.834 210.049 238.161 209.925 238.424 209.712C238.696 209.499 238.876 209.208 238.963 208.841C239.05 208.474 239.026 208.036 238.89 207.529L237.834 203.591L239.344 203.458L241.321 210.837L239.978 210.955L239.534 209.705C239.423 210.174 239.18 210.555 238.805 210.848C238.43 211.14 237.951 211.312 237.367 211.363ZM245.925 210.435C245.442 210.477 245.005 210.44 244.613 210.325C244.222 210.209 243.885 209.989 243.602 209.664C243.319 209.339 243.099 208.884 242.942 208.298L241.926 204.506L240.613 204.621L240.279 203.377L241.593 203.262L241.28 201.401L242.608 201.285L243.103 203.13L245.262 202.941L245.595 204.185L243.436 204.374L244.456 208.181C244.569 208.6 244.736 208.88 244.959 209.021C245.18 209.151 245.511 209.197 245.954 209.158L246.83 209.082L247.164 210.326L245.925 210.435ZM251.584 210.119C250.859 210.183 250.171 210.078 249.521 209.805C248.871 209.532 248.308 209.122 247.832 208.575C247.365 208.026 247.03 207.371 246.826 206.61C246.617 205.829 246.591 205.137 246.749 204.534C246.914 203.92 247.235 203.427 247.713 203.056C248.188 202.675 248.798 202.452 249.542 202.386C250.287 202.321 250.97 202.426 251.59 202.702C252.209 202.977 252.737 203.371 253.173 203.882C253.606 204.383 253.909 204.956 254.082 205.6C254.108 205.698 254.131 205.806 254.153 205.924C254.182 206.031 254.209 206.154 254.236 206.291L248.015 206.835L247.736 205.796L252.477 205.381C252.282 204.769 251.943 204.309 251.459 204.002C250.972 203.685 250.437 203.552 249.853 203.603C249.44 203.639 249.088 203.765 248.795 203.98C248.5 204.186 248.294 204.474 248.176 204.843C248.067 205.203 248.082 205.646 248.224 206.173L248.333 206.583C248.48 207.129 248.705 207.584 249.008 207.947C249.319 208.3 249.671 208.558 250.066 208.724C250.458 208.879 250.855 208.939 251.258 208.904C251.741 208.862 252.111 208.725 252.368 208.492C252.626 208.26 252.783 207.962 252.839 207.597L254.349 207.465C254.339 207.925 254.226 208.35 254.011 208.738C253.793 209.117 253.48 209.429 253.072 209.674C252.673 209.919 252.177 210.067 251.584 210.119ZM259.225 209.451C258.581 209.507 257.99 209.454 257.452 209.291C256.914 209.129 256.454 208.874 256.073 208.528C255.692 208.182 255.404 207.762 255.21 207.27L256.751 207.135C256.864 207.365 257.017 207.571 257.21 207.754C257.413 207.936 257.656 208.075 257.94 208.17C258.233 208.264 258.555 208.296 258.908 208.265C259.24 208.236 259.5 208.168 259.688 208.062C259.883 207.945 260.01 207.804 260.069 207.639C260.125 207.464 260.128 207.284 260.079 207.099C260.005 206.825 259.88 206.626 259.703 206.502C259.532 206.367 259.301 206.273 259.008 206.218C258.723 206.153 258.385 206.103 257.994 206.067C257.626 206.039 257.263 205.991 256.905 205.923C256.554 205.844 256.227 205.737 255.923 205.604C255.63 205.47 255.376 205.292 255.162 205.071C254.946 204.84 254.791 204.549 254.696 204.198C254.584 203.778 254.599 203.392 254.742 203.04C254.882 202.678 255.138 202.386 255.511 202.164C255.892 201.931 256.374 201.789 256.958 201.738C257.803 201.664 258.535 201.799 259.153 202.145C259.771 202.49 260.221 203.015 260.502 203.72L259.038 203.848C258.909 203.52 258.69 203.279 258.381 203.126C258.069 202.964 257.697 202.902 257.264 202.939C256.832 202.977 256.522 203.089 256.335 203.276C256.147 203.462 256.091 203.691 256.164 203.965C256.211 204.14 256.318 204.291 256.486 204.416C256.653 204.541 256.876 204.642 257.154 204.717C257.439 204.782 257.778 204.837 258.171 204.883C258.731 204.934 259.242 205.014 259.704 205.123C260.166 205.233 260.561 205.418 260.888 205.679C261.216 205.94 261.45 206.334 261.591 206.861C261.724 207.319 261.712 207.735 261.555 208.108C261.407 208.481 261.133 208.784 260.732 209.019C260.342 209.253 259.839 209.397 259.225 209.451ZM268.836 208.43L263.221 198.433L264.837 198.291L269.268 206.639L269.442 197.888L271.118 197.742L275.799 206.098L275.678 197.343L277.294 197.201L277.126 207.705L275.359 207.859L270.803 199.912L270.557 208.28L268.836 208.43ZM283.599 207.318C282.885 207.381 282.197 207.276 281.537 207.004C280.887 206.731 280.319 206.322 279.832 205.775C279.353 205.217 279.012 204.558 278.808 203.797C278.599 203.016 278.583 202.323 278.761 201.718C278.936 201.103 279.267 200.61 279.755 200.238C280.242 199.865 280.844 199.648 281.558 199.585C282.283 199.522 282.97 199.627 283.62 199.899C284.27 200.172 284.834 200.582 285.31 201.13C285.797 201.677 286.144 202.341 286.354 203.122C286.563 203.902 286.579 204.595 286.401 205.2C286.233 205.804 285.905 206.292 285.418 206.665C284.93 207.037 284.324 207.255 283.599 207.318ZM283.262 206.059C283.675 206.023 284.021 205.893 284.301 205.669C284.591 205.443 284.785 205.132 284.885 204.733C284.992 204.325 284.968 203.832 284.814 203.256C284.659 202.68 284.43 202.211 284.127 201.848C283.821 201.475 283.471 201.206 283.076 201.041C282.692 200.875 282.298 200.809 281.896 200.844C281.493 200.88 281.147 201.01 280.857 201.235C280.567 201.46 280.368 201.777 280.262 202.186C280.162 202.584 280.19 203.071 280.344 203.647C280.498 204.223 280.728 204.698 281.034 205.07C281.348 205.433 281.697 205.697 282.081 205.863C282.476 206.028 282.869 206.094 283.262 206.059ZM288.514 206.708L286.537 199.33L287.896 199.211L288.324 200.462C288.448 200.001 288.698 199.625 289.072 199.333C289.445 199.03 289.918 198.854 290.492 198.804C291.096 198.751 291.645 198.823 292.141 199.019C292.637 199.215 293.069 199.542 293.439 199.999C293.806 200.447 294.085 201.027 294.276 201.739L295.445 206.102L293.935 206.234L292.805 202.018C292.622 201.334 292.328 200.831 291.921 200.507C291.515 200.183 291.015 200.047 290.421 200.099C290.029 200.133 289.701 200.256 289.439 200.469C289.174 200.672 288.993 200.958 288.896 201.326C288.809 201.693 288.833 202.13 288.969 202.638L290.024 206.576L288.514 206.708Z" fill="black"/>
<path d="M214.212 239.744L211.382 229.181L209.143 229.991L208.676 228.247L211.622 226.529L213.073 226.402L216.592 239.536L214.212 239.744ZM223.283 239.181C222.367 239.261 221.499 239.177 220.68 238.929C219.858 238.668 219.15 238.269 218.558 237.732C217.974 237.181 217.577 236.512 217.366 235.724C217.225 235.199 217.191 234.702 217.264 234.235C217.337 233.768 217.51 233.356 217.784 232.999C218.055 232.63 218.407 232.343 218.841 232.138C218.135 231.919 217.53 231.581 217.025 231.126C216.53 230.657 216.2 230.117 216.036 229.504C215.865 228.866 215.883 228.269 216.091 227.713C216.298 227.157 216.694 226.687 217.278 226.303C217.874 225.918 218.663 225.683 219.643 225.597C220.623 225.511 221.493 225.602 222.251 225.868C223.009 226.135 223.632 226.516 224.121 227.01C224.61 227.505 224.94 228.072 225.111 228.71C225.272 229.31 225.234 229.883 224.997 230.429C224.77 230.96 224.376 231.385 223.814 231.703C224.348 231.823 224.834 232.037 225.273 232.344C225.725 232.65 226.108 233.02 226.422 233.453C226.745 233.873 226.978 234.345 227.118 234.871C227.33 235.659 227.295 236.366 227.014 236.992C226.729 237.606 226.263 238.107 225.615 238.497C224.976 238.873 224.199 239.101 223.283 239.181ZM222.775 237.286C223.627 237.212 224.211 236.956 224.53 236.518C224.858 236.067 224.938 235.529 224.771 234.903C224.583 234.203 224.207 233.685 223.642 233.351C223.086 233.002 222.409 232.863 221.609 232.933C220.809 233.003 220.222 233.253 219.849 233.682C219.485 234.098 219.397 234.657 219.585 235.357C219.752 235.982 220.111 236.482 220.66 236.857C221.219 237.217 221.924 237.361 222.775 237.286ZM221.151 231.226C221.848 231.165 222.343 230.942 222.636 230.558C222.939 230.161 223.018 229.693 222.874 229.155C222.71 228.542 222.384 228.091 221.897 227.8C221.419 227.496 220.832 227.375 220.136 227.436C219.439 227.497 218.936 227.714 218.627 228.086C218.327 228.445 218.259 228.931 218.423 229.544C218.571 230.095 218.885 230.528 219.366 230.844C219.86 231.16 220.455 231.287 221.151 231.226ZM229.096 240.516L229.514 223.524L231.778 223.326L231.36 240.318L229.096 240.516ZM238.383 237.63L235.553 227.066L233.314 227.877L232.847 226.132L235.793 224.415L237.244 224.288L240.763 237.421L238.383 237.63ZM247.299 237.08C246.383 237.16 245.558 237.059 244.822 236.778C244.096 236.483 243.477 236.07 242.965 235.539C242.45 234.995 242.073 234.401 241.834 233.756L243.982 233.568C244.255 234.146 244.636 234.58 245.123 234.87C245.619 235.147 246.19 235.257 246.835 235.2C247.429 235.148 247.899 234.934 248.247 234.558C248.592 234.17 248.801 233.62 248.875 232.91C248.958 232.185 248.872 231.297 248.616 230.244C248.61 230.219 248.601 230.188 248.591 230.15C248.581 230.113 248.571 230.075 248.561 230.038C248.461 230.405 248.276 230.747 248.005 231.066C247.733 231.384 247.387 231.644 246.967 231.848C246.559 232.05 246.09 232.174 245.561 232.22C244.813 232.286 244.058 232.179 243.297 231.9C242.545 231.607 241.884 231.159 241.313 230.556C240.742 229.954 240.341 229.221 240.11 228.357C239.899 227.569 239.896 226.821 240.102 226.112C240.308 225.402 240.711 224.81 241.31 224.335C241.909 223.86 242.673 223.582 243.601 223.501C244.62 223.412 245.52 223.519 246.301 223.822C247.095 224.124 247.781 224.563 248.358 225.14C248.931 225.704 249.409 226.353 249.791 227.088C250.185 227.822 250.488 228.582 250.699 229.37C251.088 230.821 251.215 232.11 251.081 233.235C250.96 234.359 250.58 235.257 249.941 235.927C249.315 236.596 248.434 236.981 247.299 237.08ZM245.59 230.259C246.081 230.216 246.492 230.078 246.826 229.844C247.169 229.596 247.408 229.281 247.543 228.898C247.674 228.502 247.68 228.079 247.559 227.629C247.432 227.154 247.203 226.745 246.874 226.402C246.541 226.047 246.148 225.787 245.695 225.622C245.251 225.443 244.777 225.376 244.274 225.42C243.771 225.464 243.354 225.609 243.024 225.856C242.694 226.102 242.462 226.417 242.327 226.8C242.201 227.17 242.202 227.592 242.33 228.067C242.46 228.555 242.684 228.971 243 229.314C243.33 229.657 243.715 229.911 244.155 230.077C244.609 230.243 245.087 230.303 245.59 230.259Z" fill="black"/>
<path opacity="0.8" d="M225.963 290.38L223.217 280.132L226.796 279.819C227.631 279.746 228.352 279.823 228.959 280.049C229.566 280.276 230.056 280.607 230.431 281.044C230.813 281.47 231.081 281.971 231.235 282.547C231.382 283.094 231.387 283.613 231.251 284.104C231.122 284.585 230.824 284.991 230.356 285.321C229.886 285.642 229.228 285.839 228.382 285.913L226.359 286.09L227.473 290.248L225.963 290.38ZM231.52 289.894L228.02 285.541L229.681 285.395L233.271 289.741L231.52 289.894ZM226.061 284.978L228.024 284.806C228.769 284.741 229.27 284.517 229.528 284.135C229.784 283.743 229.837 283.269 229.688 282.712C229.536 282.146 229.245 281.712 228.814 281.41C228.383 281.109 227.784 280.991 227.019 281.058L225.056 281.23L226.061 284.978ZM234.546 289.63L232.569 282.251L234.079 282.119L236.056 289.497L234.546 289.63ZM232.966 280.792C232.675 280.818 232.409 280.751 232.171 280.592C231.943 280.432 231.792 280.216 231.719 279.943C231.648 279.679 231.681 279.456 231.818 279.275C231.962 279.082 232.18 278.973 232.472 278.948C232.754 278.923 233.014 278.99 233.252 279.149C233.488 279.298 233.641 279.505 233.712 279.768C233.785 280.041 233.75 280.274 233.606 280.467C233.461 280.659 233.248 280.768 232.966 280.792ZM240.603 289.279C239.959 289.336 239.368 289.283 238.829 289.12C238.291 288.957 237.832 288.703 237.45 288.357C237.069 288.01 236.782 287.591 236.588 287.098L238.128 286.964C238.241 287.194 238.394 287.4 238.588 287.583C238.791 287.765 239.034 287.903 239.317 287.998C239.61 288.093 239.933 288.124 240.285 288.094C240.617 288.064 240.877 287.997 241.065 287.89C241.261 287.773 241.388 287.632 241.446 287.468C241.503 287.293 241.506 287.113 241.456 286.927C241.383 286.654 241.258 286.455 241.08 286.331C240.91 286.196 240.679 286.101 240.386 286.047C240.101 285.982 239.763 285.932 239.372 285.896C239.004 285.868 238.641 285.82 238.282 285.751C237.931 285.672 237.604 285.566 237.301 285.433C237.007 285.299 236.753 285.121 236.54 284.9C236.323 284.669 236.168 284.378 236.074 284.027C235.961 283.607 235.977 283.221 236.119 282.869C236.259 282.507 236.516 282.215 236.889 281.993C237.269 281.759 237.751 281.617 238.335 281.566C239.181 281.492 239.913 281.628 240.531 281.974C241.149 282.319 241.598 282.844 241.88 283.549L240.415 283.677C240.286 283.349 240.067 283.108 239.758 282.955C239.447 282.793 239.075 282.73 238.642 282.768C238.209 282.806 237.899 282.918 237.712 283.104C237.525 283.29 237.468 283.52 237.541 283.793C237.588 283.969 237.696 284.12 237.863 284.245C238.031 284.37 238.253 284.47 238.531 284.546C238.816 284.611 239.156 284.666 239.549 284.712C240.109 284.763 240.62 284.843 241.082 284.952C241.544 285.062 241.938 285.247 242.266 285.508C242.593 285.769 242.828 286.163 242.969 286.69C243.102 287.148 243.09 287.564 242.932 287.937C242.785 288.309 242.511 288.613 242.11 288.848C241.719 289.082 241.217 289.226 240.603 289.279ZM249.506 288.321L244.92 284.586L247.197 280.971L249.024 280.811L246.296 285.05L246.002 283.952L251.409 288.154L249.506 288.321ZM244.719 288.739L241.895 278.198L243.405 278.066L246.229 288.607L244.719 288.739ZM258.918 287.677C258.143 287.745 257.428 287.673 256.773 287.46C256.116 287.238 255.561 286.897 255.109 286.437C254.656 285.977 254.342 285.42 254.166 284.766L255.752 284.628C255.861 284.998 256.043 285.331 256.298 285.629C256.56 285.915 256.883 286.137 257.264 286.293C257.654 286.439 258.095 286.49 258.588 286.447C259.011 286.41 259.355 286.31 259.621 286.147C259.896 285.983 260.083 285.777 260.181 285.529C260.277 285.271 260.283 284.985 260.199 284.673C260.102 284.312 259.937 284.022 259.703 283.802C259.469 283.583 259.187 283.413 258.856 283.292C258.532 283.161 258.163 283.053 257.749 282.97C257.345 282.885 256.919 282.792 256.469 282.692C255.563 282.501 254.848 282.214 254.322 281.831C253.807 281.446 253.46 280.917 253.279 280.244C253.125 279.668 253.132 279.158 253.302 278.714C253.469 278.259 253.772 277.893 254.213 277.615C254.661 277.326 255.232 277.151 255.927 277.09C256.611 277.031 257.243 277.1 257.822 277.299C258.4 277.498 258.893 277.8 259.3 278.204C259.707 278.608 259.988 279.098 260.142 279.673L258.542 279.813C258.471 279.55 258.331 279.297 258.122 279.056C257.913 278.815 257.647 278.628 257.323 278.497C256.997 278.355 256.627 278.303 256.215 278.339C255.87 278.359 255.577 278.44 255.337 278.58C255.096 278.721 254.931 278.911 254.84 279.148C254.749 279.386 254.746 279.661 254.829 279.973C254.913 280.286 255.046 280.534 255.23 280.718C255.42 280.891 255.665 281.034 255.963 281.148C256.261 281.262 256.597 281.362 256.971 281.449C257.352 281.526 257.772 281.614 258.232 281.714C258.8 281.834 259.318 281.998 259.786 282.207C260.261 282.405 260.666 282.684 260.999 283.045C261.34 283.395 261.589 283.862 261.746 284.448C261.882 284.955 261.873 285.441 261.719 285.904C261.565 286.367 261.259 286.763 260.801 287.093C260.341 287.413 259.713 287.608 258.918 287.677ZM267.161 286.956C266.426 287.02 265.729 286.916 265.068 286.645C264.406 286.363 263.831 285.949 263.345 285.402C262.868 284.854 262.528 284.2 262.324 283.438C262.117 282.667 262.098 281.98 262.266 281.376C262.441 280.761 262.773 280.267 263.26 279.895C263.745 279.513 264.355 279.29 265.09 279.226C266.016 279.145 266.854 279.311 267.603 279.725C268.353 280.139 268.92 280.738 269.306 281.524L267.736 281.661C267.52 281.241 267.199 280.929 266.774 280.726C266.359 280.523 265.905 280.443 265.412 280.486C265.009 280.521 264.664 280.656 264.377 280.891C264.087 281.116 263.889 281.433 263.782 281.842C263.682 282.241 263.709 282.723 263.86 283.289C263.973 283.709 264.134 284.079 264.344 284.4C264.551 284.712 264.785 284.971 265.046 285.178C265.318 285.384 265.605 285.534 265.908 285.627C266.209 285.711 266.51 285.739 266.812 285.713C267.144 285.684 267.428 285.609 267.664 285.488C267.907 285.357 268.092 285.181 268.218 284.96C268.354 284.739 268.42 284.483 268.414 284.194L269.985 284.057C270.023 284.853 269.794 285.517 269.298 286.05C268.799 286.573 268.087 286.875 267.161 286.956ZM275.315 286.243C274.6 286.305 273.913 286.2 273.253 285.929C272.602 285.656 272.034 285.246 271.548 284.699C271.069 284.142 270.727 283.482 270.523 282.721C270.314 281.94 270.298 281.247 270.476 280.642C270.651 280.028 270.983 279.534 271.47 279.162C271.958 278.79 272.559 278.572 273.274 278.51C273.998 278.446 274.686 278.551 275.336 278.824C275.986 279.096 276.549 279.507 277.025 280.054C277.512 280.601 277.86 281.265 278.069 282.046C278.278 282.827 278.294 283.52 278.116 284.124C277.948 284.729 277.621 285.217 277.133 285.589C276.646 285.961 276.039 286.179 275.315 286.243ZM274.977 284.983C275.39 284.947 275.736 284.817 276.016 284.593C276.306 284.368 276.501 284.056 276.6 283.658C276.707 283.249 276.683 282.756 276.529 282.181C276.375 281.605 276.146 281.135 275.842 280.772C275.536 280.399 275.186 280.13 274.792 279.965C274.407 279.799 274.014 279.733 273.611 279.769C273.208 279.804 272.862 279.934 272.572 280.159C272.282 280.384 272.084 280.701 271.977 281.11C271.878 281.509 271.905 281.996 272.059 282.572C272.214 283.147 272.444 283.622 272.75 283.995C273.063 284.357 273.412 284.621 273.797 284.787C274.191 284.952 274.585 285.018 274.977 284.983ZM280.23 285.633L278.253 278.254L279.612 278.135L280.12 279.514C280.202 279.167 280.349 278.87 280.561 278.621C280.77 278.363 281.039 278.155 281.367 277.996C281.706 277.837 282.111 277.736 282.584 277.695L283 279.247L282.457 279.295C282.145 279.322 281.858 279.387 281.597 279.49C281.334 279.583 281.115 279.727 280.94 279.922C280.776 280.116 280.674 280.369 280.634 280.683C280.595 280.996 280.635 281.377 280.755 281.826L281.74 285.501L280.23 285.633ZM288.66 285.075C287.935 285.138 287.248 285.034 286.598 284.761C285.948 284.488 285.385 284.078 284.908 283.53C284.442 282.982 284.107 282.327 283.903 281.565C283.693 280.785 283.668 280.093 283.825 279.489C283.991 278.876 284.312 278.383 284.789 278.012C285.264 277.63 285.874 277.407 286.619 277.342C287.364 277.277 288.046 277.382 288.666 277.657C289.286 277.933 289.814 278.326 290.249 278.837C290.682 279.339 290.985 279.912 291.158 280.556C291.184 280.654 291.208 280.761 291.229 280.879C291.258 280.987 291.286 281.109 291.312 281.247L285.091 281.791L284.813 280.752L289.554 280.337C289.359 279.725 289.019 279.265 288.535 278.957C288.048 278.64 287.513 278.507 286.929 278.559C286.517 278.595 286.164 278.72 285.871 278.936C285.576 279.141 285.37 279.429 285.253 279.799C285.143 280.158 285.159 280.601 285.3 281.129L285.41 281.538C285.556 282.085 285.781 282.54 286.084 282.903C286.395 283.255 286.748 283.514 287.142 283.679C287.534 283.835 287.932 283.895 288.334 283.86C288.818 283.818 289.188 283.68 289.445 283.448C289.702 283.216 289.859 282.917 289.916 282.553L291.426 282.421C291.415 282.881 291.302 283.305 291.087 283.694C290.869 284.073 290.556 284.385 290.148 284.63C289.75 284.875 289.254 285.023 288.66 285.075Z" fill="black"/>
<path d="M232.985 316.301L229.466 303.168L231.788 302.965L234.834 314.334L240.872 313.806L241.344 315.57L232.985 316.301ZM246.927 315.312C245.998 315.393 245.104 315.26 244.245 314.913C243.396 314.552 242.66 314.021 242.036 313.32C241.422 312.606 240.986 311.767 240.728 310.804C240.463 309.816 240.445 308.934 240.673 308.159C240.898 307.371 241.322 306.739 241.947 306.262C242.581 305.771 243.363 305.485 244.291 305.404C245.22 305.323 246.109 305.462 246.959 305.823C247.817 306.171 248.552 306.695 249.163 307.397C249.786 308.098 250.23 308.942 250.495 309.93C250.76 310.919 250.778 311.8 250.55 312.576C250.322 313.351 249.891 313.984 249.257 314.474C248.632 314.952 247.855 315.231 246.927 315.312ZM246.409 313.379C246.873 313.339 247.262 313.19 247.576 312.932C247.903 312.673 248.122 312.308 248.233 311.837C248.345 311.367 248.312 310.8 248.134 310.137C247.957 309.474 247.693 308.934 247.343 308.516C247.004 308.085 246.61 307.774 246.163 307.583C245.728 307.39 245.279 307.314 244.814 307.355C244.363 307.395 243.974 307.544 243.647 307.803C243.32 308.062 243.101 308.427 242.99 308.897C242.875 309.355 242.906 309.916 243.084 310.579C243.261 311.242 243.527 311.788 243.88 312.218C244.232 312.648 244.626 312.959 245.06 313.152C245.508 313.343 245.957 313.419 246.409 313.379ZM254.856 314.388L249.458 305.182L251.761 304.981L255.835 312.574L255.404 312.592L255.553 304.649L258.146 304.422L262.467 311.975L262.042 312.012L261.958 304.089L264.261 303.887L263.931 313.594L261.532 313.804L257.005 306.001L257.489 305.958L257.255 314.178L254.856 314.388Z" fill="black"/>
<path d="M42.0441 201.72C50.1537 195.86 46.3781 194.098 60.9655 190.231C85.9278 183.614 62.3333 141.962 88.7505 139.571C108.367 137.796 113.853 162.037 131.855 155.934C150.646 149.564 170.962 186.229 188.835 178.108C202.508 171.895 200.208 168.21 215.127 164.57C227.208 161.621 235.837 173.493 248.839 173.795C300.466 174.991 209.116 48.5762 258.549 40.8991C309.207 33.0319 283.958 118.706 336.75 119.279C359.119 119.521 369.649 145.183 395.204 143.664C411.746 142.681 419.773 174.493 436.642 175.157C460.662 176.104 457.304 198.607 481.032 197.964C499.816 197.455 490.279 153.618 502.92 151.565C519.92 148.805 516.83 165.931 534.663 166.582C546.182 167.002 551.569 132.793 551.569 132.793" stroke="url(#paint1_linear_6_134)" stroke-width="3.7893" stroke-linecap="round"/>
<path opacity="0.1" d="M60.9655 190.231C46.3781 194.098 50.1537 195.86 42.0441 201.72L82.1202 351.286L598.02 306.151L551.569 132.793C551.569 132.793 546.182 167.002 534.663 166.582C516.83 165.931 519.92 148.804 502.92 151.565C490.279 153.618 499.816 197.455 481.032 197.964C457.304 198.607 460.662 176.104 436.642 175.157C419.773 174.493 411.746 142.681 395.204 143.664C369.648 145.183 359.119 119.521 336.75 119.279C283.958 118.706 309.207 33.0319 258.549 40.8991C209.116 48.5762 300.466 174.991 248.839 173.795C235.837 173.493 227.208 161.621 215.127 164.569C200.208 168.21 202.508 171.895 188.835 178.108C170.962 186.228 150.646 149.564 131.855 155.934C113.853 162.037 108.367 137.796 88.7505 139.571C62.3333 141.962 85.9278 183.614 60.9655 190.231Z" fill="url(#paint2_linear_6_134)"/>
</g>
<rect x="0.594452" y="0.41624" width="516.923" height="318.301" rx="22.2621" transform="matrix(0.996195 -0.0871557 0.258819 0.965926 -0.105469 44.8766)" stroke="url(#paint3_linear_6_134)" stroke-width="0.947324"/>
<defs>
<linearGradient id="paint0_linear_6_134" x1="269.256" y1="64.4375" x2="273.547" y2="113.491" gradientUnits="userSpaceOnUse">
<stop stop-color="#239CFF"/>
<stop offset="1" stop-color="#005BE3"/>
</linearGradient>
<linearGradient id="paint1_linear_6_134" x1="262.821" y1="40.4222" x2="278.159" y2="215.734" gradientUnits="userSpaceOnUse">
<stop stop-color="#239CFF"/>
<stop offset="1" stop-color="#005BE3"/>
</linearGradient>
<linearGradient id="paint2_linear_6_134" x1="262.821" y1="40.4222" x2="288.439" y2="333.235" gradientUnits="userSpaceOnUse">
<stop stop-color="#239CFF"/>
<stop offset="1" stop-color="#005BE3" stop-opacity="0"/>
</linearGradient>
<linearGradient id="paint3_linear_6_134" x1="258.935" y1="0" x2="258.935" y2="319.248" gradientUnits="userSpaceOnUse">
<stop stop-color="#239CFF"/>
<stop offset="1" stop-color="#005BE3"/>
</linearGradient>
<clipPath id="clip0_6_134">
<rect width="517.87" height="319.248" rx="22.7358" transform="matrix(0.996195 -0.0871557 0.258819 0.965926 0 44.8106)" fill="white"/>
</clipPath>
</defs>
</svg>
