<svg width="32" height="32" viewBox="0 0 32 32" fill="none" xmlns="http://www.w3.org/2000/svg">
<path d="M29.3293 15.8771V24.6771C29.3626 25.2922 29.2703 25.9078 29.0579 26.4859C28.8455 27.0642 28.5175 27.5931 28.0939 28.0403C27.6703 28.4876 27.1599 28.8438 26.5941 29.0872C26.0282 29.3307 25.4186 29.4563 24.8026 29.4563C24.1866 29.4563 23.577 29.3307 23.0111 29.0872C22.4453 28.8438 21.9349 28.4876 21.5113 28.0403C21.0877 27.5931 20.7597 27.0642 20.5473 26.4859C20.3349 25.9078 20.2426 25.2922 20.2759 24.6771V21.1571C20.2754 20.336 20.4983 19.5303 20.9211 18.8264C21.3439 18.1226 21.9505 17.5472 22.6755 17.162C23.4006 16.7768 24.217 16.5964 25.0369 16.6403C25.8569 16.684 26.6493 16.9503 27.3293 17.4104V15.8771C27.3293 12.8714 26.1353 9.98869 24.0098 7.86328C21.8843 5.73786 19.0017 4.54382 15.9959 4.54382C12.9901 4.54382 10.1075 5.73786 7.98205 7.86328C5.85664 9.98869 4.6626 12.8714 4.6626 15.8771V17.4104C5.40494 16.9035 6.28369 16.6339 7.18261 16.6371C8.3814 16.6371 9.53108 17.1134 10.3787 17.961C11.2264 18.8087 11.7026 19.9583 11.7026 21.1571V24.6771C11.7026 25.2707 11.5857 25.8584 11.3586 26.4068C11.1314 26.9552 10.7985 27.4535 10.3787 27.8732C9.95902 28.293 9.46074 28.6259 8.91234 28.8531C8.36396 29.0802 7.77618 29.1971 7.18261 29.1971C6.58904 29.1971 6.00126 29.0802 5.45288 28.8531C4.90449 28.6259 4.40621 28.293 3.98649 27.8732C3.56677 27.4535 3.23382 26.9552 3.00666 26.4068C2.77952 25.8584 2.6626 25.2707 2.6626 24.6771V15.8771C2.6626 12.3409 4.06738 8.94954 6.56786 6.44905C9.06836 3.94857 12.4597 2.54382 15.9959 2.54382C19.5322 2.54382 22.9235 3.94857 25.4241 6.44905C27.9245 8.94954 29.3293 12.3409 29.3293 15.8771Z" fill="white"/>
</svg>
