<svg width="164" height="62" viewBox="0 0 164 62" fill="none" xmlns="http://www.w3.org/2000/svg">
<path d="M-8.15392e-05 56.5978C-8.15392e-05 59.5433 2.38773 61.9311 5.33325 61.9311C8.27877 61.9311 10.6666 59.5433 10.6666 56.5978C10.6666 53.6523 8.27877 51.2645 5.33325 51.2645C2.38773 51.2645 -8.15392e-05 53.6523 -8.15392e-05 56.5978ZM84.2922 56.5978V57.5978H84.606L84.8635 57.4186L84.2922 56.5978ZM152.615 5.3335C152.615 8.27901 155.002 10.6668 157.948 10.6668C160.894 10.6668 163.281 8.27901 163.281 5.3335C163.281 2.38798 160.894 0.000162601 157.948 0.000162601C155.002 0.000162601 152.615 2.38798 152.615 5.3335ZM5.33325 56.5978V57.5978H84.2922V56.5978V55.5978H5.33325V56.5978ZM84.2922 56.5978L84.8635 57.4186L158.519 6.15427L157.948 5.3335L157.377 4.51272L83.721 55.777L84.2922 56.5978Z" fill="url(#paint0_linear_39_862)"/>
<defs>
<linearGradient id="paint0_linear_39_862" x1="154.484" y1="0.429277" x2="24.2925" y2="64.6572" gradientUnits="userSpaceOnUse">
<stop stop-color="white"/>
<stop offset="1" stop-color="#005BE3"/>
</linearGradient>
</defs>
</svg>
