<svg width="24" height="24" viewBox="0 0 24 24" fill="none" xmlns="http://www.w3.org/2000/svg">
<path d="M15.21 2.00007H8.75C6.9606 2.00271 5.24525 2.71475 3.97995 3.98005C2.71465 5.24534 2.00265 6.96067 2 8.75007V15.2501C2.00265 17.0395 2.71465 18.7549 3.97995 20.0202C5.24525 21.2855 6.9606 21.9975 8.75 22.0001H15.25C17.0394 21.9975 18.7548 21.2855 20.0201 20.0202C21.2853 18.7549 21.9974 17.0395 22 15.2501V8.75007C21.9987 7.86064 21.8219 6.98021 21.4797 6.15925C21.1375 5.33828 20.6367 4.59294 20.0059 3.96589C19.3751 3.33883 18.6268 2.8424 17.8038 2.50507C16.9809 2.16774 16.0994 1.99612 15.21 2.00007ZM17.58 9.42011L15.13 13.1301C14.8734 13.5088 14.4801 13.7734 14.0327 13.8685C13.5853 13.9635 13.1184 13.8817 12.73 13.6401L10.34 12.1301C10.3134 12.1176 10.2844 12.1112 10.255 12.1112C10.2256 12.1112 10.1966 12.1176 10.17 12.1301C10.1068 12.1377 10.0493 12.1701 10.01 12.2201L7.56 15.4601C7.44205 15.6053 7.27409 15.7012 7.08908 15.729C6.90407 15.7567 6.71536 15.7144 6.56 15.6102C6.41478 15.4922 6.31888 15.3242 6.29113 15.1392C6.26338 14.9542 6.30578 14.7655 6.41 14.6102L8.86 11.3501C9.12332 10.9994 9.50876 10.7602 9.94 10.6801C10.372 10.5983 10.819 10.6842 11.19 10.9201L13.58 12.4301C13.6094 12.445 13.642 12.4529 13.675 12.4529C13.708 12.4529 13.7406 12.445 13.77 12.4301C13.8004 12.4244 13.8294 12.4126 13.8552 12.3954C13.881 12.3782 13.903 12.356 13.92 12.3301L16.38 8.62006C16.4901 8.4543 16.6615 8.33907 16.8565 8.29969C17.0515 8.2603 17.2542 8.30004 17.42 8.4101C17.5858 8.52016 17.701 8.69156 17.7404 8.8866C17.7798 9.08164 17.7401 9.28432 17.63 9.45008L17.58 9.42011Z" fill="url(#paint0_linear_39_1056)"/>
<defs>
<linearGradient id="paint0_linear_39_1056" x1="12" y1="2" x2="12" y2="22.0001" gradientUnits="userSpaceOnUse">
<stop stop-color="#239CFF"/>
<stop offset="1" stop-color="#005BE3"/>
</linearGradient>
</defs>
</svg>
