<svg width="32" height="32" viewBox="0 0 32 32" fill="none" xmlns="http://www.w3.org/2000/svg">
<path d="M12.489 25.44L3.12231 13.3855H8.23734L12.489 25.44Z" fill="white"/>
<path d="M20.4718 13.3855L15.992 27.9812L10.8281 13.3855H20.4718Z" fill="white"/>
<path d="M28.8448 13.3855L19.2336 25.7495L23.0455 13.3855H28.8448Z" fill="white"/>
<path d="M29.333 10.9423H23.0614L21.1555 4.01904H24.6905C24.7613 4.03379 24.8283 4.06312 24.8871 4.10519C24.9461 4.14726 24.9955 4.20116 25.0324 4.2634L29.333 10.9423Z" fill="white"/>
<path d="M20.537 10.9418H10.8445L13.288 4.03491H18.6147L20.537 10.9418Z" fill="white"/>
<path d="M10.6811 4.05127L8.25396 10.9419H2.6665L6.83673 4.42594L6.96708 4.27934C7.02597 4.21132 7.09801 4.15591 7.17885 4.11642C7.25394 4.09959 7.33185 4.09959 7.40694 4.11642L10.6811 4.05127Z" fill="white"/>
</svg>
