<svg width="27" height="27" viewBox="0 0 27 27" fill="none" xmlns="http://www.w3.org/2000/svg">
<path d="M17.6667 0H9C6.61413 0.00352 4.32704 0.952907 2.63997 2.63997C0.952907 4.32704 0.00353333 6.61413 0 9V17.6133C0.00353333 19.9992 0.952907 22.2864 2.63997 23.9734C4.32704 25.6605 6.61413 26.6098 9 26.6133H17.6667C20.0525 26.6098 22.3397 25.6605 24.0268 23.9734C25.7139 22.2864 26.6632 19.9992 26.6667 17.6133V8.94669C26.6491 6.57009 25.6936 4.29657 24.008 2.62101C22.3225 0.945453 20.0433 0.00345333 17.6667 0ZM19.8533 17.1066C19.7445 17.3176 19.5781 17.4933 19.3733 17.6133L14.2533 20.6666V13.6933L20.0267 10.2134V16.44C20.0283 16.6736 19.9685 16.9034 19.8533 17.1066ZM6.80005 17.1066C6.67793 16.9009 6.61343 16.666 6.61336 16.4266V10.2L12.4 13.6666V20.68L7.28003 17.6C7.08129 17.4841 6.91596 17.3188 6.80005 17.12V17.1066ZM13.3467 5.68001C13.6021 5.68068 13.8521 5.75477 14.0667 5.89339L19.1467 8.56005L13.3333 12.0534L7.50667 8.56005L12.6267 5.89339C12.8428 5.75945 13.0925 5.69004 13.3467 5.69336V5.68001Z" fill="white"/>
</svg>
