<svg width="27" height="27" viewBox="0 0 27 27" fill="none" xmlns="http://www.w3.org/2000/svg">
<path fill-rule="evenodd" clip-rule="evenodd" d="M22.6667 8.492V10.4C22.6667 13.668 22.6667 15.3027 21.5733 16.3173C20.48 17.3333 18.72 17.3333 15.2 17.3333H14.3333V21.3333C14.3319 21.3959 14.3261 21.4583 14.316 21.52C14.992 21.788 15.5333 22.3253 15.8067 23H25.6667C25.9319 23 26.1862 23.1054 26.3738 23.2929C26.5613 23.4804 26.6667 23.7348 26.6667 24C26.6667 24.2652 26.5613 24.5196 26.3738 24.7071C26.1862 24.8946 25.9319 25 25.6667 25H15.8067C15.6079 25.4932 15.2662 25.9157 14.8254 26.2133C14.3847 26.5108 13.8651 26.6698 13.3333 26.6698C12.8016 26.6698 12.2819 26.5108 11.8412 26.2133C11.4005 25.9157 11.0588 25.4932 10.86 25H1C0.734783 25 0.480429 24.8946 0.292893 24.7071C0.105357 24.5196 0 24.2652 0 24C0 23.7348 0.105357 23.4804 0.292893 23.2929C0.480429 23.1054 0.734783 23 1 23H10.86C11.1333 22.3253 11.6733 21.788 12.3507 21.52C12.3405 21.4583 12.3347 21.3959 12.3333 21.3333V17.3333H11.4667C7.94667 17.3333 6.18667 17.3333 5.09333 16.3187C4 15.3027 4 13.6667 4 10.4V4.28933C4 3.52533 4 3.14267 4.06533 2.824C4.34933 1.42133 5.532 0.325333 7.04133 0.0600001C7.384 9.93411e-08 7.796 0 8.62 0C8.98 0 9.16133 -1.09275e-07 9.33467 0.0146666C10.0813 0.0799999 10.792 0.353333 11.3693 0.797333C11.5027 0.901333 11.6307 1.02 11.8867 1.256L12.4 1.73333C13.1613 2.44 13.5427 2.79333 13.9973 3.02933C14.2498 3.15911 14.5138 3.26044 14.7893 3.33333C15.292 3.46667 15.8293 3.46667 16.9067 3.46667H17.2547C19.712 3.46667 20.9413 3.46667 21.7387 4.13333C21.8124 4.19556 21.8822 4.26044 21.948 4.328C22.6667 5.06933 22.6667 6.21067 22.6667 8.492ZM14.3333 7.33333C14.3333 7.06812 14.4387 6.81376 14.6262 6.62623C14.8138 6.43869 15.0681 6.33333 15.3333 6.33333H19.3333C19.5985 6.33333 19.8529 6.43869 20.0404 6.62623C20.228 6.81376 20.3333 7.06812 20.3333 7.33333C20.3333 7.59855 20.228 7.8529 20.0404 8.04044C19.8529 8.22798 19.5985 8.33333 19.3333 8.33333H15.3333C15.0681 8.33333 14.8138 8.22798 14.6262 8.04044C14.4387 7.8529 14.3333 7.59855 14.3333 7.33333Z" fill="white"/>
</svg>
