<svg width="32" height="32" viewBox="0 0 32 32" fill="none" xmlns="http://www.w3.org/2000/svg">
<path d="M14.0286 17.973C15.0508 18.9954 16.4378 19.5705 17.8843 19.5717C18.3624 19.565 18.8384 19.5041 19.3028 19.3901C20.2235 19.1345 21.0628 18.6465 21.7399 17.973L23.0312 16.6833L26.8686 12.8319C27.8324 11.7988 28.3571 10.4323 28.3322 9.02044C28.3072 7.60853 27.7346 6.26141 26.735 5.26288C25.7352 4.26436 24.3867 3.69238 22.9731 3.66748C21.5596 3.64256 20.1916 4.16665 19.1574 5.12933L15.3199 8.98064" stroke="white" stroke-width="2" stroke-linecap="round" stroke-linejoin="round"/>
<path d="M16.5933 23.1142L12.7377 26.9654C11.6963 27.8857 10.3424 28.3739 8.95271 28.3306C7.56298 28.2873 6.24224 27.7157 5.26024 26.7325C4.27824 25.7493 3.70908 24.4286 3.66902 23.0403C3.62894 21.6521 4.12098 20.301 5.04463 19.2629L8.90026 15.4115L10.1915 14.1217C10.8686 13.4482 11.7079 12.9602 12.6286 12.7047C13.5549 12.4572 14.5301 12.4578 15.456 12.7066C16.382 12.9553 17.2258 13.4434 17.9028 14.1217" stroke="white" stroke-width="2" stroke-linecap="round" stroke-linejoin="round"/>
</svg>
