<svg width="32" height="32" viewBox="0 0 32 32" fill="none" xmlns="http://www.w3.org/2000/svg">
<path d="M23.1733 12.1338V10.0138C23.2151 9.04664 23.0607 8.08104 22.7192 7.17517C22.3779 6.2693 21.8568 5.4419 21.1872 4.7428C20.5176 4.04369 19.7133 3.48733 18.8231 3.10725C17.9328 2.72718 16.9747 2.53125 16.0067 2.53125C15.0387 2.53125 14.0807 2.72718 13.1903 3.10725C12.3 3.48733 11.4958 4.04369 10.8262 4.7428C10.1566 5.4419 9.63543 6.2693 9.29409 7.17517C8.95275 8.08104 8.79828 9.04664 8.84 10.0138V12.1338C7.82013 12.2118 6.86477 12.6628 6.15641 13.4007C5.44805 14.1386 5.03636 15.1115 5 16.1338V25.3871C5.03484 26.5023 5.51067 27.5582 6.32304 28.3231C7.13541 29.0881 8.218 29.4994 9.33333 29.4671H22.6667C23.782 29.4994 24.8647 29.0881 25.6769 28.3231C26.4893 27.5582 26.9652 26.5023 27 25.3871V16.1338C26.964 15.1137 26.5541 14.1425 25.8485 13.4049C25.1429 12.6673 24.1908 12.2149 23.1733 12.1338ZM10.84 10.0138C10.8366 9.33538 10.968 8.66305 11.2267 8.03589C11.4853 7.40872 11.866 6.83924 12.3467 6.36046C13.3174 5.39338 14.6297 4.84732 16 4.84045C17.3709 4.84397 18.6848 5.39014 19.6543 6.35957C20.6236 7.329 21.1699 8.64282 21.1733 10.0138V12.0938H10.84V10.0138ZM20.6267 25.2138H11.4267C11.0731 25.2138 10.7339 25.0733 10.4839 24.8233C10.2338 24.5733 10.0933 24.2341 10.0933 23.8805C10.0933 23.5269 10.2338 23.1877 10.4839 22.9377C10.7339 22.6875 11.0731 22.5471 11.4267 22.5471H20.68C21.0336 22.5471 21.3728 22.6875 21.6228 22.9377C21.8729 23.1877 22.0133 23.5269 22.0133 23.8805C22.0133 24.2341 21.8729 24.5733 21.6228 24.8233C21.3728 25.0733 21.0336 25.2138 20.68 25.2138H20.6267Z" fill="white"/>
</svg>
