<svg width="32" height="32" viewBox="0 0 32 32" fill="none" xmlns="http://www.w3.org/2000/svg">
<path d="M14.6594 6.23999V11.4133C14.6594 11.8417 14.5747 12.2658 14.4103 12.6614C14.2461 13.057 14.0053 13.4162 13.7017 13.7185C13.3982 14.0207 13.0381 14.2601 12.6418 14.4229C12.2455 14.5855 11.821 14.6685 11.3926 14.6666H6.24596C5.81878 14.6693 5.39542 14.5855 5.00134 14.4206C4.60727 14.2557 4.25063 14.0127 3.95267 13.7066C3.65076 13.4062 3.41158 13.0488 3.24906 12.6551C3.08655 12.2613 3.00383 11.8393 3.0059 11.4133V6.25333C3.0059 5.3928 3.3469 4.56732 3.95414 3.95757C4.56138 3.34784 5.38544 3.00352 6.24596 3H11.406C11.8327 3.00041 12.2551 3.08545 12.6488 3.25024C13.0425 3.41503 13.3995 3.65628 13.6993 3.96C14.0031 4.25685 14.2447 4.61148 14.4095 5.00303C14.5745 5.39459 14.6594 5.81515 14.6594 6.23999Z" fill="white"/>
<path d="M28.9929 6.25333V11.4133C28.9859 12.2717 28.6427 13.0932 28.037 13.7014C27.4313 14.3097 26.6111 14.6562 25.7529 14.6666H20.5795C19.717 14.6614 18.8903 14.3221 18.2729 13.7199C17.9711 13.4166 17.7322 13.0568 17.5697 12.6609C17.4073 12.2651 17.3246 11.8412 17.3262 11.4133V6.25333C17.3243 5.82625 17.4083 5.40313 17.5733 5.00917C17.7382 4.61521 17.9806 4.25843 18.2862 3.96C18.5859 3.65628 18.943 3.41503 19.3366 3.25024C19.7303 3.08545 20.1527 3.00041 20.5795 3H25.7394C26.6002 3.00697 27.4237 3.35196 28.0322 3.96057C28.6409 4.56919 28.9859 5.39265 28.9929 6.25333Z" fill="white"/>
<path d="M28.9924 20.5867V25.7467C28.9854 26.6049 28.6421 27.4265 28.0364 28.0347C27.4306 28.6429 26.6106 28.9895 25.7522 29H20.5789C19.711 29.0088 18.8738 28.6787 18.2456 28.08C17.9426 27.7775 17.703 27.4177 17.5405 27.0217C17.378 26.6257 17.2958 26.2013 17.2989 25.7733V20.6132C17.2972 20.1861 17.381 19.7631 17.546 19.3691C17.7109 18.9752 17.9534 18.6184 18.2589 18.3199C18.5586 18.0163 18.9157 17.7749 19.3093 17.6101C19.703 17.4455 20.1254 17.3604 20.5522 17.36H25.7122C26.5729 17.3669 27.3964 17.7119 28.005 18.3205C28.6136 18.9291 28.9586 19.7525 28.9656 20.6132L28.9924 20.5867Z" fill="white"/>
<path d="M14.6594 20.5998V25.7598C14.6489 26.6205 14.3005 27.4426 13.6893 28.0487C13.0782 28.6549 12.2533 28.9965 11.3926 28.9998H6.24597C5.81998 29.0017 5.39783 28.919 5.00394 28.7569C4.61005 28.5946 4.25226 28.3561 3.95105 28.0549C3.64983 27.7535 3.41126 27.3957 3.24906 27.0018C3.08686 26.6079 3.00413 26.1858 3.00589 25.7598V20.5998C3.00933 19.7391 3.35094 18.9142 3.95706 18.3031C4.56318 17.6921 5.3853 17.3437 6.24597 17.3331H11.406C12.2705 17.3406 13.098 17.685 13.7126 18.2931C14.3207 18.9067 14.6613 19.7361 14.6594 20.5998Z" fill="white"/>
</svg>
