<svg width="137" height="44" viewBox="0 0 137 44" fill="none" xmlns="http://www.w3.org/2000/svg">
<g clip-path="url(#clip0_21_1017)">
<mask id="mask0_21_1017" style="mask-type:luminance" maskUnits="userSpaceOnUse" x="1" y="1" width="47" height="42">
<path d="M38.2352 3.71806L17.2158 21.7361L15.149 23.5181L1.80298 34.9801L8.46499 42.7681L19.7003 33.1321L25.0211 28.5561L42.8524 13.2661L47.7994 9.02006L41.1374 1.23206L38.2352 3.71806Z" fill="white"/>
</mask>
<g mask="url(#mask0_21_1017)">
<path d="M49.2505 42.7021L1.84691 44.3741L0.351807 1.2761L47.7554 -0.373901L49.2505 42.7021Z" fill="url(#paint0_linear_21_1017)"/>
</g>
<mask id="mask1_21_1017" style="mask-type:luminance" maskUnits="userSpaceOnUse" x="39" y="17" width="11" height="27">
<path d="M39.3564 22.286V38.874C39.3564 41.712 41.6431 44 44.4794 44C47.3157 44 49.6023 41.712 49.6023 38.874V22.286C49.6023 19.448 47.3157 17.16 44.4794 17.16C41.6431 17.16 39.3564 19.448 39.3564 22.286Z" fill="white"/>
</mask>
<g mask="url(#mask1_21_1017)">
<path d="M49.6023 17.16H39.3564V44H49.6023V17.16Z" fill="url(#paint1_linear_21_1017)"/>
</g>
<g opacity="0.13">
<mask id="mask2_21_1017" style="mask-type:luminance" maskUnits="userSpaceOnUse" x="15" y="21" width="11" height="13">
<path d="M25.021 21.736H15.1489V33.132H25.021V21.736Z" fill="white"/>
</mask>
<g mask="url(#mask2_21_1017)">
<mask id="mask3_21_1017" style="mask-type:luminance" maskUnits="userSpaceOnUse" x="15" y="21" width="11" height="13">
<path d="M25.021 21.736H15.1489V33.132H25.021V21.736Z" fill="white"/>
</mask>
<g mask="url(#mask3_21_1017)">
<path d="M25.021 28.556L19.7002 33.132C19.5243 31.658 18.6668 26.774 15.1489 23.518L17.2157 21.736L25.021 28.556Z" fill="#1D245E"/>
</g>
</g>
</g>
<mask id="mask4_21_1017" style="mask-type:luminance" maskUnits="userSpaceOnUse" x="0" y="0" width="50" height="44">
<path d="M5.12293 0C3.69379 0 2.24266 0.616 1.23126 1.782C0.41775 2.75 0 3.938 0 5.104V5.148C0 6.578 0.615632 8.008 1.78093 9.02L41.1374 42.768C42.1048 43.604 43.2921 44 44.4574 44C45.9085 44 47.3377 43.384 48.3491 42.218C50.196 40.062 49.9321 36.828 47.7994 34.98L8.46493 1.232C7.49751 0.418 6.31022 0 5.12293 0Z" fill="white"/>
</mask>
<g mask="url(#mask4_21_1017)">
<path d="M61.1894 41.052L3.364 56.562L-10.9934 2.94799L46.832 -12.562L61.1894 41.052Z" fill="url(#paint2_linear_21_1017)"/>
</g>
<mask id="mask5_21_1017" style="mask-type:luminance" maskUnits="userSpaceOnUse" x="0" y="0" width="11" height="44">
<path d="M0 5.126V38.874C0 41.712 2.28663 44 5.12293 44C7.95924 44 10.2459 41.712 10.2459 38.874V5.126C10.2459 2.288 7.95924 0 5.12293 0C2.28663 0 0 2.288 0 5.126Z" fill="white"/>
</mask>
<g mask="url(#mask5_21_1017)">
<path d="M10.2459 0H0V44H10.2459V0Z" fill="url(#paint3_linear_21_1017)"/>
</g>
<path d="M44.4794 10.274C41.6431 10.274 39.3564 7.986 39.3564 5.148V5.126C39.3564 2.288 41.6431 0 44.4794 0C47.3157 0 49.6023 2.288 49.6023 5.126V5.148C49.6023 7.986 47.2937 10.274 44.4794 10.274Z" fill="#5CDDAD"/>
<path d="M75.4149 10.076C72.2048 10.076 70.0501 11.264 68.6209 12.87H68.533L65.7846 10.4281H61.2773V33.396H68.533V20.834C68.533 17.71 69.8742 15.7301 72.2048 15.7301C74.0297 15.7301 75.5028 16.874 75.5028 20.042V33.396H82.7585V20.042C82.7585 16.368 82.1648 10.076 75.4149 10.076Z" fill="white"/>
<path d="M114.771 10.076C111.231 10.076 108.615 11.638 107.01 14.08H106.922C105.955 11.88 104.13 10.076 100.546 10.076C97.3357 10.076 95.181 11.264 93.7518 12.87H93.6639L90.9155 10.4281H86.4082V33.396H93.6639V20.834C93.6639 17.71 95.0051 15.7301 97.3357 15.7301C99.1826 15.7301 100.634 16.874 100.634 20.042V33.396H107.889V20.834C107.889 17.71 109.231 15.7301 111.561 15.7301C113.386 15.7301 114.859 16.874 114.859 20.042V33.396H122.115V20.042C122.115 16.368 121.521 10.076 114.771 10.076Z" fill="white"/>
<path d="M129.503 18.634C131.943 18.634 133.812 16.698 133.812 14.366C133.812 11.968 131.921 10.098 129.503 10.098C127.062 10.098 125.193 11.99 125.193 14.366C125.193 16.698 127.084 18.634 129.503 18.634Z" fill="white"/>
<path d="M133.064 20.702H125.941V33.418H133.064V20.702Z" fill="white"/>
<path d="M137 8.24997C137 8.46997 136.956 8.66797 136.89 8.82197C136.824 8.99797 136.714 9.15197 136.582 9.26197C136.45 9.39397 136.297 9.48197 136.143 9.54797C135.967 9.61397 135.791 9.65797 135.615 9.65797C135.417 9.65797 135.219 9.61397 135.043 9.54797C134.867 9.48197 134.735 9.37197 134.604 9.23997C134.472 9.10797 134.384 8.95397 134.318 8.77797C134.252 8.60197 134.208 8.42597 134.208 8.20597C134.208 7.98597 134.252 7.78797 134.318 7.63397C134.384 7.45797 134.494 7.30397 134.626 7.19397C134.757 7.06197 134.911 6.97397 135.065 6.90797C135.241 6.84197 135.417 6.79797 135.593 6.79797C135.769 6.79797 135.945 6.84197 136.121 6.90797C136.297 6.97397 136.428 7.08397 136.56 7.19397C136.692 7.32597 136.78 7.45797 136.868 7.63397C136.956 7.83197 137 8.02997 137 8.24997ZM136.692 8.24997C136.692 8.07397 136.67 7.91997 136.604 7.76597C136.538 7.61197 136.472 7.50197 136.362 7.39197C136.253 7.28197 136.143 7.21597 136.011 7.14997C135.879 7.08397 135.747 7.06197 135.593 7.06197C135.439 7.06197 135.285 7.08397 135.153 7.14997C135.021 7.21597 134.911 7.28197 134.801 7.39197C134.691 7.50197 134.626 7.61197 134.56 7.76597C134.494 7.91997 134.472 8.07397 134.472 8.24997C134.472 8.40397 134.494 8.55797 134.538 8.71197C134.582 8.84397 134.669 8.97597 134.757 9.08597C134.845 9.19597 134.977 9.28397 135.109 9.34997C135.241 9.41597 135.395 9.43797 135.571 9.43797C135.725 9.43797 135.857 9.41597 135.989 9.34997C136.121 9.28397 136.231 9.21797 136.34 9.10797C136.45 8.99797 136.516 8.88797 136.582 8.73397C136.67 8.57997 136.692 8.42597 136.692 8.24997ZM135.329 9.06397H135.065V7.47997H135.659C135.857 7.47997 135.989 7.52397 136.099 7.58997C136.187 7.65597 136.253 7.76597 136.253 7.94197C136.253 8.07397 136.209 8.18397 136.143 8.24997C136.055 8.31597 135.967 8.35997 135.857 8.35997L136.297 9.06397H136.011L135.593 8.38197H135.351V9.06397H135.329ZM135.615 8.16197C135.659 8.16197 135.703 8.16197 135.747 8.16197C135.791 8.16197 135.835 8.13997 135.857 8.13997C135.879 8.11797 135.923 8.09597 135.945 8.07397C135.967 8.05197 135.967 8.00797 135.967 7.94197C135.967 7.89797 135.967 7.85397 135.945 7.83197C135.923 7.80997 135.901 7.78797 135.857 7.76597C135.813 7.74397 135.791 7.74397 135.747 7.74397C135.703 7.74397 135.659 7.74397 135.637 7.74397H135.329V8.20597H135.615V8.16197Z" fill="white"/>
</g>
<defs>
<linearGradient id="paint0_linear_21_1017" x1="48.2334" y1="21.1801" x2="1.37146" y2="22.8156" gradientUnits="userSpaceOnUse">
<stop stop-color="#9EFF9F"/>
<stop offset="0.1446" stop-color="#9EFF9F"/>
<stop offset="0.405" stop-color="#84F1A5"/>
<stop offset="0.8291" stop-color="#5CDDAD"/>
<stop offset="1" stop-color="#5CDDAD"/>
</linearGradient>
<linearGradient id="paint1_linear_21_1017" x1="44.4687" y1="44.0051" x2="44.4687" y2="17.1576" gradientUnits="userSpaceOnUse">
<stop stop-color="#DAFF9F"/>
<stop offset="0.1446" stop-color="#DAFF9F"/>
<stop offset="0.9122" stop-color="#5CDDAD"/>
<stop offset="1" stop-color="#5CDDAD"/>
</linearGradient>
<linearGradient id="paint2_linear_21_1017" x1="43.9096" y1="16.9561" x2="5.72917" y2="27.1803" gradientUnits="userSpaceOnUse">
<stop stop-color="#DAFF9F"/>
<stop offset="0.1446" stop-color="#DAFF9F"/>
<stop offset="0.9122" stop-color="#5CDDAD"/>
<stop offset="1" stop-color="#5CDDAD"/>
</linearGradient>
<linearGradient id="paint3_linear_21_1017" x1="5.1223" y1="44.0043" x2="5.1223" y2="0.0062625" gradientUnits="userSpaceOnUse">
<stop stop-color="#DAFF9F"/>
<stop offset="0.1446" stop-color="#DAFF9F"/>
<stop offset="0.9122" stop-color="#5CDDAD"/>
<stop offset="1" stop-color="#5CDDAD"/>
</linearGradient>
<clipPath id="clip0_21_1017">
<rect width="137" height="44" fill="white"/>
</clipPath>
</defs>
</svg>
