<svg width="32" height="32" viewBox="0 0 32 32" fill="none" xmlns="http://www.w3.org/2000/svg">
<path d="M11.0385 28.3124C10.9045 28.3117 10.772 28.2852 10.6481 28.2343C8.27421 27.1896 6.25564 25.4768 4.83841 23.3047C3.42117 21.1325 2.6665 18.5951 2.6665 16.0015C2.6665 13.408 3.42117 10.8704 4.83841 8.69832C6.25564 6.52621 8.27421 4.8134 10.6481 3.7687C10.766 3.71744 10.8928 3.68989 11.0214 3.68765C11.1499 3.68541 11.2777 3.7085 11.3973 3.75564C11.517 3.80277 11.6262 3.87298 11.7187 3.96232C11.8112 4.05164 11.8851 4.15832 11.9364 4.27624C11.9877 4.39416 12.0153 4.52101 12.0175 4.64957C12.0197 4.77813 11.9966 4.90589 11.9495 5.02553C11.9024 5.14516 11.8321 5.25432 11.7428 5.34681C11.6534 5.4393 11.5468 5.5133 11.4289 5.56457C9.41749 6.46188 7.70914 7.92262 6.5103 9.77018C5.31146 11.6177 4.67352 13.7731 4.67352 15.9755C4.67352 18.1779 5.31146 20.3332 6.5103 22.1808C7.70914 24.0283 9.41749 25.4891 11.4289 26.3864C11.6685 26.4919 11.8565 26.6881 11.9517 26.9321C12.0468 27.1761 12.0413 27.4479 11.9364 27.6877C11.8678 27.8707 11.7452 28.0284 11.5848 28.1399C11.4244 28.2515 11.2338 28.3116 11.0385 28.3124Z" fill="white"/>
<path d="M20.9417 28.2735C20.7132 28.2843 20.4883 28.2132 20.3072 28.0732C20.1263 27.9332 20.0011 27.7332 19.9541 27.5094C19.9071 27.2854 19.9415 27.052 20.0508 26.851C20.1603 26.65 20.3377 26.4946 20.5513 26.4126C22.5627 25.5152 24.2711 24.0546 25.4699 22.207C26.6687 20.3594 27.3068 18.2042 27.3068 16.0018C27.3068 13.7992 26.6687 11.644 25.4699 9.79643C24.2711 7.94887 22.5627 6.48812 20.5513 5.59081C20.4335 5.53955 20.3268 5.46556 20.2375 5.37307C20.1481 5.28057 20.0779 5.17139 20.0308 5.05175C19.9836 4.93212 19.9605 4.80437 19.9628 4.67581C19.9651 4.54725 19.9925 4.4204 20.0437 4.30248C20.0951 4.18456 20.1691 4.07788 20.2616 3.98856C20.3541 3.89924 20.4632 3.82901 20.5829 3.78188C20.7025 3.73476 20.8303 3.71165 20.9588 3.71389C21.0873 3.71613 21.2143 3.74368 21.3323 3.79495C23.7107 4.83537 25.7343 6.54663 27.1553 8.71925C28.5763 10.8919 29.3331 13.4316 29.3331 16.0278C29.3331 18.6238 28.5763 21.1636 27.1553 23.3362C25.7343 25.5088 23.7107 27.22 21.3323 28.2606C21.204 28.2895 21.0715 28.2939 20.9417 28.2735Z" fill="white"/>
<path d="M24.3125 14.3525C24.278 14.6395 24.1704 14.9128 24.0002 15.1462L15.5284 26.5332C15.4417 26.6416 15.341 26.7378 15.229 26.8196C15.0865 26.9081 14.9268 26.9657 14.7605 26.9886H14.5653C14.4274 27.011 14.2868 27.011 14.1489 26.9886C13.8874 26.8705 13.6724 26.6692 13.5372 26.4161C13.5301 26.3686 13.5301 26.3204 13.5372 26.2729C13.4782 26.0733 13.4782 25.8609 13.5372 25.6613L14.357 19.3888H9.15165C8.85326 19.3861 8.56226 19.296 8.3147 19.1294C8.06714 18.9629 7.87401 18.7272 7.75926 18.4517C7.75389 18.4043 7.75389 18.3561 7.75926 18.3086C7.69418 18.0436 7.69418 17.7668 7.75926 17.5017C7.80987 17.2758 7.90738 17.0629 8.04551 16.8772L16.4784 5.46417C16.5629 5.33781 16.674 5.23128 16.8037 5.15185C16.8602 5.1138 16.9214 5.08317 16.9858 5.06076C17.252 4.97242 17.5396 4.97242 17.8057 5.06076C18.0652 5.17562 18.2798 5.37212 18.4173 5.62033C18.4225 5.67225 18.4225 5.72457 18.4173 5.7765C18.476 5.97174 18.476 6.17988 18.4173 6.37512L17.6105 12.6607H22.816C23.1017 12.6601 23.3817 12.7414 23.6228 12.895C23.88 13.0662 24.0796 13.3112 24.1954 13.5977C24.2957 13.8358 24.336 14.095 24.3125 14.3525Z" fill="white"/>
</svg>
