<svg width="32" height="32" viewBox="0 0 32 32" fill="none" xmlns="http://www.w3.org/2000/svg">
<path d="M22.8534 4.0332H9.14673C7.42921 4.03674 5.78308 4.72058 4.5686 5.93504C3.35413 7.14951 2.67027 8.79568 2.66675 10.5132V21.4865C2.67027 23.204 3.35413 24.8503 4.5686 26.0647C5.78308 27.2792 7.42921 27.963 9.14673 27.9666H22.8534C24.571 27.963 26.2171 27.2792 27.4315 26.0647C28.6461 24.8503 29.3299 23.204 29.3334 21.4865V10.5132C29.3299 8.79568 28.6461 7.14951 27.4315 5.93504C26.2171 4.72058 24.571 4.03674 22.8534 4.0332ZM15.1467 22.8199H8.29337C7.93975 22.8199 7.60072 22.6793 7.35067 22.4293C7.10061 22.1793 6.96004 21.8402 6.96004 21.4865C6.96004 21.1329 7.10061 20.7938 7.35067 20.5438C7.60072 20.2936 7.93975 20.1532 8.29337 20.1532H15.1467C15.5003 20.1532 15.8395 20.2936 16.0895 20.5438C16.3397 20.7938 16.4801 21.1329 16.4801 21.4865C16.4801 21.8402 16.3397 22.1793 16.0895 22.4293C15.8395 22.6793 15.5003 22.8199 15.1467 22.8199ZM27.3334 10.8865H4.66675V10.5132C4.67027 9.32612 5.14343 8.18866 5.98283 7.34924C6.82223 6.50984 7.95964 6.03672 9.14673 6.0332H22.8534C24.0405 6.03672 25.1779 6.50984 26.0173 7.34924C26.8567 8.18866 27.3299 9.32612 27.3334 10.5132V10.8865Z" fill="white"/>
</svg>
