<svg width="24" height="24" viewBox="0 0 24 24" fill="none" xmlns="http://www.w3.org/2000/svg">
<path d="M19.8362 10.4862C19.8129 10.6598 19.74 10.823 19.6262 10.9562L9.87623 21.6662C9.7526 21.826 9.58079 21.9417 9.38624 21.9962C9.30319 22.006 9.21928 22.006 9.13624 21.9962C8.99474 21.9955 8.85502 21.9649 8.72626 21.9062C8.52578 21.812 8.36599 21.6487 8.27625 21.4462C8.18981 21.2658 8.1652 21.062 8.20624 20.8662L9.06623 14.0062H5.43622C5.22859 13.9942 5.02509 13.9433 4.83625 13.8562C4.65205 13.7587 4.49419 13.618 4.37623 13.4462C4.25951 13.2722 4.18428 13.0738 4.15626 12.8662C4.13485 12.6553 4.16573 12.4423 4.24622 12.2462L8.02625 2.79622C8.12541 2.55702 8.29221 2.35197 8.50623 2.20622C8.71988 2.0659 8.97068 1.99275 9.22626 1.99621H16.4662C16.6751 1.99983 16.8803 2.05114 17.0662 2.14622C17.2541 2.25124 17.415 2.39843 17.5363 2.57622C17.6483 2.75444 17.7169 2.95656 17.7363 3.16621C17.7577 3.37482 17.7232 3.58538 17.6362 3.77621L15.2462 9.34622H18.8962C19.0776 9.35229 19.2539 9.4076 19.4062 9.50622C19.5668 9.61357 19.6929 9.76512 19.7692 9.94258C19.8455 10.12 19.8688 10.3158 19.8362 10.5062V10.4862Z" fill="url(#paint0_linear_39_1041)"/>
<defs>
<linearGradient id="paint0_linear_39_1041" x1="12.0001" y1="1.99609" x2="12.0001" y2="22.0036" gradientUnits="userSpaceOnUse">
<stop stop-color="#239CFF"/>
<stop offset="1" stop-color="#005BE3"/>
</linearGradient>
</defs>
</svg>
