<svg width="32" height="32" viewBox="0 0 32 32" fill="none" xmlns="http://www.w3.org/2000/svg">
<path d="M26.1601 3.63342H5.85342C5.0176 3.6263 4.21302 3.9506 3.61578 4.53535C3.01854 5.1201 2.67727 5.91768 2.66672 6.75346V9.58011C2.6588 10.2555 2.86663 10.9158 3.25991 11.465C3.65319 12.0141 4.21142 12.4235 4.85342 12.6334V23.1134C4.85428 23.8071 4.99394 24.4935 5.26414 25.1324C5.53434 25.7712 5.92963 26.3496 6.42674 26.8335C7.43214 27.8236 8.78895 28.375 10.2 28.3667H21.8134C23.2245 28.375 24.5813 27.8236 25.5868 26.8335C26.0838 26.3496 26.4791 25.7712 26.7493 25.1324C27.0195 24.4935 27.1591 23.8071 27.1601 23.1134V12.6334C27.7887 12.4247 28.3363 12.0245 28.7261 11.4889C29.1158 10.9533 29.3282 10.3091 29.3334 9.64676V6.82011C29.3387 6.40127 29.2605 5.98552 29.103 5.59736C28.9455 5.2092 28.7122 4.85642 28.4167 4.5596C28.1211 4.2628 27.7693 4.02798 27.3818 3.86894C26.9942 3.70988 26.5789 3.62983 26.1601 3.63342ZM19.3867 21.46C19.481 21.552 19.5561 21.6619 19.6073 21.7832C19.6585 21.9046 19.6849 22.0351 19.6849 22.1668C19.6849 22.2984 19.6585 22.4288 19.6073 22.5503C19.5561 22.6716 19.481 22.7815 19.3867 22.8734C19.2958 22.9688 19.1861 23.0442 19.0644 23.0947C18.9426 23.1452 18.8118 23.1698 18.6801 23.1668C18.5487 23.1674 18.4185 23.1418 18.2971 23.0914C18.1758 23.041 18.0657 22.9668 17.9734 22.8734L16.0001 20.9135L14.0534 22.86C13.9625 22.9554 13.8527 23.0308 13.731 23.0814C13.6093 23.1319 13.4785 23.1564 13.3468 23.1534C13.2154 23.154 13.0851 23.1284 12.9638 23.078C12.8425 23.0276 12.7324 22.9535 12.6401 22.86C12.4528 22.6726 12.3476 22.4184 12.3476 22.1534C12.3476 21.8884 12.4528 21.6342 12.6401 21.4467L14.5867 19.5002L12.6401 17.5534C12.4634 17.3639 12.3673 17.1131 12.3718 16.854C12.3764 16.595 12.4813 16.3478 12.6646 16.1646C12.8478 15.9814 13.0949 15.8764 13.3541 15.8719C13.6131 15.8672 13.8638 15.9635 14.0534 16.14L16.0001 18.0868L17.9734 16.1267C18.1609 15.9395 18.415 15.8343 18.6801 15.8343C18.945 15.8343 19.1993 15.9395 19.3867 16.1267C19.481 16.2187 19.5561 16.3286 19.6073 16.4499C19.6585 16.5712 19.6849 16.7018 19.6849 16.8335C19.6849 16.9651 19.6585 17.0955 19.6073 17.217C19.5561 17.3383 19.481 17.4482 19.3867 17.54L17.4267 19.5002L19.3867 21.46ZM27.3867 9.58011C27.385 9.73184 27.3531 9.8817 27.2931 10.021C27.233 10.1604 27.1459 10.2864 27.0367 10.3918C26.9277 10.4972 26.7986 10.5799 26.6573 10.6351C26.5159 10.6903 26.3651 10.7169 26.2134 10.7134H5.85342C5.70107 10.717 5.5495 10.6904 5.4074 10.6354C5.26531 10.5803 5.13544 10.4979 5.02524 10.3926C4.91504 10.2874 4.82667 10.1614 4.76515 10.022C4.70363 9.88259 4.67019 9.73246 4.66672 9.58011V6.75346C4.67016 6.60171 4.70372 6.45212 4.7654 6.31343C4.82708 6.17474 4.91567 6.0497 5.02606 5.94551C5.13644 5.84132 5.2664 5.76007 5.40843 5.7065C5.55044 5.65294 5.70171 5.62808 5.85342 5.63342H26.1601C26.3111 5.62807 26.4617 5.65302 26.603 5.70674C26.7442 5.76047 26.8734 5.84188 26.9826 5.94624C27.0919 6.0506 27.1794 6.17579 27.2395 6.3144C27.2998 6.45303 27.3317 6.60232 27.3334 6.75346L27.3867 9.58011Z" fill="white"/>
</svg>
