<svg width="32" height="32" viewBox="0 0 32 32" fill="none" xmlns="http://www.w3.org/2000/svg">
<path d="M28.2532 16.911C24.9198 24.1244 16.7598 27.8444 16.4132 28.0044C16.282 28.058 16.1414 28.0852 15.9998 28.0844C15.8582 28.0838 15.718 28.0566 15.5865 28.0044C15.2532 27.8444 7.07977 24.1244 3.74644 16.911C1.67977 12.4178 2.82644 7.57776 5.07977 5.49776C5.86905 4.8214 6.8075 4.34184 7.81805 4.09846C8.8286 3.8551 9.88241 3.85488 10.8931 4.09777C12.9611 4.56786 14.7672 5.81964 15.9332 7.5911C17.1013 5.81584 18.9129 4.56341 20.9864 4.09777C21.997 3.85488 23.0509 3.8551 24.0614 4.09846C25.072 4.34184 26.0105 4.8214 26.7997 5.49776C29.173 7.57776 30.3332 12.4178 28.2532 16.911Z" fill="white"/>
</svg>
