<svg width="26" height="27" viewBox="0 0 26 27" fill="none" xmlns="http://www.w3.org/2000/svg">
<path d="M24.4589 4.04963C24.0261 3.44508 23.4123 2.99379 22.7062 2.76098L16.1211 0.57023C13.8066 -0.190077 11.3094 -0.190077 8.99484 0.57023L2.42269 2.76098C1.71693 2.99634 1.10307 3.44786 0.668241 4.05152C0.233414 4.65519 -0.000332977 5.38039 3.56015e-07 6.12436V13.1863C0.00374702 15.0924 0.486734 16.9668 1.4046 18.6373C2.32476 20.3057 3.65539 21.7117 5.27059 22.7224L10.683 26.1373C11.2495 26.4835 11.9006 26.6667 12.5645 26.6667C13.2283 26.6667 13.8794 26.4835 14.4459 26.1373L19.8583 22.7224C21.4726 21.7093 22.8031 20.3029 23.725 18.6349C24.647 16.9669 25.1301 15.0921 25.1289 13.1863V6.12436C25.1301 5.3794 24.8954 4.65322 24.4589 4.04963ZM17.7578 10.3898L12.8609 15.2481C12.6559 15.4525 12.4158 15.6185 12.1521 15.7379C11.8809 15.844 11.5927 15.9008 11.3015 15.9053C11.0102 15.902 10.7219 15.8452 10.451 15.7379C10.1815 15.622 9.93659 15.4557 9.72939 15.2481L7.3196 12.8383C7.07957 12.5969 6.94481 12.2703 6.94481 11.9297C6.94481 11.5893 7.07957 11.2628 7.3196 11.0213C7.43939 10.9005 7.58195 10.8047 7.73897 10.7392C7.89601 10.6737 8.06437 10.6401 8.23449 10.6401C8.40461 10.6401 8.57305 10.6737 8.73009 10.7392C8.88713 10.8047 9.02968 10.9005 9.14947 11.0213L11.3015 13.1733L15.9021 8.55995C16.0222 8.44064 16.1647 8.34616 16.3214 8.28191C16.4781 8.21767 16.6458 8.18496 16.8151 8.18556C16.9845 8.18616 17.1521 8.2201 17.3082 8.28546C17.4645 8.3508 17.6062 8.44626 17.7255 8.5664C17.8449 8.68656 17.9393 8.82904 18.0035 8.98571C18.0678 9.14238 18.1006 9.31018 18.0999 9.4795C18.0994 9.64882 18.0654 9.81638 18.0001 9.97258C17.9347 10.1288 17.8393 10.2705 17.7191 10.3898H17.7578Z" fill="white"/>
</svg>
