<svg width="32" height="32" viewBox="0 0 32 32" fill="none" xmlns="http://www.w3.org/2000/svg">
<path d="M28.1663 16.8258C28.3146 16.5586 28.3925 16.2581 28.3925 15.9525C28.3925 15.647 28.3146 15.3464 28.1663 15.0792C27.9898 14.7866 27.7422 14.5436 27.4465 14.3725L24.4065 12.8792L27.4731 11.3059C27.7649 11.158 28.0094 10.9318 28.1797 10.6526C28.3541 10.3676 28.4465 10.04 28.4465 9.70586C28.4469 9.3759 28.3543 9.05251 28.1797 8.77255C28.0073 8.48216 27.7519 8.24999 27.4465 8.10588L16.7798 2.8792C16.5355 2.75715 16.2661 2.6936 15.993 2.6936C15.7199 2.6936 15.4506 2.75715 15.2063 2.8792L4.53971 8.11923C4.2434 8.27163 3.99452 8.50216 3.81981 8.7859C3.64627 9.06627 3.5542 9.38946 3.5542 9.7192C3.5542 10.049 3.64627 10.3722 3.81981 10.6526C3.98581 10.9385 4.2312 11.1701 4.52636 11.3192L7.5664 12.8792L4.52636 14.3325C4.23375 14.4852 3.98928 14.716 3.81981 14.9992C3.64627 15.2796 3.5542 15.6028 3.5542 15.9325C3.5542 16.2622 3.64627 16.5856 3.81981 16.8658C3.98581 17.1518 4.2312 17.3834 4.52636 17.5325L7.5664 19.0925L4.52636 20.5458C4.23375 20.6985 3.98928 20.9293 3.81981 21.2125C3.64627 21.4929 3.5542 21.8161 3.5542 22.1458C3.5542 22.4756 3.64627 22.7988 3.81981 23.0792C3.98928 23.3624 4.23375 23.5932 4.52636 23.7458L15.193 29.0792C15.4485 29.2266 15.7381 29.3048 16.033 29.3058C16.3185 29.3098 16.5997 29.2361 16.8463 29.0925L27.5931 23.6392C27.9854 23.3958 28.2691 23.011 28.3858 22.5644C28.5023 22.1177 28.443 21.6433 28.2198 21.2392C28.0431 20.9468 27.7954 20.7037 27.4997 20.5325L24.4465 19.0392L27.5931 17.4258C27.8274 17.2721 28.0234 17.0669 28.1663 16.8258ZM15.9798 21.1725L10.2998 18.2792L10.0464 18.1592L5.75309 15.9458L9.75309 14.0125L15.0865 16.7725C15.343 16.9158 15.6326 16.9894 15.9265 16.9858C16.2107 16.9946 16.4919 16.9254 16.7398 16.7858L22.0731 14.0258L26.0731 15.9592L15.9798 21.1725Z" fill="white"/>
</svg>
