<svg width="32" height="32" viewBox="0 0 32 32" fill="none" xmlns="http://www.w3.org/2000/svg">
<path d="M24.0325 9.39119C22.4711 7.83461 20.4839 6.77511 18.3214 6.34629C16.1589 5.91747 13.9177 6.13851 11.8806 6.98157C9.84345 7.82463 8.10155 9.25192 6.87446 11.0835C5.64738 12.9152 4.99004 15.0691 4.98535 17.2737" stroke="white" stroke-width="2" stroke-miterlimit="10" stroke-linecap="round"/>
<path d="M23.1334 3.66675L24.2423 8.16249C24.2934 8.35848 24.3041 8.56276 24.2739 8.763C24.2437 8.96325 24.1734 9.15531 24.0669 9.32759C23.9605 9.49987 23.8202 9.64877 23.6546 9.76533C23.4891 9.88189 23.3015 9.96368 23.1035 10.0058L18.6077 11.1297" stroke="white" stroke-width="2" stroke-linecap="round" stroke-linejoin="round"/>
<path d="M7.96777 22.609C9.52905 24.1655 11.5162 25.2249 13.6788 25.6538C15.8412 26.0826 18.0824 25.8615 20.1195 25.0186C22.1567 24.1755 23.8986 22.7482 25.1258 20.9165C26.3527 19.0849 27.01 16.9309 27.0147 14.7263" stroke="white" stroke-width="2" stroke-miterlimit="10" stroke-linecap="round"/>
<path d="M8.86695 28.3333L7.758 23.8376C7.70701 23.6416 7.69627 23.4373 7.72643 23.237C7.75657 23.0368 7.827 22.8448 7.93344 22.6725C8.03988 22.5001 8.18015 22.3512 8.34573 22.2346C8.51133 22.1182 8.69884 22.0364 8.89693 21.9942L13.3927 20.8704" stroke="white" stroke-width="2" stroke-linecap="round" stroke-linejoin="round"/>
</svg>
