<svg width="32" height="32" viewBox="0 0 32 32" fill="none" xmlns="http://www.w3.org/2000/svg">
<path d="M20.3334 2.69336H11.6667C9.28088 2.69688 6.99379 3.64627 5.30672 5.33333C3.61965 7.0204 2.67028 9.30749 2.66675 11.6934V20.3067C2.67028 22.6925 3.61965 24.9797 5.30672 26.6668C6.99379 28.3539 9.28088 29.3032 11.6667 29.3067H20.3334C22.7193 29.3032 25.0065 28.3539 26.6935 26.6668C28.3806 24.9797 29.3299 22.6925 29.3334 20.3067V11.6401C29.3158 9.26345 28.3603 6.98993 26.6747 5.31437C24.9893 3.63881 22.7101 2.69681 20.3334 2.69336ZM22.5201 19.8C22.4113 20.0109 22.2449 20.1867 22.0401 20.3067L16.9201 23.36V16.3867L22.6934 12.9067V19.1333C22.695 19.3669 22.6353 19.5968 22.5201 19.8ZM9.4668 19.8C9.34468 19.5943 9.28017 19.3593 9.28011 19.12V12.8934L15.0667 16.36V23.3733L9.94677 20.2933C9.74804 20.1775 9.58271 20.0121 9.4668 19.8133V19.8ZM16.0134 8.37337C16.2689 8.37404 16.5189 8.44813 16.7334 8.58675L21.8134 11.2534L16.0001 14.7468L10.1734 11.2534L15.2934 8.58675C15.5095 8.45281 15.7593 8.3834 16.0134 8.38672V8.37337Z" fill="white"/>
</svg>
