<svg width="1200" height="445" viewBox="0 0 1200 445" fill="none" xmlns="http://www.w3.org/2000/svg">
<g clip-path="url(#clip0_16_62)">
<path d="M0 44C0 23.2582 0 12.8873 6.44365 6.44365C12.8873 0 23.2582 0 44 0H1156C1176.74 0 1187.11 0 1193.56 6.44365C1200 12.8873 1200 23.2582 1200 44V401C1200 421.742 1200 432.113 1193.56 438.556C1187.11 445 1176.74 445 1156 445H44C23.2582 445 12.8873 445 6.44365 438.556C0 432.113 0 421.742 0 401V44Z" fill="url(#paint0_linear_16_62)"/>
<g opacity="0.2">
<mask id="path-3-outside-1_16_62" maskUnits="userSpaceOnUse" x="-37.9756" y="248.505" width="1278" height="284" fill="black">
<rect fill="white" x="-37.9756" y="248.505" width="1278" height="284"/>
<path d="M-35.9756 472.442V258.158H63.5131C80.4516 258.158 95.3494 261.526 108.206 268.26C121.268 274.791 131.369 283.77 138.512 295.199C145.655 306.627 149.226 319.28 149.226 333.157C149.226 347.035 145.655 359.688 138.512 371.116C131.369 382.545 121.268 391.626 108.206 398.361C95.3494 404.891 80.4516 408.157 63.5131 408.157H9.94225V472.442H-35.9756ZM61.9825 365.3C74.6354 365.3 84.4312 362.341 91.3699 356.423C98.3086 350.504 101.778 342.749 101.778 333.157C101.778 323.566 98.3086 315.811 91.3699 309.892C84.4312 303.974 74.6354 301.015 61.9825 301.015H9.94225V365.3H61.9825Z"/>
<path d="M225.924 477.033C212.658 477.033 200.516 473.666 189.495 466.931C178.679 459.993 170.006 450.299 163.475 437.85C157.149 425.197 153.986 410.708 153.986 394.381C153.986 378.055 157.149 363.667 163.475 351.218C170.006 338.566 178.679 328.872 189.495 322.137C200.516 315.198 212.658 311.729 225.924 311.729C233.474 311.729 240.413 312.954 246.74 315.403C253.066 317.647 258.576 320.607 263.27 324.28C267.964 327.953 271.841 331.933 274.903 336.219H276.433V316.321H319.29V472.442H276.433V452.544H274.903C271.841 456.83 267.964 460.809 263.27 464.483C258.576 468.156 253.066 471.115 246.74 473.36C240.413 475.809 233.474 477.033 225.924 477.033ZM236.638 440.299C244.393 440.299 251.229 438.462 257.148 434.789C263.27 431.116 267.964 425.809 271.229 418.871C274.698 411.932 276.433 403.769 276.433 394.381C276.433 384.994 274.698 376.83 271.229 369.892C267.964 362.953 263.27 357.647 257.148 353.974C251.229 350.3 244.393 348.463 236.638 348.463C229.495 348.463 222.964 350.3 217.046 353.974C211.332 357.647 206.74 362.953 203.271 369.892C200.005 376.83 198.373 384.994 198.373 394.381C198.373 403.769 200.005 411.932 203.271 418.871C206.74 425.809 211.332 431.116 217.046 434.789C222.964 438.462 229.495 440.299 236.638 440.299Z"/>
<path d="M388.166 530.604L405.003 472.442H371.33L330.004 316.321H374.391L405.003 435.707H417.248L450.921 316.321H495.308L432.554 530.604H388.166Z"/>
<path d="M502.901 472.442V258.158H545.758V435.707H580.962V472.442H502.901Z"/>
<path d="M591.772 472.442V316.321H634.628V472.442H591.772ZM613.2 296.423C606.465 296.423 600.649 294.178 595.751 289.689C591.057 284.995 588.71 279.587 588.71 273.464C588.71 267.342 591.057 262.036 595.751 257.546C600.649 252.852 606.465 250.505 613.2 250.505C619.934 250.505 625.649 252.852 630.342 257.546C635.24 262.036 637.689 267.342 637.689 273.464C637.689 279.587 635.24 284.995 630.342 289.689C625.649 294.178 619.934 296.423 613.2 296.423Z"/>
<path d="M659.118 472.442V316.321H701.974V337.749H703.505C707.791 330.402 714.117 324.28 722.484 319.382C731.056 314.28 741.055 311.729 752.484 311.729C771.871 311.729 786.871 317.443 797.483 328.872C808.3 340.096 813.708 356.32 813.708 377.545V472.442H770.851V383.667C770.851 372.239 767.994 363.565 762.28 357.647C756.566 351.525 748.708 348.463 738.709 348.463C732.178 348.463 726.056 350.198 720.341 353.667C714.831 357.137 710.342 362.035 706.872 368.361C703.607 374.688 701.974 381.83 701.974 389.789V472.442H659.118Z"/>
<path d="M836.774 472.442V258.158H879.631V374.484H897.998L939.324 316.321H986.772L936.263 388.259L991.364 472.442H942.385L902.59 411.218H879.631V472.442H836.774Z"/>
<path d="M997.391 472.442V258.158H1040.25V435.707H1075.45V472.442H997.391Z"/>
<path d="M1130.65 530.604L1147.48 472.442H1113.81L1072.49 316.321H1116.87L1147.48 435.707H1159.73L1193.4 316.321H1237.79L1175.04 530.604H1130.65Z"/>
</mask>
<path d="M-35.9756 472.442V258.158H63.5131C80.4516 258.158 95.3494 261.526 108.206 268.26C121.268 274.791 131.369 283.77 138.512 295.199C145.655 306.627 149.226 319.28 149.226 333.157C149.226 347.035 145.655 359.688 138.512 371.116C131.369 382.545 121.268 391.626 108.206 398.361C95.3494 404.891 80.4516 408.157 63.5131 408.157H9.94225V472.442H-35.9756ZM61.9825 365.3C74.6354 365.3 84.4312 362.341 91.3699 356.423C98.3086 350.504 101.778 342.749 101.778 333.157C101.778 323.566 98.3086 315.811 91.3699 309.892C84.4312 303.974 74.6354 301.015 61.9825 301.015H9.94225V365.3H61.9825Z" stroke="url(#paint1_linear_16_62)" stroke-width="2.47911" mask="url(#path-3-outside-1_16_62)"/>
<path d="M225.924 477.033C212.658 477.033 200.516 473.666 189.495 466.931C178.679 459.993 170.006 450.299 163.475 437.85C157.149 425.197 153.986 410.708 153.986 394.381C153.986 378.055 157.149 363.667 163.475 351.218C170.006 338.566 178.679 328.872 189.495 322.137C200.516 315.198 212.658 311.729 225.924 311.729C233.474 311.729 240.413 312.954 246.74 315.403C253.066 317.647 258.576 320.607 263.27 324.28C267.964 327.953 271.841 331.933 274.903 336.219H276.433V316.321H319.29V472.442H276.433V452.544H274.903C271.841 456.83 267.964 460.809 263.27 464.483C258.576 468.156 253.066 471.115 246.74 473.36C240.413 475.809 233.474 477.033 225.924 477.033ZM236.638 440.299C244.393 440.299 251.229 438.462 257.148 434.789C263.27 431.116 267.964 425.809 271.229 418.871C274.698 411.932 276.433 403.769 276.433 394.381C276.433 384.994 274.698 376.83 271.229 369.892C267.964 362.953 263.27 357.647 257.148 353.974C251.229 350.3 244.393 348.463 236.638 348.463C229.495 348.463 222.964 350.3 217.046 353.974C211.332 357.647 206.74 362.953 203.271 369.892C200.005 376.83 198.373 384.994 198.373 394.381C198.373 403.769 200.005 411.932 203.271 418.871C206.74 425.809 211.332 431.116 217.046 434.789C222.964 438.462 229.495 440.299 236.638 440.299Z" stroke="url(#paint2_linear_16_62)" stroke-width="2.47911" mask="url(#path-3-outside-1_16_62)"/>
<path d="M388.166 530.604L405.003 472.442H371.33L330.004 316.321H374.391L405.003 435.707H417.248L450.921 316.321H495.308L432.554 530.604H388.166Z" stroke="url(#paint3_linear_16_62)" stroke-width="2.47911" mask="url(#path-3-outside-1_16_62)"/>
<path d="M502.901 472.442V258.158H545.758V435.707H580.962V472.442H502.901Z" stroke="url(#paint4_linear_16_62)" stroke-width="2.47911" mask="url(#path-3-outside-1_16_62)"/>
<path d="M591.772 472.442V316.321H634.628V472.442H591.772ZM613.2 296.423C606.465 296.423 600.649 294.178 595.751 289.689C591.057 284.995 588.71 279.587 588.71 273.464C588.71 267.342 591.057 262.036 595.751 257.546C600.649 252.852 606.465 250.505 613.2 250.505C619.934 250.505 625.649 252.852 630.342 257.546C635.24 262.036 637.689 267.342 637.689 273.464C637.689 279.587 635.24 284.995 630.342 289.689C625.649 294.178 619.934 296.423 613.2 296.423Z" stroke="url(#paint5_linear_16_62)" stroke-width="2.47911" mask="url(#path-3-outside-1_16_62)"/>
<path d="M659.118 472.442V316.321H701.974V337.749H703.505C707.791 330.402 714.117 324.28 722.484 319.382C731.056 314.28 741.055 311.729 752.484 311.729C771.871 311.729 786.871 317.443 797.483 328.872C808.3 340.096 813.708 356.32 813.708 377.545V472.442H770.851V383.667C770.851 372.239 767.994 363.565 762.28 357.647C756.566 351.525 748.708 348.463 738.709 348.463C732.178 348.463 726.056 350.198 720.341 353.667C714.831 357.137 710.342 362.035 706.872 368.361C703.607 374.688 701.974 381.83 701.974 389.789V472.442H659.118Z" stroke="url(#paint6_linear_16_62)" stroke-width="2.47911" mask="url(#path-3-outside-1_16_62)"/>
<path d="M836.774 472.442V258.158H879.631V374.484H897.998L939.324 316.321H986.772L936.263 388.259L991.364 472.442H942.385L902.59 411.218H879.631V472.442H836.774Z" stroke="url(#paint7_linear_16_62)" stroke-width="2.47911" mask="url(#path-3-outside-1_16_62)"/>
<path d="M997.391 472.442V258.158H1040.25V435.707H1075.45V472.442H997.391Z" stroke="url(#paint8_linear_16_62)" stroke-width="2.47911" mask="url(#path-3-outside-1_16_62)"/>
<path d="M1130.65 530.604L1147.48 472.442H1113.81L1072.49 316.321H1116.87L1147.48 435.707H1159.73L1193.4 316.321H1237.79L1175.04 530.604H1130.65Z" stroke="url(#paint9_linear_16_62)" stroke-width="2.47911" mask="url(#path-3-outside-1_16_62)"/>
</g>
</g>
<path d="M44 0.5H1156C1166.38 0.5 1174.12 0.500864 1180.07 1.30078C1186.01 2.09878 1190.09 3.68343 1193.2 6.79688C1196.32 9.91032 1197.9 13.9913 1198.7 19.9268C1199.5 25.8766 1199.5 33.615 1199.5 44V401C1199.5 411.385 1199.5 419.123 1198.7 425.073C1197.9 431.009 1196.32 435.09 1193.2 438.203C1190.09 441.317 1186.01 442.901 1180.07 443.699C1174.12 444.499 1166.38 444.5 1156 444.5H44C33.615 444.5 25.8766 444.499 19.9268 443.699C13.9913 442.901 9.91032 441.317 6.79688 438.203C3.68343 435.09 2.09878 431.009 1.30078 425.073C0.500864 419.123 0.5 411.385 0.5 401V44C0.5 33.615 0.500864 25.8766 1.30078 19.9268C2.09878 13.9913 3.68343 9.91032 6.79688 6.79688C9.91032 3.68343 13.9913 2.09878 19.9268 1.30078C25.8766 0.500864 33.615 0.5 44 0.5Z" stroke="url(#paint10_linear_16_62)"/>
<defs>
<linearGradient id="paint0_linear_16_62" x1="600" y1="0" x2="600" y2="445" gradientUnits="userSpaceOnUse">
<stop stop-color="#239CFF"/>
<stop offset="1" stop-color="#005BE3"/>
</linearGradient>
<linearGradient id="paint1_linear_16_62" x1="600.907" y1="250.505" x2="600.907" y2="530.604" gradientUnits="userSpaceOnUse">
<stop stop-color="white" stop-opacity="0.5"/>
<stop offset="1" stop-color="white"/>
</linearGradient>
<linearGradient id="paint2_linear_16_62" x1="600.907" y1="250.505" x2="600.907" y2="530.604" gradientUnits="userSpaceOnUse">
<stop stop-color="white" stop-opacity="0.5"/>
<stop offset="1" stop-color="white"/>
</linearGradient>
<linearGradient id="paint3_linear_16_62" x1="600.907" y1="250.505" x2="600.907" y2="530.604" gradientUnits="userSpaceOnUse">
<stop stop-color="white" stop-opacity="0.5"/>
<stop offset="1" stop-color="white"/>
</linearGradient>
<linearGradient id="paint4_linear_16_62" x1="600.907" y1="250.505" x2="600.907" y2="530.604" gradientUnits="userSpaceOnUse">
<stop stop-color="white" stop-opacity="0.5"/>
<stop offset="1" stop-color="white"/>
</linearGradient>
<linearGradient id="paint5_linear_16_62" x1="600.907" y1="250.505" x2="600.907" y2="530.604" gradientUnits="userSpaceOnUse">
<stop stop-color="white" stop-opacity="0.5"/>
<stop offset="1" stop-color="white"/>
</linearGradient>
<linearGradient id="paint6_linear_16_62" x1="600.907" y1="250.505" x2="600.907" y2="530.604" gradientUnits="userSpaceOnUse">
<stop stop-color="white" stop-opacity="0.5"/>
<stop offset="1" stop-color="white"/>
</linearGradient>
<linearGradient id="paint7_linear_16_62" x1="600.907" y1="250.505" x2="600.907" y2="530.604" gradientUnits="userSpaceOnUse">
<stop stop-color="white" stop-opacity="0.5"/>
<stop offset="1" stop-color="white"/>
</linearGradient>
<linearGradient id="paint8_linear_16_62" x1="600.907" y1="250.505" x2="600.907" y2="530.604" gradientUnits="userSpaceOnUse">
<stop stop-color="white" stop-opacity="0.5"/>
<stop offset="1" stop-color="white"/>
</linearGradient>
<linearGradient id="paint9_linear_16_62" x1="600.907" y1="250.505" x2="600.907" y2="530.604" gradientUnits="userSpaceOnUse">
<stop stop-color="white" stop-opacity="0.5"/>
<stop offset="1" stop-color="white"/>
</linearGradient>
<linearGradient id="paint10_linear_16_62" x1="600" y1="0" x2="600" y2="445" gradientUnits="userSpaceOnUse">
<stop stop-color="#03449D" stop-opacity="0"/>
<stop offset="0.648429" stop-color="#03449D"/>
</linearGradient>
<clipPath id="clip0_16_62">
<path d="M0 44C0 23.2582 0 12.8873 6.44365 6.44365C12.8873 0 23.2582 0 44 0H1156C1176.74 0 1187.11 0 1193.56 6.44365C1200 12.8873 1200 23.2582 1200 44V401C1200 421.742 1200 432.113 1193.56 438.556C1187.11 445 1176.74 445 1156 445H44C23.2582 445 12.8873 445 6.44365 438.556C0 432.113 0 421.742 0 401V44Z" fill="white"/>
</clipPath>
</defs>
</svg>
