<svg width="32" height="32" viewBox="0 0 32 32" fill="none" xmlns="http://www.w3.org/2000/svg">
<path d="M7.91335 26.2491C7.67191 26.2473 7.43946 26.1572 7.26002 25.9957C6.78219 25.586 6.33644 25.1401 5.92668 24.6624C3.82719 22.2633 2.66992 19.1837 2.66992 15.9957C2.66992 12.8077 3.82719 9.72809 5.92668 7.32904C6.33644 6.85121 6.78219 6.40547 7.26002 5.99571C7.35886 5.90884 7.47387 5.84232 7.59845 5.79999C7.72304 5.75765 7.85475 5.74033 7.98604 5.749C8.11735 5.75767 8.24564 5.79217 8.36359 5.85052C8.48152 5.90887 8.58679 5.98993 8.67334 6.08905C8.84546 6.29015 8.93205 6.55059 8.91461 6.81472C8.89717 7.07884 8.77708 7.32565 8.58001 7.50237C8.17177 7.85288 7.7886 8.2316 7.43335 8.63572C5.67217 10.673 4.703 13.2761 4.703 15.9691C4.703 18.662 5.67217 21.2651 7.43335 23.3024C7.7922 23.6989 8.17515 24.0729 8.58001 24.4224C8.73652 24.5561 8.84791 24.7349 8.89899 24.9344C8.95007 25.1339 8.93835 25.3443 8.86541 25.5368C8.79249 25.7293 8.66189 25.8945 8.49149 26.0101C8.32109 26.1257 8.1192 26.1859 7.91335 26.1824V26.2491Z" fill="white"/>
<path d="M11.2066 22.8356C10.9797 22.8366 10.759 22.7614 10.5799 22.6222C10.115 22.2638 9.69821 21.8472 9.3399 21.3822C8.09066 19.8625 7.40771 17.9561 7.40771 15.9889C7.40771 14.0216 8.09066 12.1153 9.3399 10.5955C9.70332 10.1346 10.1246 9.72226 10.5932 9.36885C10.696 9.28691 10.814 9.22631 10.9405 9.19062C11.067 9.15494 11.1993 9.1449 11.3297 9.16105C11.4601 9.17719 11.586 9.21921 11.6999 9.28466C11.8139 9.35011 11.9136 9.43767 11.9932 9.54219C12.1352 9.74622 12.1962 9.99583 12.1641 10.2423C12.1321 10.4888 12.0094 10.7146 11.8199 10.8755C11.4776 11.1394 11.1687 11.4438 10.8999 11.7822C9.93864 12.9477 9.4129 14.4114 9.4129 15.9222C9.4129 17.433 9.93864 18.8966 10.8999 20.0621C11.1735 20.4048 11.4868 20.7136 11.8332 20.9822C12.0422 21.1476 12.1775 21.3888 12.21 21.6533C12.2424 21.9178 12.1694 22.1845 12.0066 22.3954C11.9162 22.5256 11.797 22.633 11.6582 22.7093C11.5194 22.7857 11.3648 22.8289 11.2066 22.8356Z" fill="white"/>
<path d="M19.94 15.9957C19.9266 16.7211 19.7094 17.4279 19.3133 18.0357C18.9733 18.5557 18.5168 18.9895 17.98 19.3024C17.3641 19.6868 16.6526 19.8901 15.9266 19.8891C15.2029 19.8872 14.4933 19.6891 13.8733 19.3157C13.3321 18.9799 12.8757 18.5236 12.54 17.9824C12.1614 17.3668 11.9609 16.6583 11.9609 15.9356C11.9609 15.2131 12.1614 14.5045 12.54 13.8891C13.0914 13.0061 13.9653 12.3729 14.9761 12.1239C15.9869 11.8749 17.0549 12.0298 17.9533 12.5557C18.4945 12.8915 18.9509 13.3477 19.2866 13.8891C19.7086 14.5109 19.9361 15.2441 19.94 15.9957Z" fill="white"/>
<path d="M20.8068 22.8357C20.6564 22.8349 20.5078 22.8011 20.372 22.7365C20.236 22.672 20.1158 22.5784 20.0201 22.4624C19.9378 22.3585 19.8769 22.2393 19.8412 22.1119C19.8053 21.9843 19.795 21.8509 19.8112 21.7195C19.8273 21.588 19.8694 21.4609 19.935 21.3459C20.0006 21.2308 20.0885 21.1299 20.1934 21.0491C20.531 20.7844 20.8354 20.4799 21.1001 20.1423C22.0686 18.9801 22.599 17.5152 22.599 16.0024C22.599 14.4895 22.0686 13.0245 21.1001 11.8623C20.8277 11.5232 20.5192 11.2147 20.1801 10.9423C20.0662 10.8658 19.9692 10.7666 19.8953 10.6509C19.8213 10.5353 19.772 10.4057 19.7504 10.2701C19.7286 10.1346 19.7352 9.996 19.7693 9.86307C19.8036 9.73013 19.8648 9.60568 19.9492 9.49743C20.0336 9.38917 20.1393 9.29948 20.26 9.23388C20.3805 9.16828 20.5133 9.12821 20.6501 9.11616C20.7868 9.10412 20.9245 9.12035 21.0548 9.16385C21.1849 9.20736 21.3048 9.27719 21.4068 9.36901C21.876 9.727 22.2972 10.1437 22.6601 10.609C23.9141 12.1266 24.6002 14.0337 24.6002 16.0024C24.6002 17.9711 23.9141 19.8781 22.6601 21.3956C22.3014 21.8564 21.8846 22.2687 21.4201 22.6224C21.2456 22.7607 21.0294 22.8359 20.8068 22.8357Z" fill="white"/>
<path d="M24.0869 26.249C23.8823 26.2497 23.6822 26.1876 23.514 26.0709C23.3457 25.9544 23.2173 25.7889 23.146 25.597C23.0748 25.4052 23.0641 25.196 23.1156 24.9978C23.1671 24.7997 23.278 24.6221 23.4336 24.489C23.8376 24.1384 24.2162 23.7596 24.5669 23.3557C26.336 21.3221 27.3102 18.7176 27.3102 16.0224C27.3102 13.327 26.336 10.7225 24.5669 8.68898C24.2126 8.29254 23.8343 7.91849 23.4336 7.56898C23.2347 7.3941 23.112 7.14826 23.0921 6.88409C23.0721 6.61992 23.1564 6.35842 23.3269 6.15565C23.4135 6.05654 23.5188 5.97552 23.6367 5.91717C23.7547 5.85882 23.8829 5.82432 24.0143 5.81565C24.1456 5.80698 24.2772 5.8243 24.4019 5.86664C24.5264 5.90897 24.6415 5.97545 24.7403 6.06232C25.2177 6.47246 25.6635 6.91818 26.0736 7.39565C28.1731 9.7947 29.3304 12.8743 29.3304 16.0624C29.3304 19.2504 28.1731 22.33 26.0736 24.729C25.6635 25.2065 25.2177 25.6522 24.7403 26.0624C24.5537 26.2044 24.3204 26.271 24.0869 26.249Z" fill="white"/>
</svg>
