<svg width="20" height="20" viewBox="0 0 20 20" fill="none" xmlns="http://www.w3.org/2000/svg">
<path d="M13.25 0H6.75C4.9606 0.00265 3.24528 0.71468 1.97998 1.97998C0.71468 3.24528 0.00265 4.9606 0 6.75V13.25C0.00265 15.0394 0.71468 16.7547 1.97998 18.02C3.24528 19.2853 4.9606 19.9974 6.75 20H13.25C15.0394 19.9974 16.7547 19.2853 18.02 18.02C19.2853 16.7547 19.9974 15.0394 20 13.25V6.75C19.9974 4.9606 19.2853 3.24528 18.02 1.97998C16.7547 0.71468 15.0394 0.00265 13.25 0ZM15.31 8.16L10.09 13.38C9.7167 13.7556 9.2096 13.9677 8.68 13.97C8.4193 13.97 8.1611 13.9191 7.91998 13.82C7.67995 13.7166 7.46256 13.5671 7.28003 13.38L4.69 10.79C4.52618 10.5987 4.4406 10.3526 4.45032 10.101C4.46004 9.8493 4.56434 9.6105 4.74243 9.4324C4.92053 9.2543 5.15927 9.15 5.41095 9.1403C5.66263 9.1305 5.90867 9.2162 6.09998 9.38L8.69 11.97L13.9 6.73999C13.9933 6.64741 14.1038 6.57408 14.2253 6.52423C14.3469 6.47438 14.4771 6.449 14.6085 6.44946C14.7399 6.44993 14.8699 6.47627 14.9911 6.52698C15.1124 6.57769 15.2224 6.65176 15.315 6.745C15.4076 6.83823 15.4809 6.9488 15.5308 7.07037C15.5806 7.19194 15.606 7.32216 15.6055 7.45355C15.6051 7.58495 15.5787 7.71497 15.528 7.83618C15.4773 7.9574 15.4032 8.0674 15.31 8.16Z" fill="white"/>
</svg>
