<svg width="116" height="26" viewBox="0 0 116 26" fill="none" xmlns="http://www.w3.org/2000/svg">
<path d="M-0.000182192 20.1788V0.695821H9.0455C10.5856 0.695821 11.9401 1.00198 13.1091 1.6143C14.2966 2.20807 15.2151 3.0245 15.8646 4.0636C16.514 5.10269 16.8387 6.25312 16.8387 7.51487C16.8387 8.77663 16.514 9.92705 15.8646 10.9661C15.2151 12.0052 14.2966 12.831 13.1091 13.4433C11.9401 14.037 10.5856 14.3339 9.0455 14.3339H4.17475V20.1788H-0.000182192ZM8.90633 10.4373C10.0568 10.4373 10.9474 10.1683 11.5783 9.63017C12.2092 9.09207 12.5246 8.38697 12.5246 7.51487C12.5246 6.64278 12.2092 5.93768 11.5783 5.39958C10.9474 4.86147 10.0568 4.59242 8.90633 4.59242H4.17475V10.4373H8.90633ZM23.8121 20.5963C22.606 20.5963 21.502 20.2902 20.5 19.6778C19.5166 19.047 18.728 18.1656 18.1342 17.0337C17.559 15.8833 17.2714 14.5659 17.2714 13.0814C17.2714 11.597 17.559 10.2889 18.1342 9.15701C18.728 8.00659 19.5166 7.12521 20.5 6.51289C21.502 5.88201 22.606 5.56657 23.8121 5.56657C24.4987 5.56657 25.1296 5.6779 25.7048 5.90057C26.28 6.10467 26.781 6.37373 27.2077 6.70772C27.6345 7.04171 27.9871 7.40354 28.2654 7.7932H28.4046V5.98406H32.3012V20.1788H28.4046V18.3697H28.2654C27.9871 18.7594 27.6345 19.1212 27.2077 19.4552C26.781 19.7892 26.28 20.0582 25.7048 20.2623C25.1296 20.485 24.4987 20.5963 23.8121 20.5963ZM24.7863 17.2564C25.4914 17.2564 26.113 17.0894 26.6511 16.7554C27.2077 16.4214 27.6345 15.939 27.9314 15.3081C28.2468 14.6772 28.4046 13.935 28.4046 13.0814C28.4046 12.2279 28.2468 11.4857 27.9314 10.8548C27.6345 10.2239 27.2077 9.7415 26.6511 9.40751C26.113 9.07351 25.4914 8.90652 24.7863 8.90652C24.1369 8.90652 23.5431 9.07351 23.005 9.40751C22.4854 9.7415 22.0679 10.2239 21.7525 10.8548C21.4556 11.4857 21.3072 12.2279 21.3072 13.0814C21.3072 13.935 21.4556 14.6772 21.7525 15.3081C22.0679 15.939 22.4854 16.4214 23.005 16.7554C23.5431 17.0894 24.1369 17.2564 24.7863 17.2564ZM38.5636 25.4671L40.0944 20.1788H37.0327L33.2753 5.98406H37.3111L40.0944 16.8389H41.2077L44.2693 5.98406H48.3051L42.5993 25.4671H38.5636ZM48.9954 20.1788V0.695821H52.892V16.8389H56.0928V20.1788H48.9954ZM57.0757 20.1788V5.98406H60.9723V20.1788H57.0757ZM59.024 4.17493C58.4117 4.17493 57.8828 3.97082 57.4375 3.56261C57.0107 3.13584 56.7973 2.64412 56.7973 2.08746C56.7973 1.53081 57.0107 1.04837 57.4375 0.640156C57.8828 0.213385 58.4117 -3.29801e-07 59.024 -3.29801e-07C59.6363 -3.29801e-07 60.1558 0.213385 60.5826 0.640156C61.0279 1.04837 61.2506 1.53081 61.2506 2.08746C61.2506 2.64412 61.0279 3.13584 60.5826 3.56261C60.1558 3.97082 59.6363 4.17493 59.024 4.17493ZM63.1989 20.1788V5.98406H67.0955V7.93237H67.2347C67.6243 7.26438 68.1995 6.70772 68.9603 6.26239C69.7396 5.79851 70.6488 5.56657 71.6879 5.56657C73.4507 5.56657 74.8145 6.08612 75.7794 7.12521C76.7628 8.14575 77.2545 9.62089 77.2545 11.5506V20.1788H73.3579V12.1073C73.3579 11.0682 73.0981 10.2796 72.5786 9.7415C72.059 9.18484 71.3447 8.90652 70.4355 8.90652C69.8417 8.90652 69.285 9.06424 68.7655 9.37968C68.2645 9.69511 67.8563 10.1404 67.5408 10.7157C67.2439 11.2909 67.0955 11.9403 67.0955 12.664V20.1788H63.1989ZM79.3518 20.1788V0.695821H83.2484V11.2723H84.9183L88.6758 5.98406H92.9899L88.3974 12.5248L93.4074 20.1788H88.9541L85.3358 14.6123H83.2484V20.1788H79.3518ZM93.9553 20.1788V0.695821H97.8519V16.8389H101.053V20.1788H93.9553ZM106.071 25.4671L107.602 20.1788H104.54L100.783 5.98406H104.819L107.602 16.8389H108.715L111.777 5.98406H115.813L110.107 25.4671H106.071Z" fill="url(#paint0_linear_56_7)"/>
<defs>
<linearGradient id="paint0_linear_56_7" x1="-2.00098" y1="12.1788" x2="115.999" y2="12.1788" gradientUnits="userSpaceOnUse">
<stop stop-color="#03449D"/>
<stop offset="1" stop-color="#011837"/>
</linearGradient>
</defs>
</svg>
